G04 (created by PCBNEW (2013-04-19 BZR 4011)-stable) date 09/05/2013 23:39:35*
%MOIN*%
G04 Gerber Fmt 3.4, Leading zero omitted, Abs format*
%FSLAX34Y34*%
G01*
G70*
G90*
G04 APERTURE LIST*
%ADD10C,2.3622e-006*%
%ADD11C,0.015*%
%ADD12C,0.08*%
%ADD13R,0.0446063X0.043622*%
%ADD14R,0.0327953X0.0475591*%
%ADD15R,0.0672X0.0751*%
%ADD16R,0.0672X0.0672*%
%ADD17R,0.065X0.045*%
%ADD18R,0.045X0.065*%
%ADD19R,0.08X0.036*%
%ADD20R,0.036X0.08*%
%ADD21R,0.08X0.1*%
%ADD22C,0.0829921*%
%ADD23C,0.145984*%
%ADD24R,0.0397X0.0987*%
%ADD25R,0.1184X0.1066*%
%ADD26C,0.130236*%
G04 APERTURE END LIST*
G54D10*
G54D11*
X10400Y-500D02*
X10400Y-19150D01*
X0Y-19150D02*
X0Y-500D01*
X9900Y-19650D02*
X500Y-19650D01*
X9900Y-19650D02*
G75*
G03X10400Y-19150I0J500D01*
G74*
G01*
X0Y-19150D02*
G75*
G03X500Y-19650I500J0D01*
G74*
G01*
X500Y0D02*
X9900Y0D01*
X500Y0D02*
G75*
G03X0Y-500I0J-500D01*
G74*
G01*
X10400Y-500D02*
G75*
G03X9900Y0I-500J0D01*
G74*
G01*
G54D12*
X700Y-6700D03*
G54D13*
X8910Y-15014D03*
X7689Y-15014D03*
X8910Y-14385D03*
X7689Y-14385D03*
G54D14*
X7630Y-14700D03*
X8969Y-14700D03*
G54D15*
X8160Y-10408D03*
X8160Y-9542D03*
X8790Y-10408D03*
X8790Y-9542D03*
G54D16*
X7716Y-7525D03*
X8583Y-7525D03*
G54D17*
X6825Y-7375D03*
X6825Y-7975D03*
G54D12*
X9700Y-15700D03*
X4700Y-15700D03*
X5700Y-15700D03*
X6700Y-5300D03*
G54D18*
X1825Y-8900D03*
X2425Y-8900D03*
G54D17*
X4700Y-14300D03*
X4700Y-14900D03*
X3950Y-14300D03*
X3950Y-14900D03*
G54D12*
X1700Y-6700D03*
X9700Y-10700D03*
X9700Y-8700D03*
X9700Y-9700D03*
X9700Y-7700D03*
X9700Y-11700D03*
X9700Y-12700D03*
X9700Y-13700D03*
X7700Y-15700D03*
X8700Y-5300D03*
X7700Y-5300D03*
X700Y-7700D03*
X1700Y-15700D03*
X9700Y-6700D03*
X3700Y-15700D03*
X6700Y-15700D03*
X9700Y-14700D03*
X700Y-15700D03*
X700Y-14700D03*
X700Y-13700D03*
X700Y-12700D03*
X2700Y-6700D03*
X700Y-10700D03*
X700Y-9700D03*
X700Y-8700D03*
X8700Y-6700D03*
X7700Y-6700D03*
X6700Y-6700D03*
X5700Y-6700D03*
X4700Y-6700D03*
X3700Y-6700D03*
X700Y-11700D03*
G54D17*
X2725Y-7925D03*
X2725Y-7325D03*
X3700Y-7925D03*
X3700Y-7325D03*
X4700Y-7925D03*
X4700Y-7325D03*
X1700Y-7925D03*
X1700Y-7325D03*
G54D12*
X1700Y-5300D03*
X2700Y-5300D03*
X3700Y-5300D03*
X4700Y-5300D03*
X5700Y-5300D03*
G54D19*
X2550Y-11200D03*
X2550Y-11515D03*
X2550Y-11830D03*
X2550Y-12145D03*
X2550Y-12460D03*
X2550Y-12775D03*
X2550Y-10885D03*
X2550Y-10570D03*
X2550Y-10255D03*
X2550Y-9940D03*
X2550Y-9625D03*
X7050Y-11200D03*
X7050Y-11515D03*
X7050Y-11830D03*
X7050Y-12145D03*
X7050Y-12460D03*
X7050Y-12775D03*
X7050Y-10885D03*
X7050Y-10570D03*
X7050Y-10255D03*
X7050Y-9940D03*
X7050Y-9625D03*
G54D20*
X4800Y-13450D03*
X4800Y-8950D03*
X5115Y-13450D03*
X5115Y-8950D03*
X5430Y-8950D03*
X5430Y-13450D03*
X5745Y-13450D03*
X5745Y-8950D03*
X6060Y-8950D03*
X6060Y-13450D03*
X6375Y-13450D03*
X6375Y-8950D03*
X4485Y-8950D03*
X4485Y-13450D03*
X4170Y-13450D03*
X4170Y-8950D03*
X3855Y-8950D03*
X3855Y-13450D03*
X3540Y-13450D03*
X3540Y-8950D03*
X3225Y-8950D03*
X3225Y-13450D03*
G54D21*
X3100Y-14675D03*
X1800Y-14675D03*
G54D17*
X8500Y-12700D03*
X8500Y-12100D03*
G54D18*
X5425Y-14825D03*
X6025Y-14825D03*
G54D17*
X1750Y-9475D03*
X1750Y-10075D03*
G54D18*
X5375Y-7425D03*
X5975Y-7425D03*
X1675Y-13500D03*
X2275Y-13500D03*
X8800Y-11225D03*
X8200Y-11225D03*
X8150Y-8725D03*
X8750Y-8725D03*
G54D22*
X3861Y-2596D03*
X6538Y-2596D03*
X3861Y-3580D03*
X6538Y-3580D03*
G54D23*
X5200Y-1100D03*
X2542Y-1414D03*
X7857Y-1414D03*
G54D22*
X4688Y-2596D03*
X5711Y-2596D03*
X4688Y-3580D03*
X5554Y-3580D03*
G54D24*
X4571Y-16767D03*
X4886Y-16767D03*
X5201Y-16767D03*
X5516Y-16767D03*
X5831Y-16767D03*
G54D25*
X3547Y-16806D03*
X6854Y-16806D03*
X3547Y-18892D03*
X6855Y-18892D03*
G54D26*
X9025Y-18275D03*
X1375Y-3050D03*
X9025Y-3050D03*
X1375Y-18275D03*
M02*
