G04 (created by PCBNEW (2013-04-19 BZR 4011)-stable) date 09/05/2013 23:39:35*
%MOIN*%
G04 Gerber Fmt 3.4, Leading zero omitted, Abs format*
%FSLAX34Y34*%
G01*
G70*
G90*
G04 APERTURE LIST*
%ADD10C,2.3622e-006*%
%ADD11C,0.015*%
%ADD12C,0.08*%
%ADD13C,0.0829921*%
%ADD14C,0.145984*%
%ADD15R,0.035748X0.0731496*%
%ADD16R,0.102677X0.0987402*%
%ADD17R,0.0829921X0.0948031*%
%ADD18C,0.130236*%
G04 APERTURE END LIST*
G54D10*
G54D11*
X10400Y-500D02*
X10400Y-19150D01*
X0Y-19150D02*
X0Y-500D01*
X9900Y-19650D02*
X500Y-19650D01*
X9900Y-19650D02*
G75*
G03X10400Y-19150I0J500D01*
G74*
G01*
X0Y-19150D02*
G75*
G03X500Y-19650I500J0D01*
G74*
G01*
X500Y0D02*
X9900Y0D01*
X500Y0D02*
G75*
G03X0Y-500I0J-500D01*
G74*
G01*
X10400Y-500D02*
G75*
G03X9900Y0I-500J0D01*
G74*
G01*
G54D12*
X700Y-6700D03*
X9700Y-15700D03*
X4700Y-15700D03*
X5700Y-15700D03*
X6700Y-5300D03*
X1700Y-6700D03*
X9700Y-10700D03*
X9700Y-8700D03*
X9700Y-9700D03*
X9700Y-7700D03*
X9700Y-11700D03*
X9700Y-12700D03*
X9700Y-13700D03*
X7700Y-15700D03*
X8700Y-5300D03*
X7700Y-5300D03*
X700Y-7700D03*
X1700Y-15700D03*
X9700Y-6700D03*
X3700Y-15700D03*
X6700Y-15700D03*
X9700Y-14700D03*
X700Y-15700D03*
X700Y-14700D03*
X700Y-13700D03*
X700Y-12700D03*
X2700Y-6700D03*
X700Y-10700D03*
X700Y-9700D03*
X700Y-8700D03*
X8700Y-6700D03*
X7700Y-6700D03*
X6700Y-6700D03*
X5700Y-6700D03*
X4700Y-6700D03*
X3700Y-6700D03*
X700Y-11700D03*
X1700Y-5300D03*
X2700Y-5300D03*
X3700Y-5300D03*
X4700Y-5300D03*
X5700Y-5300D03*
G54D13*
X3861Y-2596D03*
X6538Y-2596D03*
X3861Y-3580D03*
X6538Y-3580D03*
G54D14*
X5200Y-1100D03*
X2542Y-1414D03*
X7857Y-1414D03*
G54D13*
X4688Y-2596D03*
X5711Y-2596D03*
X4688Y-3580D03*
X5554Y-3580D03*
G54D15*
X4689Y-17797D03*
G54D16*
X6420Y-17925D03*
X3980Y-17925D03*
G54D17*
X6814Y-18850D03*
X3586Y-18850D03*
G54D15*
X4944Y-17797D03*
X5200Y-17797D03*
X5456Y-17797D03*
X5712Y-17797D03*
G54D18*
X9025Y-18275D03*
X1375Y-3050D03*
X9025Y-3050D03*
X1375Y-18275D03*
M02*
