G04 (created by PCBNEW (2013-04-19 BZR 4011)-stable) date 09/05/2013 23:39:35*
%MOIN*%
G04 Gerber Fmt 3.4, Leading zero omitted, Abs format*
%FSLAX34Y34*%
G01*
G70*
G90*
G04 APERTURE LIST*
%ADD10C,2.3622e-006*%
%ADD11C,0.006*%
%ADD12C,0.004*%
%ADD13C,0.008*%
%ADD14C,0.012*%
%ADD15C,0.015*%
%ADD16C,0.00787402*%
%ADD17C,0.00590551*%
%ADD18C,0.005*%
%ADD19C,0.0047*%
%ADD20C,0.00492126*%
%ADD21C,0.0045*%
G04 APERTURE END LIST*
G54D10*
G54D11*
X3022Y-10732D02*
X3160Y-10732D01*
X3091Y-10972D02*
X3091Y-10732D01*
X3274Y-10972D02*
X3251Y-10960D01*
X3240Y-10949D01*
X3228Y-10926D01*
X3228Y-10857D01*
X3240Y-10835D01*
X3251Y-10823D01*
X3274Y-10812D01*
X3308Y-10812D01*
X3331Y-10823D01*
X3342Y-10835D01*
X3354Y-10857D01*
X3354Y-10926D01*
X3342Y-10949D01*
X3331Y-10960D01*
X3308Y-10972D01*
X3274Y-10972D01*
X3457Y-10972D02*
X3457Y-10732D01*
X3480Y-10880D02*
X3548Y-10972D01*
X3548Y-10812D02*
X3457Y-10903D01*
X3628Y-10812D02*
X3685Y-10972D01*
X3742Y-10812D02*
X3685Y-10972D01*
X3662Y-11029D01*
X3651Y-11040D01*
X3628Y-11052D01*
X3868Y-10972D02*
X3845Y-10960D01*
X3834Y-10949D01*
X3822Y-10926D01*
X3822Y-10857D01*
X3834Y-10835D01*
X3845Y-10823D01*
X3868Y-10812D01*
X3902Y-10812D01*
X3925Y-10823D01*
X3937Y-10835D01*
X3948Y-10857D01*
X3948Y-10926D01*
X3937Y-10949D01*
X3925Y-10960D01*
X3902Y-10972D01*
X3868Y-10972D01*
X4302Y-10732D02*
X4302Y-10903D01*
X4291Y-10937D01*
X4268Y-10960D01*
X4234Y-10972D01*
X4211Y-10972D01*
X4405Y-10903D02*
X4520Y-10903D01*
X4382Y-10972D02*
X4462Y-10732D01*
X4542Y-10972D01*
X4622Y-10972D02*
X4622Y-10732D01*
X4714Y-10732D01*
X4737Y-10743D01*
X4748Y-10755D01*
X4760Y-10777D01*
X4760Y-10812D01*
X4748Y-10835D01*
X4737Y-10846D01*
X4714Y-10857D01*
X4622Y-10857D01*
X4851Y-10903D02*
X4965Y-10903D01*
X4828Y-10972D02*
X4908Y-10732D01*
X4988Y-10972D01*
X5068Y-10972D02*
X5068Y-10732D01*
X5205Y-10972D01*
X5205Y-10732D01*
G54D12*
X3038Y-11314D02*
X3038Y-11154D01*
X3091Y-11269D01*
X3144Y-11154D01*
X3144Y-11314D01*
X3289Y-11314D02*
X3289Y-11230D01*
X3281Y-11215D01*
X3266Y-11208D01*
X3236Y-11208D01*
X3220Y-11215D01*
X3289Y-11307D02*
X3274Y-11314D01*
X3236Y-11314D01*
X3220Y-11307D01*
X3213Y-11291D01*
X3213Y-11276D01*
X3220Y-11261D01*
X3236Y-11253D01*
X3274Y-11253D01*
X3289Y-11246D01*
X3350Y-11208D02*
X3388Y-11314D01*
X3426Y-11208D02*
X3388Y-11314D01*
X3373Y-11352D01*
X3365Y-11360D01*
X3350Y-11368D01*
X3601Y-11170D02*
X3609Y-11162D01*
X3624Y-11154D01*
X3662Y-11154D01*
X3678Y-11162D01*
X3685Y-11170D01*
X3693Y-11185D01*
X3693Y-11200D01*
X3685Y-11223D01*
X3594Y-11314D01*
X3693Y-11314D01*
X3792Y-11154D02*
X3807Y-11154D01*
X3822Y-11162D01*
X3830Y-11170D01*
X3838Y-11185D01*
X3845Y-11215D01*
X3845Y-11253D01*
X3838Y-11284D01*
X3830Y-11299D01*
X3822Y-11307D01*
X3807Y-11314D01*
X3792Y-11314D01*
X3777Y-11307D01*
X3769Y-11299D01*
X3761Y-11284D01*
X3754Y-11253D01*
X3754Y-11215D01*
X3761Y-11185D01*
X3769Y-11170D01*
X3777Y-11162D01*
X3792Y-11154D01*
X3998Y-11314D02*
X3906Y-11314D01*
X3952Y-11314D02*
X3952Y-11154D01*
X3937Y-11177D01*
X3921Y-11192D01*
X3906Y-11200D01*
X4051Y-11154D02*
X4150Y-11154D01*
X4097Y-11215D01*
X4120Y-11215D01*
X4135Y-11223D01*
X4142Y-11230D01*
X4150Y-11246D01*
X4150Y-11284D01*
X4142Y-11299D01*
X4135Y-11307D01*
X4120Y-11314D01*
X4074Y-11314D01*
X4059Y-11307D01*
X4051Y-11299D01*
G54D13*
X3051Y-10529D02*
X3051Y-10209D01*
X3081Y-10407D02*
X3173Y-10529D01*
X3173Y-10316D02*
X3051Y-10438D01*
X3432Y-10514D02*
X3401Y-10529D01*
X3340Y-10529D01*
X3310Y-10514D01*
X3295Y-10483D01*
X3295Y-10361D01*
X3310Y-10331D01*
X3340Y-10316D01*
X3401Y-10316D01*
X3432Y-10331D01*
X3447Y-10361D01*
X3447Y-10392D01*
X3295Y-10422D01*
X3554Y-10316D02*
X3630Y-10529D01*
X3706Y-10316D02*
X3630Y-10529D01*
X3599Y-10605D01*
X3584Y-10620D01*
X3554Y-10636D01*
X3828Y-10529D02*
X3828Y-10209D01*
X3828Y-10331D02*
X3858Y-10316D01*
X3919Y-10316D01*
X3950Y-10331D01*
X3965Y-10346D01*
X3980Y-10377D01*
X3980Y-10468D01*
X3965Y-10499D01*
X3950Y-10514D01*
X3919Y-10529D01*
X3858Y-10529D01*
X3828Y-10514D01*
X4163Y-10529D02*
X4133Y-10514D01*
X4117Y-10499D01*
X4102Y-10468D01*
X4102Y-10377D01*
X4117Y-10346D01*
X4133Y-10331D01*
X4163Y-10316D01*
X4209Y-10316D01*
X4239Y-10331D01*
X4255Y-10346D01*
X4270Y-10377D01*
X4270Y-10468D01*
X4255Y-10499D01*
X4239Y-10514D01*
X4209Y-10529D01*
X4163Y-10529D01*
X4544Y-10529D02*
X4544Y-10361D01*
X4529Y-10331D01*
X4498Y-10316D01*
X4437Y-10316D01*
X4407Y-10331D01*
X4544Y-10514D02*
X4514Y-10529D01*
X4437Y-10529D01*
X4407Y-10514D01*
X4392Y-10483D01*
X4392Y-10453D01*
X4407Y-10422D01*
X4437Y-10407D01*
X4514Y-10407D01*
X4544Y-10392D01*
X4696Y-10529D02*
X4696Y-10316D01*
X4696Y-10377D02*
X4712Y-10346D01*
X4727Y-10331D01*
X4757Y-10316D01*
X4788Y-10316D01*
X5032Y-10529D02*
X5032Y-10209D01*
X5032Y-10514D02*
X5001Y-10529D01*
X4940Y-10529D01*
X4910Y-10514D01*
X4894Y-10499D01*
X4879Y-10468D01*
X4879Y-10377D01*
X4894Y-10346D01*
X4910Y-10331D01*
X4940Y-10316D01*
X5001Y-10316D01*
X5032Y-10331D01*
G54D14*
X3045Y-9589D02*
X3320Y-9589D01*
X3182Y-10069D02*
X3182Y-9589D01*
X3480Y-10069D02*
X3480Y-9589D01*
X3640Y-9932D01*
X3800Y-9589D01*
X3800Y-10069D01*
X4028Y-10069D02*
X4028Y-9589D01*
X4302Y-10069D02*
X4097Y-9795D01*
X4302Y-9589D02*
X4028Y-9863D01*
G54D15*
X10400Y-500D02*
X10400Y-19150D01*
X0Y-19150D02*
X0Y-500D01*
X9900Y-19650D02*
X500Y-19650D01*
X9900Y-19650D02*
G75*
G03X10400Y-19150I0J500D01*
G74*
G01*
X0Y-19150D02*
G75*
G03X500Y-19650I500J0D01*
G74*
G01*
X500Y0D02*
X9900Y0D01*
X500Y0D02*
G75*
G03X0Y-500I0J-500D01*
G74*
G01*
X10400Y-500D02*
G75*
G03X9900Y0I-500J0D01*
G74*
G01*
G54D13*
X2189Y-15879D02*
X2189Y-15666D01*
X2189Y-15727D02*
X2204Y-15696D01*
X2220Y-15681D01*
X2250Y-15666D01*
X2280Y-15666D01*
X2509Y-15864D02*
X2479Y-15879D01*
X2418Y-15879D01*
X2387Y-15864D01*
X2372Y-15833D01*
X2372Y-15711D01*
X2387Y-15681D01*
X2418Y-15666D01*
X2479Y-15666D01*
X2509Y-15681D01*
X2524Y-15711D01*
X2524Y-15742D01*
X2372Y-15772D01*
X2631Y-15666D02*
X2707Y-15879D01*
X2783Y-15666D01*
X2905Y-15849D02*
X2920Y-15864D01*
X2905Y-15879D01*
X2890Y-15864D01*
X2905Y-15849D01*
X2905Y-15879D01*
X3225Y-15879D02*
X3042Y-15879D01*
X3134Y-15879D02*
X3134Y-15559D01*
X3103Y-15605D01*
X3073Y-15635D01*
X3042Y-15650D01*
X8240Y-15509D02*
X8423Y-15509D01*
X8332Y-15829D02*
X8332Y-15509D01*
X8530Y-15829D02*
X8530Y-15509D01*
X8636Y-15738D01*
X8743Y-15509D01*
X8743Y-15829D01*
X8895Y-15829D02*
X8895Y-15509D01*
X9078Y-15829D02*
X8941Y-15646D01*
X9078Y-15509D02*
X8895Y-15692D01*
G54D16*
X8693Y-14365D02*
X7906Y-14365D01*
X8693Y-15014D02*
X7906Y-15014D01*
X8496Y-14640D02*
X8496Y-14759D01*
X8437Y-14818D02*
X8437Y-14562D01*
X8300Y-15014D02*
X8300Y-14818D01*
X8300Y-14404D02*
X8300Y-14581D01*
G54D17*
X7532Y-15172D02*
X7532Y-14227D01*
X7532Y-14227D02*
X7866Y-14227D01*
X7866Y-15172D02*
X7532Y-15172D01*
X9067Y-15152D02*
X9067Y-15172D01*
X9067Y-15172D02*
X8752Y-15172D01*
X9067Y-15152D02*
X9067Y-14247D01*
X9067Y-14247D02*
X9067Y-14227D01*
X9067Y-14227D02*
X8752Y-14227D01*
X9220Y-10713D02*
G75*
G03X9220Y-10713I-164J0D01*
G74*
G01*
X9065Y-10723D02*
X7884Y-10723D01*
X9065Y-9226D02*
X7884Y-9226D01*
X9065Y-10723D02*
X9065Y-9226D01*
X7884Y-10723D02*
X7884Y-9226D01*
X8189Y-7328D02*
X8248Y-7249D01*
X8150Y-7288D02*
X8071Y-7387D01*
X8268Y-7525D02*
X8031Y-7367D01*
X8031Y-7367D02*
X8031Y-7682D01*
X8031Y-7682D02*
X8268Y-7505D01*
X8268Y-7367D02*
X8268Y-7682D01*
X8858Y-7249D02*
X8957Y-7249D01*
X8957Y-7249D02*
X8957Y-7800D01*
X8957Y-7800D02*
X8858Y-7800D01*
X7953Y-7800D02*
X7441Y-7800D01*
X7441Y-7800D02*
X7441Y-7249D01*
X7441Y-7249D02*
X7953Y-7249D01*
X8346Y-7249D02*
X8858Y-7249D01*
X8858Y-7249D02*
X8858Y-7800D01*
X8858Y-7800D02*
X8346Y-7800D01*
G54D18*
X7075Y-7225D02*
X7075Y-8125D01*
X7075Y-8125D02*
X6575Y-8125D01*
X6575Y-8125D02*
X6575Y-7225D01*
X6575Y-7225D02*
X7075Y-7225D01*
X1675Y-8650D02*
X2575Y-8650D01*
X2575Y-8650D02*
X2575Y-9150D01*
X2575Y-9150D02*
X1675Y-9150D01*
X1675Y-9150D02*
X1675Y-8650D01*
X4950Y-14150D02*
X4950Y-15050D01*
X4950Y-15050D02*
X4450Y-15050D01*
X4450Y-15050D02*
X4450Y-14150D01*
X4450Y-14150D02*
X4950Y-14150D01*
X4200Y-14150D02*
X4200Y-15050D01*
X4200Y-15050D02*
X3700Y-15050D01*
X3700Y-15050D02*
X3700Y-14150D01*
X3700Y-14150D02*
X4200Y-14150D01*
X2475Y-8075D02*
X2475Y-7175D01*
X2475Y-7175D02*
X2975Y-7175D01*
X2975Y-7175D02*
X2975Y-8075D01*
X2975Y-8075D02*
X2475Y-8075D01*
X3450Y-8075D02*
X3450Y-7175D01*
X3450Y-7175D02*
X3950Y-7175D01*
X3950Y-7175D02*
X3950Y-8075D01*
X3950Y-8075D02*
X3450Y-8075D01*
X4450Y-8075D02*
X4450Y-7175D01*
X4450Y-7175D02*
X4950Y-7175D01*
X4950Y-7175D02*
X4950Y-8075D01*
X4950Y-8075D02*
X4450Y-8075D01*
X1450Y-8075D02*
X1450Y-7175D01*
X1450Y-7175D02*
X1950Y-7175D01*
X1950Y-7175D02*
X1950Y-8075D01*
X1950Y-8075D02*
X1450Y-8075D01*
G54D14*
X2830Y-9230D02*
X6770Y-9230D01*
X6770Y-9230D02*
X6770Y-13170D01*
X3020Y-13170D02*
X6770Y-13170D01*
X2830Y-12980D02*
X2830Y-9230D01*
X3020Y-13170D02*
X2830Y-12980D01*
G54D13*
X3550Y-12700D02*
G75*
G03X3550Y-12700I-250J0D01*
G74*
G01*
G54D18*
X3450Y-15125D02*
X3550Y-15125D01*
X3550Y-15125D02*
X3550Y-14225D01*
X3550Y-14225D02*
X3450Y-14225D01*
X3450Y-15125D02*
X3450Y-14225D01*
X3450Y-14225D02*
X2800Y-14225D01*
X2100Y-15125D02*
X1450Y-15125D01*
X1450Y-15125D02*
X1450Y-14225D01*
X1450Y-14225D02*
X2100Y-14225D01*
X2800Y-15125D02*
X3450Y-15125D01*
G54D19*
X8756Y-12203D02*
X8756Y-11928D01*
X8756Y-12597D02*
X8756Y-12872D01*
X8244Y-12203D02*
X8244Y-11928D01*
X8244Y-12872D02*
X8244Y-12597D01*
X8250Y-11928D02*
X8750Y-11928D01*
X8750Y-12872D02*
X8250Y-12872D01*
X5922Y-15081D02*
X6197Y-15081D01*
X5528Y-15081D02*
X5253Y-15081D01*
X5922Y-14569D02*
X6197Y-14569D01*
X5253Y-14569D02*
X5528Y-14569D01*
X6197Y-14575D02*
X6197Y-15075D01*
X5253Y-15075D02*
X5253Y-14575D01*
X1494Y-9972D02*
X1494Y-10247D01*
X1494Y-9578D02*
X1494Y-9303D01*
X2006Y-9972D02*
X2006Y-10247D01*
X2006Y-9303D02*
X2006Y-9578D01*
X2000Y-10247D02*
X1500Y-10247D01*
X1500Y-9303D02*
X2000Y-9303D01*
X5872Y-7681D02*
X6147Y-7681D01*
X5478Y-7681D02*
X5203Y-7681D01*
X5872Y-7169D02*
X6147Y-7169D01*
X5203Y-7169D02*
X5478Y-7169D01*
X6147Y-7175D02*
X6147Y-7675D01*
X5203Y-7675D02*
X5203Y-7175D01*
X2172Y-13756D02*
X2447Y-13756D01*
X1778Y-13756D02*
X1503Y-13756D01*
X2172Y-13244D02*
X2447Y-13244D01*
X1503Y-13244D02*
X1778Y-13244D01*
X2447Y-13250D02*
X2447Y-13750D01*
X1503Y-13750D02*
X1503Y-13250D01*
X8303Y-10969D02*
X8028Y-10969D01*
X8697Y-10969D02*
X8972Y-10969D01*
X8303Y-11481D02*
X8028Y-11481D01*
X8972Y-11481D02*
X8697Y-11481D01*
X8028Y-11475D02*
X8028Y-10975D01*
X8972Y-10975D02*
X8972Y-11475D01*
X8647Y-8981D02*
X8922Y-8981D01*
X8253Y-8981D02*
X7978Y-8981D01*
X8647Y-8469D02*
X8922Y-8469D01*
X7978Y-8469D02*
X8253Y-8469D01*
X8922Y-8475D02*
X8922Y-8975D01*
X7978Y-8975D02*
X7978Y-8475D01*
G54D15*
X7857Y750D02*
X5200Y750D01*
X7857Y-4309D02*
X7857Y750D01*
X5180Y750D02*
X2543Y750D01*
X2543Y750D02*
X2543Y-4309D01*
X2543Y-4309D02*
X7857Y-4309D01*
G54D11*
X273Y-5938D02*
X380Y-6258D01*
X486Y-5938D01*
X776Y-6228D02*
X760Y-6243D01*
X715Y-6258D01*
X684Y-6258D01*
X639Y-6243D01*
X608Y-6212D01*
X593Y-6182D01*
X578Y-6121D01*
X578Y-6075D01*
X593Y-6014D01*
X608Y-5984D01*
X639Y-5953D01*
X684Y-5938D01*
X715Y-5938D01*
X760Y-5953D01*
X776Y-5969D01*
X1096Y-6228D02*
X1080Y-6243D01*
X1035Y-6258D01*
X1004Y-6258D01*
X959Y-6243D01*
X928Y-6212D01*
X913Y-6182D01*
X898Y-6121D01*
X898Y-6075D01*
X913Y-6014D01*
X928Y-5984D01*
X959Y-5953D01*
X1004Y-5938D01*
X1035Y-5938D01*
X1080Y-5953D01*
X1096Y-5969D01*
G54D20*
X8037Y-15320D02*
X8065Y-15329D01*
X8112Y-15329D01*
X8131Y-15320D01*
X8140Y-15310D01*
X8150Y-15292D01*
X8150Y-15273D01*
X8140Y-15254D01*
X8131Y-15245D01*
X8112Y-15235D01*
X8075Y-15226D01*
X8056Y-15217D01*
X8046Y-15207D01*
X8037Y-15189D01*
X8037Y-15170D01*
X8046Y-15151D01*
X8056Y-15142D01*
X8075Y-15132D01*
X8121Y-15132D01*
X8150Y-15142D01*
X8215Y-15132D02*
X8262Y-15329D01*
X8300Y-15189D01*
X8337Y-15329D01*
X8384Y-15132D01*
X8562Y-15329D02*
X8449Y-15329D01*
X8506Y-15329D02*
X8506Y-15132D01*
X8487Y-15160D01*
X8468Y-15179D01*
X8449Y-15189D01*
G54D21*
X8382Y-10109D02*
X8579Y-9978D01*
X8382Y-9978D02*
X8579Y-10109D01*
X8579Y-9800D02*
X8579Y-9912D01*
X8579Y-9856D02*
X8382Y-9856D01*
X8410Y-9875D01*
X8429Y-9893D01*
X8439Y-9912D01*
G54D18*
X8002Y-8130D02*
X8002Y-7930D01*
X8050Y-7930D01*
X8078Y-7940D01*
X8097Y-7959D01*
X8107Y-7978D01*
X8116Y-8016D01*
X8116Y-8045D01*
X8107Y-8083D01*
X8097Y-8102D01*
X8078Y-8121D01*
X8050Y-8130D01*
X8002Y-8130D01*
X8307Y-8130D02*
X8192Y-8130D01*
X8250Y-8130D02*
X8250Y-7930D01*
X8230Y-7959D01*
X8211Y-7978D01*
X8192Y-7988D01*
G54D21*
X6905Y-7705D02*
X6810Y-7765D01*
X6905Y-7807D02*
X6705Y-7807D01*
X6705Y-7739D01*
X6715Y-7722D01*
X6725Y-7713D01*
X6744Y-7705D01*
X6772Y-7705D01*
X6791Y-7713D01*
X6801Y-7722D01*
X6810Y-7739D01*
X6810Y-7807D01*
X6791Y-7602D02*
X6782Y-7619D01*
X6772Y-7627D01*
X6753Y-7636D01*
X6744Y-7636D01*
X6725Y-7627D01*
X6715Y-7619D01*
X6705Y-7602D01*
X6705Y-7567D01*
X6715Y-7550D01*
X6725Y-7542D01*
X6744Y-7533D01*
X6753Y-7533D01*
X6772Y-7542D01*
X6782Y-7550D01*
X6791Y-7567D01*
X6791Y-7602D01*
X6801Y-7619D01*
X6810Y-7627D01*
X6829Y-7636D01*
X6867Y-7636D01*
X6886Y-7627D01*
X6896Y-7619D01*
X6905Y-7602D01*
X6905Y-7567D01*
X6896Y-7550D01*
X6886Y-7542D01*
X6867Y-7533D01*
X6829Y-7533D01*
X6810Y-7542D01*
X6801Y-7550D01*
X6791Y-7567D01*
G54D11*
X9456Y-16095D02*
X9425Y-16080D01*
X9380Y-16080D01*
X9334Y-16095D01*
X9303Y-16126D01*
X9288Y-16156D01*
X9273Y-16217D01*
X9273Y-16263D01*
X9288Y-16324D01*
X9303Y-16354D01*
X9334Y-16385D01*
X9380Y-16400D01*
X9410Y-16400D01*
X9456Y-16385D01*
X9471Y-16369D01*
X9471Y-16263D01*
X9410Y-16263D01*
X9608Y-16400D02*
X9608Y-16080D01*
X9791Y-16400D01*
X9791Y-16080D01*
X9943Y-16400D02*
X9943Y-16080D01*
X10020Y-16080D01*
X10065Y-16095D01*
X10096Y-16126D01*
X10111Y-16156D01*
X10126Y-16217D01*
X10126Y-16263D01*
X10111Y-16324D01*
X10096Y-16354D01*
X10065Y-16385D01*
X10020Y-16400D01*
X9943Y-16400D01*
X4418Y-16400D02*
X4418Y-16080D01*
X4494Y-16080D01*
X4540Y-16095D01*
X4570Y-16126D01*
X4585Y-16156D01*
X4600Y-16217D01*
X4600Y-16263D01*
X4585Y-16324D01*
X4570Y-16354D01*
X4540Y-16385D01*
X4494Y-16400D01*
X4418Y-16400D01*
X4738Y-16278D02*
X4981Y-16278D01*
X5418Y-16400D02*
X5418Y-16080D01*
X5494Y-16080D01*
X5540Y-16095D01*
X5570Y-16126D01*
X5585Y-16156D01*
X5600Y-16217D01*
X5600Y-16263D01*
X5585Y-16324D01*
X5570Y-16354D01*
X5540Y-16385D01*
X5494Y-16400D01*
X5418Y-16400D01*
X5738Y-16278D02*
X5981Y-16278D01*
X5860Y-16400D02*
X5860Y-16156D01*
X6760Y-4538D02*
X6700Y-4538D01*
X6669Y-4553D01*
X6654Y-4569D01*
X6623Y-4614D01*
X6608Y-4675D01*
X6608Y-4797D01*
X6623Y-4828D01*
X6639Y-4843D01*
X6669Y-4858D01*
X6730Y-4858D01*
X6760Y-4843D01*
X6776Y-4828D01*
X6791Y-4797D01*
X6791Y-4721D01*
X6776Y-4691D01*
X6760Y-4675D01*
X6730Y-4660D01*
X6669Y-4660D01*
X6639Y-4675D01*
X6623Y-4691D01*
X6608Y-4721D01*
G54D21*
X2095Y-8980D02*
X2035Y-8885D01*
X1992Y-8980D02*
X1992Y-8780D01*
X2060Y-8780D01*
X2077Y-8790D01*
X2086Y-8800D01*
X2095Y-8819D01*
X2095Y-8847D01*
X2086Y-8866D01*
X2077Y-8876D01*
X2060Y-8885D01*
X1992Y-8885D01*
X2155Y-8780D02*
X2266Y-8780D01*
X2206Y-8857D01*
X2232Y-8857D01*
X2249Y-8866D01*
X2257Y-8876D01*
X2266Y-8895D01*
X2266Y-8942D01*
X2257Y-8961D01*
X2249Y-8971D01*
X2232Y-8980D01*
X2180Y-8980D01*
X2163Y-8971D01*
X2155Y-8961D01*
X4780Y-14630D02*
X4685Y-14690D01*
X4780Y-14732D02*
X4580Y-14732D01*
X4580Y-14664D01*
X4590Y-14647D01*
X4600Y-14638D01*
X4619Y-14630D01*
X4647Y-14630D01*
X4666Y-14638D01*
X4676Y-14647D01*
X4685Y-14664D01*
X4685Y-14732D01*
X4600Y-14561D02*
X4590Y-14552D01*
X4580Y-14535D01*
X4580Y-14492D01*
X4590Y-14475D01*
X4600Y-14467D01*
X4619Y-14458D01*
X4638Y-14458D01*
X4666Y-14467D01*
X4780Y-14570D01*
X4780Y-14458D01*
X4030Y-14630D02*
X3935Y-14690D01*
X4030Y-14732D02*
X3830Y-14732D01*
X3830Y-14664D01*
X3840Y-14647D01*
X3850Y-14638D01*
X3869Y-14630D01*
X3897Y-14630D01*
X3916Y-14638D01*
X3926Y-14647D01*
X3935Y-14664D01*
X3935Y-14732D01*
X4030Y-14458D02*
X4030Y-14561D01*
X4030Y-14510D02*
X3830Y-14510D01*
X3859Y-14527D01*
X3878Y-14544D01*
X3888Y-14561D01*
G54D11*
X1463Y-6258D02*
X1463Y-5938D01*
X1540Y-5938D01*
X1585Y-5953D01*
X1616Y-5984D01*
X1631Y-6014D01*
X1646Y-6075D01*
X1646Y-6121D01*
X1631Y-6182D01*
X1616Y-6212D01*
X1585Y-6243D01*
X1540Y-6258D01*
X1463Y-6258D01*
X1844Y-5938D02*
X1875Y-5938D01*
X1905Y-5953D01*
X1920Y-5969D01*
X1936Y-5999D01*
X1951Y-6060D01*
X1951Y-6136D01*
X1936Y-6197D01*
X1920Y-6228D01*
X1905Y-6243D01*
X1875Y-6258D01*
X1844Y-6258D01*
X1814Y-6243D01*
X1799Y-6228D01*
X1783Y-6197D01*
X1768Y-6136D01*
X1768Y-6060D01*
X1783Y-5999D01*
X1799Y-5969D01*
X1814Y-5953D01*
X1844Y-5938D01*
X9120Y-10211D02*
X9166Y-10227D01*
X9181Y-10242D01*
X9196Y-10272D01*
X9196Y-10318D01*
X9181Y-10349D01*
X9166Y-10364D01*
X9135Y-10379D01*
X9013Y-10379D01*
X9013Y-10059D01*
X9120Y-10059D01*
X9150Y-10074D01*
X9166Y-10090D01*
X9181Y-10120D01*
X9181Y-10150D01*
X9166Y-10181D01*
X9150Y-10196D01*
X9120Y-10211D01*
X9013Y-10211D01*
X9470Y-10166D02*
X9470Y-10379D01*
X9394Y-10044D02*
X9318Y-10272D01*
X9516Y-10272D01*
X9120Y-8211D02*
X9166Y-8227D01*
X9181Y-8242D01*
X9196Y-8272D01*
X9196Y-8318D01*
X9181Y-8349D01*
X9166Y-8364D01*
X9135Y-8379D01*
X9013Y-8379D01*
X9013Y-8059D01*
X9120Y-8059D01*
X9150Y-8074D01*
X9166Y-8090D01*
X9181Y-8120D01*
X9181Y-8150D01*
X9166Y-8181D01*
X9150Y-8196D01*
X9120Y-8211D01*
X9013Y-8211D01*
X9470Y-8059D02*
X9410Y-8059D01*
X9379Y-8074D01*
X9364Y-8090D01*
X9333Y-8135D01*
X9318Y-8196D01*
X9318Y-8318D01*
X9333Y-8349D01*
X9349Y-8364D01*
X9379Y-8379D01*
X9440Y-8379D01*
X9470Y-8364D01*
X9486Y-8349D01*
X9501Y-8318D01*
X9501Y-8242D01*
X9486Y-8211D01*
X9470Y-8196D01*
X9440Y-8181D01*
X9379Y-8181D01*
X9349Y-8196D01*
X9333Y-8211D01*
X9318Y-8242D01*
X9120Y-9211D02*
X9166Y-9227D01*
X9181Y-9242D01*
X9196Y-9272D01*
X9196Y-9318D01*
X9181Y-9349D01*
X9166Y-9364D01*
X9135Y-9379D01*
X9013Y-9379D01*
X9013Y-9059D01*
X9120Y-9059D01*
X9150Y-9074D01*
X9166Y-9090D01*
X9181Y-9120D01*
X9181Y-9150D01*
X9166Y-9181D01*
X9150Y-9196D01*
X9120Y-9211D01*
X9013Y-9211D01*
X9486Y-9059D02*
X9333Y-9059D01*
X9318Y-9211D01*
X9333Y-9196D01*
X9364Y-9181D01*
X9440Y-9181D01*
X9470Y-9196D01*
X9486Y-9211D01*
X9501Y-9242D01*
X9501Y-9318D01*
X9486Y-9349D01*
X9470Y-9364D01*
X9440Y-9379D01*
X9364Y-9379D01*
X9333Y-9364D01*
X9318Y-9349D01*
X9120Y-7211D02*
X9166Y-7227D01*
X9181Y-7242D01*
X9196Y-7272D01*
X9196Y-7318D01*
X9181Y-7349D01*
X9166Y-7364D01*
X9135Y-7379D01*
X9013Y-7379D01*
X9013Y-7059D01*
X9120Y-7059D01*
X9150Y-7074D01*
X9166Y-7090D01*
X9181Y-7120D01*
X9181Y-7150D01*
X9166Y-7181D01*
X9150Y-7196D01*
X9120Y-7211D01*
X9013Y-7211D01*
X9303Y-7059D02*
X9516Y-7059D01*
X9379Y-7379D01*
X9120Y-11211D02*
X9166Y-11227D01*
X9181Y-11242D01*
X9196Y-11272D01*
X9196Y-11318D01*
X9181Y-11349D01*
X9166Y-11364D01*
X9135Y-11379D01*
X9013Y-11379D01*
X9013Y-11059D01*
X9120Y-11059D01*
X9150Y-11074D01*
X9166Y-11090D01*
X9181Y-11120D01*
X9181Y-11150D01*
X9166Y-11181D01*
X9150Y-11196D01*
X9120Y-11211D01*
X9013Y-11211D01*
X9303Y-11059D02*
X9501Y-11059D01*
X9394Y-11181D01*
X9440Y-11181D01*
X9470Y-11196D01*
X9486Y-11211D01*
X9501Y-11242D01*
X9501Y-11318D01*
X9486Y-11349D01*
X9470Y-11364D01*
X9440Y-11379D01*
X9349Y-11379D01*
X9318Y-11364D01*
X9303Y-11349D01*
X9120Y-12211D02*
X9166Y-12227D01*
X9181Y-12242D01*
X9196Y-12272D01*
X9196Y-12318D01*
X9181Y-12349D01*
X9166Y-12364D01*
X9135Y-12379D01*
X9013Y-12379D01*
X9013Y-12059D01*
X9120Y-12059D01*
X9150Y-12074D01*
X9166Y-12090D01*
X9181Y-12120D01*
X9181Y-12150D01*
X9166Y-12181D01*
X9150Y-12196D01*
X9120Y-12211D01*
X9013Y-12211D01*
X9318Y-12090D02*
X9333Y-12074D01*
X9364Y-12059D01*
X9440Y-12059D01*
X9470Y-12074D01*
X9486Y-12090D01*
X9501Y-12120D01*
X9501Y-12150D01*
X9486Y-12196D01*
X9303Y-12379D01*
X9501Y-12379D01*
X9120Y-13211D02*
X9166Y-13227D01*
X9181Y-13242D01*
X9196Y-13272D01*
X9196Y-13318D01*
X9181Y-13349D01*
X9166Y-13364D01*
X9135Y-13379D01*
X9013Y-13379D01*
X9013Y-13059D01*
X9120Y-13059D01*
X9150Y-13074D01*
X9166Y-13090D01*
X9181Y-13120D01*
X9181Y-13150D01*
X9166Y-13181D01*
X9150Y-13196D01*
X9120Y-13211D01*
X9013Y-13211D01*
X9501Y-13379D02*
X9318Y-13379D01*
X9410Y-13379D02*
X9410Y-13059D01*
X9379Y-13105D01*
X9349Y-13135D01*
X9318Y-13150D01*
X7524Y-16400D02*
X7418Y-16248D01*
X7341Y-16400D02*
X7341Y-16080D01*
X7463Y-16080D01*
X7494Y-16095D01*
X7509Y-16110D01*
X7524Y-16141D01*
X7524Y-16187D01*
X7509Y-16217D01*
X7494Y-16232D01*
X7463Y-16248D01*
X7341Y-16248D01*
X7646Y-16385D02*
X7692Y-16400D01*
X7768Y-16400D01*
X7799Y-16385D01*
X7814Y-16369D01*
X7829Y-16339D01*
X7829Y-16308D01*
X7814Y-16278D01*
X7799Y-16263D01*
X7768Y-16248D01*
X7707Y-16232D01*
X7677Y-16217D01*
X7661Y-16202D01*
X7646Y-16171D01*
X7646Y-16141D01*
X7661Y-16110D01*
X7677Y-16095D01*
X7707Y-16080D01*
X7783Y-16080D01*
X7829Y-16095D01*
X7920Y-16080D02*
X8103Y-16080D01*
X8012Y-16400D02*
X8012Y-16080D01*
X8669Y-4675D02*
X8639Y-4660D01*
X8623Y-4645D01*
X8608Y-4614D01*
X8608Y-4599D01*
X8623Y-4569D01*
X8639Y-4553D01*
X8669Y-4538D01*
X8730Y-4538D01*
X8760Y-4553D01*
X8776Y-4569D01*
X8791Y-4599D01*
X8791Y-4614D01*
X8776Y-4645D01*
X8760Y-4660D01*
X8730Y-4675D01*
X8669Y-4675D01*
X8639Y-4691D01*
X8623Y-4706D01*
X8608Y-4736D01*
X8608Y-4797D01*
X8623Y-4828D01*
X8639Y-4843D01*
X8669Y-4858D01*
X8730Y-4858D01*
X8760Y-4843D01*
X8776Y-4828D01*
X8791Y-4797D01*
X8791Y-4736D01*
X8776Y-4706D01*
X8760Y-4691D01*
X8730Y-4675D01*
X7593Y-4538D02*
X7806Y-4538D01*
X7669Y-4858D01*
X929Y-7211D02*
X1035Y-7211D01*
X1081Y-7379D02*
X929Y-7379D01*
X929Y-7059D01*
X1081Y-7059D01*
X1355Y-7059D02*
X1294Y-7059D01*
X1264Y-7074D01*
X1249Y-7090D01*
X1218Y-7135D01*
X1203Y-7196D01*
X1203Y-7318D01*
X1218Y-7349D01*
X1233Y-7364D01*
X1264Y-7379D01*
X1325Y-7379D01*
X1355Y-7364D01*
X1370Y-7349D01*
X1386Y-7318D01*
X1386Y-7242D01*
X1370Y-7211D01*
X1355Y-7196D01*
X1325Y-7181D01*
X1264Y-7181D01*
X1233Y-7196D01*
X1218Y-7211D01*
X1203Y-7242D01*
X1181Y-16308D02*
X1334Y-16308D01*
X1151Y-16400D02*
X1258Y-16080D01*
X1364Y-16400D01*
X1654Y-16400D02*
X1547Y-16248D01*
X1471Y-16400D02*
X1471Y-16080D01*
X1593Y-16080D01*
X1623Y-16095D01*
X1639Y-16110D01*
X1654Y-16141D01*
X1654Y-16187D01*
X1639Y-16217D01*
X1623Y-16232D01*
X1593Y-16248D01*
X1471Y-16248D01*
X1791Y-16232D02*
X1898Y-16232D01*
X1943Y-16400D02*
X1791Y-16400D01*
X1791Y-16080D01*
X1943Y-16080D01*
X2187Y-16232D02*
X2080Y-16232D01*
X2080Y-16400D02*
X2080Y-16080D01*
X2233Y-16080D01*
X9456Y-5953D02*
X9425Y-5938D01*
X9380Y-5938D01*
X9334Y-5953D01*
X9303Y-5984D01*
X9288Y-6014D01*
X9273Y-6075D01*
X9273Y-6121D01*
X9288Y-6182D01*
X9303Y-6212D01*
X9334Y-6243D01*
X9380Y-6258D01*
X9410Y-6258D01*
X9456Y-6243D01*
X9471Y-6228D01*
X9471Y-6121D01*
X9410Y-6121D01*
X9608Y-6258D02*
X9608Y-5938D01*
X9791Y-6258D01*
X9791Y-5938D01*
X9943Y-6258D02*
X9943Y-5938D01*
X10020Y-5938D01*
X10065Y-5953D01*
X10096Y-5984D01*
X10111Y-6014D01*
X10126Y-6075D01*
X10126Y-6121D01*
X10111Y-6182D01*
X10096Y-6212D01*
X10065Y-6243D01*
X10020Y-6258D01*
X9943Y-6258D01*
X3273Y-16080D02*
X3380Y-16400D01*
X3486Y-16080D01*
X3776Y-16369D02*
X3760Y-16385D01*
X3715Y-16400D01*
X3684Y-16400D01*
X3639Y-16385D01*
X3608Y-16354D01*
X3593Y-16324D01*
X3578Y-16263D01*
X3578Y-16217D01*
X3593Y-16156D01*
X3608Y-16126D01*
X3639Y-16095D01*
X3684Y-16080D01*
X3715Y-16080D01*
X3760Y-16095D01*
X3776Y-16110D01*
X4096Y-16369D02*
X4080Y-16385D01*
X4035Y-16400D01*
X4004Y-16400D01*
X3959Y-16385D01*
X3928Y-16354D01*
X3913Y-16324D01*
X3898Y-16263D01*
X3898Y-16217D01*
X3913Y-16156D01*
X3928Y-16126D01*
X3959Y-16095D01*
X4004Y-16080D01*
X4035Y-16080D01*
X4080Y-16095D01*
X4096Y-16110D01*
X6456Y-16095D02*
X6425Y-16080D01*
X6380Y-16080D01*
X6334Y-16095D01*
X6303Y-16126D01*
X6288Y-16156D01*
X6273Y-16217D01*
X6273Y-16263D01*
X6288Y-16324D01*
X6303Y-16354D01*
X6334Y-16385D01*
X6380Y-16400D01*
X6410Y-16400D01*
X6456Y-16385D01*
X6471Y-16369D01*
X6471Y-16263D01*
X6410Y-16263D01*
X6608Y-16400D02*
X6608Y-16080D01*
X6791Y-16400D01*
X6791Y-16080D01*
X6943Y-16400D02*
X6943Y-16080D01*
X7020Y-16080D01*
X7065Y-16095D01*
X7096Y-16126D01*
X7111Y-16156D01*
X7126Y-16217D01*
X7126Y-16263D01*
X7111Y-16324D01*
X7096Y-16354D01*
X7065Y-16385D01*
X7020Y-16400D01*
X6943Y-16400D01*
X9120Y-14211D02*
X9166Y-14227D01*
X9181Y-14242D01*
X9196Y-14272D01*
X9196Y-14318D01*
X9181Y-14349D01*
X9166Y-14364D01*
X9135Y-14379D01*
X9013Y-14379D01*
X9013Y-14059D01*
X9120Y-14059D01*
X9150Y-14074D01*
X9166Y-14090D01*
X9181Y-14120D01*
X9181Y-14150D01*
X9166Y-14181D01*
X9150Y-14196D01*
X9120Y-14211D01*
X9013Y-14211D01*
X9394Y-14059D02*
X9425Y-14059D01*
X9455Y-14074D01*
X9470Y-14090D01*
X9486Y-14120D01*
X9501Y-14181D01*
X9501Y-14257D01*
X9486Y-14318D01*
X9470Y-14349D01*
X9455Y-14364D01*
X9425Y-14379D01*
X9394Y-14379D01*
X9364Y-14364D01*
X9349Y-14349D01*
X9333Y-14318D01*
X9318Y-14257D01*
X9318Y-14181D01*
X9333Y-14120D01*
X9349Y-14090D01*
X9364Y-14074D01*
X9394Y-14059D01*
X1043Y-15211D02*
X936Y-15211D01*
X936Y-15379D02*
X936Y-15059D01*
X1089Y-15059D01*
X1271Y-15059D02*
X1302Y-15059D01*
X1332Y-15074D01*
X1348Y-15090D01*
X1363Y-15120D01*
X1378Y-15181D01*
X1378Y-15257D01*
X1363Y-15318D01*
X1348Y-15349D01*
X1332Y-15364D01*
X1302Y-15379D01*
X1271Y-15379D01*
X1241Y-15364D01*
X1226Y-15349D01*
X1210Y-15318D01*
X1195Y-15257D01*
X1195Y-15181D01*
X1210Y-15120D01*
X1226Y-15090D01*
X1241Y-15074D01*
X1271Y-15059D01*
X1043Y-14211D02*
X936Y-14211D01*
X936Y-14379D02*
X936Y-14059D01*
X1089Y-14059D01*
X1378Y-14379D02*
X1195Y-14379D01*
X1287Y-14379D02*
X1287Y-14059D01*
X1256Y-14105D01*
X1226Y-14135D01*
X1195Y-14150D01*
X1043Y-13211D02*
X936Y-13211D01*
X936Y-13379D02*
X936Y-13059D01*
X1089Y-13059D01*
X1348Y-13166D02*
X1348Y-13379D01*
X1271Y-13044D02*
X1195Y-13272D01*
X1393Y-13272D01*
X1043Y-12211D02*
X936Y-12211D01*
X936Y-12379D02*
X936Y-12059D01*
X1089Y-12059D01*
X1363Y-12059D02*
X1210Y-12059D01*
X1195Y-12211D01*
X1210Y-12196D01*
X1241Y-12181D01*
X1317Y-12181D01*
X1348Y-12196D01*
X1363Y-12211D01*
X1378Y-12242D01*
X1378Y-12318D01*
X1363Y-12349D01*
X1348Y-12364D01*
X1317Y-12379D01*
X1241Y-12379D01*
X1210Y-12364D01*
X1195Y-12349D01*
X2463Y-6258D02*
X2463Y-5938D01*
X2540Y-5938D01*
X2585Y-5953D01*
X2616Y-5984D01*
X2631Y-6014D01*
X2646Y-6075D01*
X2646Y-6121D01*
X2631Y-6182D01*
X2616Y-6212D01*
X2585Y-6243D01*
X2540Y-6258D01*
X2463Y-6258D01*
X2951Y-6258D02*
X2768Y-6258D01*
X2860Y-6258D02*
X2860Y-5938D01*
X2829Y-5984D01*
X2799Y-6014D01*
X2768Y-6030D01*
X1043Y-10211D02*
X936Y-10211D01*
X936Y-10379D02*
X936Y-10059D01*
X1089Y-10059D01*
X1180Y-10059D02*
X1393Y-10059D01*
X1256Y-10379D01*
X1096Y-9349D02*
X1081Y-9364D01*
X1035Y-9379D01*
X1005Y-9379D01*
X959Y-9364D01*
X929Y-9333D01*
X913Y-9303D01*
X898Y-9242D01*
X898Y-9196D01*
X913Y-9135D01*
X929Y-9105D01*
X959Y-9074D01*
X1005Y-9059D01*
X1035Y-9059D01*
X1081Y-9074D01*
X1096Y-9090D01*
X1203Y-9059D02*
X1416Y-9059D01*
X1279Y-9379D01*
X1096Y-8349D02*
X1081Y-8364D01*
X1035Y-8379D01*
X1005Y-8379D01*
X959Y-8364D01*
X929Y-8333D01*
X913Y-8303D01*
X898Y-8242D01*
X898Y-8196D01*
X913Y-8135D01*
X929Y-8105D01*
X959Y-8074D01*
X1005Y-8059D01*
X1035Y-8059D01*
X1081Y-8074D01*
X1096Y-8090D01*
X1370Y-8059D02*
X1310Y-8059D01*
X1279Y-8074D01*
X1264Y-8090D01*
X1233Y-8135D01*
X1218Y-8196D01*
X1218Y-8318D01*
X1233Y-8349D01*
X1249Y-8364D01*
X1279Y-8379D01*
X1340Y-8379D01*
X1370Y-8364D01*
X1386Y-8349D01*
X1401Y-8318D01*
X1401Y-8242D01*
X1386Y-8211D01*
X1370Y-8196D01*
X1340Y-8181D01*
X1279Y-8181D01*
X1249Y-8196D01*
X1233Y-8211D01*
X1218Y-8242D01*
X8463Y-6258D02*
X8463Y-5938D01*
X8540Y-5938D01*
X8585Y-5953D01*
X8616Y-5984D01*
X8631Y-6014D01*
X8646Y-6075D01*
X8646Y-6121D01*
X8631Y-6182D01*
X8616Y-6212D01*
X8585Y-6243D01*
X8540Y-6258D01*
X8463Y-6258D01*
X8753Y-5938D02*
X8966Y-5938D01*
X8829Y-6258D01*
X7463Y-6258D02*
X7463Y-5938D01*
X7540Y-5938D01*
X7585Y-5953D01*
X7616Y-5984D01*
X7631Y-6014D01*
X7646Y-6075D01*
X7646Y-6121D01*
X7631Y-6182D01*
X7616Y-6212D01*
X7585Y-6243D01*
X7540Y-6258D01*
X7463Y-6258D01*
X7920Y-5938D02*
X7860Y-5938D01*
X7829Y-5953D01*
X7814Y-5969D01*
X7783Y-6014D01*
X7768Y-6075D01*
X7768Y-6197D01*
X7783Y-6228D01*
X7799Y-6243D01*
X7829Y-6258D01*
X7890Y-6258D01*
X7920Y-6243D01*
X7936Y-6228D01*
X7951Y-6197D01*
X7951Y-6121D01*
X7936Y-6091D01*
X7920Y-6075D01*
X7890Y-6060D01*
X7829Y-6060D01*
X7799Y-6075D01*
X7783Y-6091D01*
X7768Y-6121D01*
X6463Y-6258D02*
X6463Y-5938D01*
X6540Y-5938D01*
X6585Y-5953D01*
X6616Y-5984D01*
X6631Y-6014D01*
X6646Y-6075D01*
X6646Y-6121D01*
X6631Y-6182D01*
X6616Y-6212D01*
X6585Y-6243D01*
X6540Y-6258D01*
X6463Y-6258D01*
X6936Y-5938D02*
X6783Y-5938D01*
X6768Y-6091D01*
X6783Y-6075D01*
X6814Y-6060D01*
X6890Y-6060D01*
X6920Y-6075D01*
X6936Y-6091D01*
X6951Y-6121D01*
X6951Y-6197D01*
X6936Y-6228D01*
X6920Y-6243D01*
X6890Y-6258D01*
X6814Y-6258D01*
X6783Y-6243D01*
X6768Y-6228D01*
X5463Y-6258D02*
X5463Y-5938D01*
X5540Y-5938D01*
X5585Y-5953D01*
X5616Y-5984D01*
X5631Y-6014D01*
X5646Y-6075D01*
X5646Y-6121D01*
X5631Y-6182D01*
X5616Y-6212D01*
X5585Y-6243D01*
X5540Y-6258D01*
X5463Y-6258D01*
X5920Y-6045D02*
X5920Y-6258D01*
X5844Y-5923D02*
X5768Y-6151D01*
X5966Y-6151D01*
X4463Y-6258D02*
X4463Y-5938D01*
X4540Y-5938D01*
X4585Y-5953D01*
X4616Y-5984D01*
X4631Y-6014D01*
X4646Y-6075D01*
X4646Y-6121D01*
X4631Y-6182D01*
X4616Y-6212D01*
X4585Y-6243D01*
X4540Y-6258D01*
X4463Y-6258D01*
X4753Y-5938D02*
X4951Y-5938D01*
X4844Y-6060D01*
X4890Y-6060D01*
X4920Y-6075D01*
X4936Y-6091D01*
X4951Y-6121D01*
X4951Y-6197D01*
X4936Y-6228D01*
X4920Y-6243D01*
X4890Y-6258D01*
X4799Y-6258D01*
X4768Y-6243D01*
X4753Y-6228D01*
X3463Y-6258D02*
X3463Y-5938D01*
X3540Y-5938D01*
X3585Y-5953D01*
X3616Y-5984D01*
X3631Y-6014D01*
X3646Y-6075D01*
X3646Y-6121D01*
X3631Y-6182D01*
X3616Y-6212D01*
X3585Y-6243D01*
X3540Y-6258D01*
X3463Y-6258D01*
X3768Y-5969D02*
X3783Y-5953D01*
X3814Y-5938D01*
X3890Y-5938D01*
X3920Y-5953D01*
X3936Y-5969D01*
X3951Y-5999D01*
X3951Y-6030D01*
X3936Y-6075D01*
X3753Y-6258D01*
X3951Y-6258D01*
X1043Y-11211D02*
X936Y-11211D01*
X936Y-11379D02*
X936Y-11059D01*
X1089Y-11059D01*
X1348Y-11059D02*
X1287Y-11059D01*
X1256Y-11074D01*
X1241Y-11090D01*
X1210Y-11135D01*
X1195Y-11196D01*
X1195Y-11318D01*
X1210Y-11349D01*
X1226Y-11364D01*
X1256Y-11379D01*
X1317Y-11379D01*
X1348Y-11364D01*
X1363Y-11349D01*
X1378Y-11318D01*
X1378Y-11242D01*
X1363Y-11211D01*
X1348Y-11196D01*
X1317Y-11181D01*
X1256Y-11181D01*
X1226Y-11196D01*
X1210Y-11211D01*
X1195Y-11242D01*
G54D21*
X2805Y-7655D02*
X2710Y-7715D01*
X2805Y-7757D02*
X2605Y-7757D01*
X2605Y-7689D01*
X2615Y-7672D01*
X2625Y-7663D01*
X2644Y-7655D01*
X2672Y-7655D01*
X2691Y-7663D01*
X2701Y-7672D01*
X2710Y-7689D01*
X2710Y-7757D01*
X2605Y-7492D02*
X2605Y-7577D01*
X2701Y-7586D01*
X2691Y-7577D01*
X2682Y-7560D01*
X2682Y-7517D01*
X2691Y-7500D01*
X2701Y-7492D01*
X2720Y-7483D01*
X2767Y-7483D01*
X2786Y-7492D01*
X2796Y-7500D01*
X2805Y-7517D01*
X2805Y-7560D01*
X2796Y-7577D01*
X2786Y-7586D01*
X3780Y-7655D02*
X3685Y-7715D01*
X3780Y-7757D02*
X3580Y-7757D01*
X3580Y-7689D01*
X3590Y-7672D01*
X3600Y-7663D01*
X3619Y-7655D01*
X3647Y-7655D01*
X3666Y-7663D01*
X3676Y-7672D01*
X3685Y-7689D01*
X3685Y-7757D01*
X3580Y-7500D02*
X3580Y-7535D01*
X3590Y-7552D01*
X3600Y-7560D01*
X3628Y-7577D01*
X3666Y-7586D01*
X3742Y-7586D01*
X3761Y-7577D01*
X3771Y-7569D01*
X3780Y-7552D01*
X3780Y-7517D01*
X3771Y-7500D01*
X3761Y-7492D01*
X3742Y-7483D01*
X3695Y-7483D01*
X3676Y-7492D01*
X3666Y-7500D01*
X3657Y-7517D01*
X3657Y-7552D01*
X3666Y-7569D01*
X3676Y-7577D01*
X3695Y-7586D01*
X4780Y-7655D02*
X4685Y-7715D01*
X4780Y-7757D02*
X4580Y-7757D01*
X4580Y-7689D01*
X4590Y-7672D01*
X4600Y-7663D01*
X4619Y-7655D01*
X4647Y-7655D01*
X4666Y-7663D01*
X4676Y-7672D01*
X4685Y-7689D01*
X4685Y-7757D01*
X4580Y-7595D02*
X4580Y-7475D01*
X4780Y-7552D01*
X1780Y-7655D02*
X1685Y-7715D01*
X1780Y-7757D02*
X1580Y-7757D01*
X1580Y-7689D01*
X1590Y-7672D01*
X1600Y-7663D01*
X1619Y-7655D01*
X1647Y-7655D01*
X1666Y-7663D01*
X1676Y-7672D01*
X1685Y-7689D01*
X1685Y-7757D01*
X1647Y-7500D02*
X1780Y-7500D01*
X1571Y-7543D02*
X1714Y-7586D01*
X1714Y-7475D01*
G54D11*
X1791Y-4858D02*
X1608Y-4858D01*
X1700Y-4858D02*
X1700Y-4538D01*
X1669Y-4584D01*
X1639Y-4614D01*
X1608Y-4630D01*
X2608Y-4569D02*
X2623Y-4553D01*
X2654Y-4538D01*
X2730Y-4538D01*
X2760Y-4553D01*
X2776Y-4569D01*
X2791Y-4599D01*
X2791Y-4630D01*
X2776Y-4675D01*
X2593Y-4858D01*
X2791Y-4858D01*
X3593Y-4538D02*
X3791Y-4538D01*
X3684Y-4660D01*
X3730Y-4660D01*
X3760Y-4675D01*
X3776Y-4691D01*
X3791Y-4721D01*
X3791Y-4797D01*
X3776Y-4828D01*
X3760Y-4843D01*
X3730Y-4858D01*
X3639Y-4858D01*
X3608Y-4843D01*
X3593Y-4828D01*
X4760Y-4645D02*
X4760Y-4858D01*
X4684Y-4523D02*
X4608Y-4751D01*
X4806Y-4751D01*
X5776Y-4538D02*
X5623Y-4538D01*
X5608Y-4691D01*
X5623Y-4675D01*
X5654Y-4660D01*
X5730Y-4660D01*
X5760Y-4675D01*
X5776Y-4691D01*
X5791Y-4721D01*
X5791Y-4797D01*
X5776Y-4828D01*
X5760Y-4843D01*
X5730Y-4858D01*
X5654Y-4858D01*
X5623Y-4843D01*
X5608Y-4828D01*
G54D13*
X4981Y-12534D02*
X4981Y-12793D01*
X4996Y-12824D01*
X5011Y-12839D01*
X5042Y-12854D01*
X5103Y-12854D01*
X5133Y-12839D01*
X5148Y-12824D01*
X5164Y-12793D01*
X5164Y-12534D01*
X5484Y-12854D02*
X5301Y-12854D01*
X5392Y-12854D02*
X5392Y-12534D01*
X5362Y-12580D01*
X5331Y-12610D01*
X5301Y-12625D01*
X3427Y-12238D02*
X3579Y-12238D01*
X3396Y-12329D02*
X3503Y-12009D01*
X3610Y-12329D01*
X3671Y-12009D02*
X3854Y-12009D01*
X3762Y-12329D02*
X3762Y-12009D01*
X3960Y-12329D02*
X3960Y-12009D01*
X4067Y-12238D01*
X4174Y-12009D01*
X4174Y-12329D01*
X4326Y-12161D02*
X4433Y-12161D01*
X4478Y-12329D02*
X4326Y-12329D01*
X4326Y-12009D01*
X4478Y-12009D01*
X4783Y-12024D02*
X4753Y-12009D01*
X4707Y-12009D01*
X4661Y-12024D01*
X4631Y-12055D01*
X4615Y-12085D01*
X4600Y-12146D01*
X4600Y-12192D01*
X4615Y-12253D01*
X4631Y-12283D01*
X4661Y-12314D01*
X4707Y-12329D01*
X4737Y-12329D01*
X4783Y-12314D01*
X4798Y-12299D01*
X4798Y-12192D01*
X4737Y-12192D01*
X4920Y-12238D02*
X5073Y-12238D01*
X4890Y-12329D02*
X4996Y-12009D01*
X5103Y-12329D01*
X5179Y-12009D02*
X5377Y-12009D01*
X5271Y-12131D01*
X5316Y-12131D01*
X5347Y-12146D01*
X5362Y-12161D01*
X5377Y-12192D01*
X5377Y-12268D01*
X5362Y-12299D01*
X5347Y-12314D01*
X5316Y-12329D01*
X5225Y-12329D01*
X5195Y-12314D01*
X5179Y-12299D01*
X5499Y-12040D02*
X5515Y-12024D01*
X5545Y-12009D01*
X5621Y-12009D01*
X5652Y-12024D01*
X5667Y-12040D01*
X5682Y-12070D01*
X5682Y-12100D01*
X5667Y-12146D01*
X5484Y-12329D01*
X5682Y-12329D01*
X5819Y-12009D02*
X5819Y-12268D01*
X5835Y-12299D01*
X5850Y-12314D01*
X5880Y-12329D01*
X5941Y-12329D01*
X5972Y-12314D01*
X5987Y-12299D01*
X6002Y-12268D01*
X6002Y-12009D01*
X6292Y-12116D02*
X6292Y-12329D01*
X6215Y-11994D02*
X6139Y-12222D01*
X6337Y-12222D01*
G54D18*
X2400Y-14767D02*
X2385Y-14782D01*
X2342Y-14796D01*
X2314Y-14796D01*
X2271Y-14782D01*
X2242Y-14753D01*
X2228Y-14725D01*
X2214Y-14667D01*
X2214Y-14625D01*
X2228Y-14567D01*
X2242Y-14539D01*
X2271Y-14510D01*
X2314Y-14496D01*
X2342Y-14496D01*
X2385Y-14510D01*
X2400Y-14525D01*
X2685Y-14796D02*
X2514Y-14796D01*
X2600Y-14796D02*
X2600Y-14496D01*
X2571Y-14539D01*
X2542Y-14567D01*
X2514Y-14582D01*
G54D21*
X8470Y-12461D02*
X8461Y-12471D01*
X8435Y-12480D01*
X8418Y-12480D01*
X8392Y-12471D01*
X8375Y-12452D01*
X8367Y-12433D01*
X8358Y-12395D01*
X8358Y-12366D01*
X8367Y-12328D01*
X8375Y-12309D01*
X8392Y-12290D01*
X8418Y-12280D01*
X8435Y-12280D01*
X8461Y-12290D01*
X8470Y-12300D01*
X8530Y-12280D02*
X8641Y-12280D01*
X8581Y-12357D01*
X8607Y-12357D01*
X8624Y-12366D01*
X8632Y-12376D01*
X8641Y-12395D01*
X8641Y-12442D01*
X8632Y-12461D01*
X8624Y-12471D01*
X8607Y-12480D01*
X8555Y-12480D01*
X8538Y-12471D01*
X8530Y-12461D01*
X5786Y-14855D02*
X5796Y-14863D01*
X5805Y-14889D01*
X5805Y-14906D01*
X5796Y-14932D01*
X5777Y-14949D01*
X5758Y-14957D01*
X5720Y-14966D01*
X5691Y-14966D01*
X5653Y-14957D01*
X5634Y-14949D01*
X5615Y-14932D01*
X5605Y-14906D01*
X5605Y-14889D01*
X5615Y-14863D01*
X5625Y-14855D01*
X5625Y-14786D02*
X5615Y-14777D01*
X5605Y-14760D01*
X5605Y-14717D01*
X5615Y-14700D01*
X5625Y-14692D01*
X5644Y-14683D01*
X5663Y-14683D01*
X5691Y-14692D01*
X5805Y-14795D01*
X5805Y-14683D01*
X1720Y-9836D02*
X1711Y-9846D01*
X1685Y-9855D01*
X1668Y-9855D01*
X1642Y-9846D01*
X1625Y-9827D01*
X1617Y-9808D01*
X1608Y-9770D01*
X1608Y-9741D01*
X1617Y-9703D01*
X1625Y-9684D01*
X1642Y-9665D01*
X1668Y-9655D01*
X1685Y-9655D01*
X1711Y-9665D01*
X1720Y-9675D01*
X1780Y-9655D02*
X1900Y-9655D01*
X1822Y-9855D01*
X5736Y-7455D02*
X5746Y-7463D01*
X5755Y-7489D01*
X5755Y-7506D01*
X5746Y-7532D01*
X5727Y-7549D01*
X5708Y-7557D01*
X5670Y-7566D01*
X5641Y-7566D01*
X5603Y-7557D01*
X5584Y-7549D01*
X5565Y-7532D01*
X5555Y-7506D01*
X5555Y-7489D01*
X5565Y-7463D01*
X5575Y-7455D01*
X5555Y-7300D02*
X5555Y-7335D01*
X5565Y-7352D01*
X5575Y-7360D01*
X5603Y-7377D01*
X5641Y-7386D01*
X5717Y-7386D01*
X5736Y-7377D01*
X5746Y-7369D01*
X5755Y-7352D01*
X5755Y-7317D01*
X5746Y-7300D01*
X5736Y-7292D01*
X5717Y-7283D01*
X5670Y-7283D01*
X5651Y-7292D01*
X5641Y-7300D01*
X5632Y-7317D01*
X5632Y-7352D01*
X5641Y-7369D01*
X5651Y-7377D01*
X5670Y-7386D01*
X2036Y-13530D02*
X2046Y-13538D01*
X2055Y-13564D01*
X2055Y-13581D01*
X2046Y-13607D01*
X2027Y-13624D01*
X2008Y-13632D01*
X1970Y-13641D01*
X1941Y-13641D01*
X1903Y-13632D01*
X1884Y-13624D01*
X1865Y-13607D01*
X1855Y-13581D01*
X1855Y-13564D01*
X1865Y-13538D01*
X1875Y-13530D01*
X1941Y-13427D02*
X1932Y-13444D01*
X1922Y-13452D01*
X1903Y-13461D01*
X1894Y-13461D01*
X1875Y-13452D01*
X1865Y-13444D01*
X1855Y-13427D01*
X1855Y-13392D01*
X1865Y-13375D01*
X1875Y-13367D01*
X1894Y-13358D01*
X1903Y-13358D01*
X1922Y-13367D01*
X1932Y-13375D01*
X1941Y-13392D01*
X1941Y-13427D01*
X1951Y-13444D01*
X1960Y-13452D01*
X1979Y-13461D01*
X2017Y-13461D01*
X2036Y-13452D01*
X2046Y-13444D01*
X2055Y-13427D01*
X2055Y-13392D01*
X2046Y-13375D01*
X2036Y-13367D01*
X2017Y-13358D01*
X1979Y-13358D01*
X1960Y-13367D01*
X1951Y-13375D01*
X1941Y-13392D01*
X8561Y-11255D02*
X8571Y-11263D01*
X8580Y-11289D01*
X8580Y-11306D01*
X8571Y-11332D01*
X8552Y-11349D01*
X8533Y-11357D01*
X8495Y-11366D01*
X8466Y-11366D01*
X8428Y-11357D01*
X8409Y-11349D01*
X8390Y-11332D01*
X8380Y-11306D01*
X8380Y-11289D01*
X8390Y-11263D01*
X8400Y-11255D01*
X8447Y-11100D02*
X8580Y-11100D01*
X8371Y-11143D02*
X8514Y-11186D01*
X8514Y-11075D01*
X8511Y-8755D02*
X8521Y-8763D01*
X8530Y-8789D01*
X8530Y-8806D01*
X8521Y-8832D01*
X8502Y-8849D01*
X8483Y-8857D01*
X8445Y-8866D01*
X8416Y-8866D01*
X8378Y-8857D01*
X8359Y-8849D01*
X8340Y-8832D01*
X8330Y-8806D01*
X8330Y-8789D01*
X8340Y-8763D01*
X8350Y-8755D01*
X8330Y-8592D02*
X8330Y-8677D01*
X8426Y-8686D01*
X8416Y-8677D01*
X8407Y-8660D01*
X8407Y-8617D01*
X8416Y-8600D01*
X8426Y-8592D01*
X8445Y-8583D01*
X8492Y-8583D01*
X8511Y-8592D01*
X8521Y-8600D01*
X8530Y-8617D01*
X8530Y-8660D01*
X8521Y-8677D01*
X8511Y-8686D01*
G54D13*
X6229Y-1849D02*
X6213Y-1864D01*
X6168Y-1879D01*
X6137Y-1879D01*
X6091Y-1864D01*
X6061Y-1833D01*
X6046Y-1803D01*
X6030Y-1742D01*
X6030Y-1696D01*
X6046Y-1635D01*
X6061Y-1605D01*
X6091Y-1574D01*
X6137Y-1559D01*
X6168Y-1559D01*
X6213Y-1574D01*
X6229Y-1590D01*
X6366Y-1879D02*
X6366Y-1559D01*
X6549Y-1879D01*
X6549Y-1559D01*
X6869Y-1879D02*
X6686Y-1879D01*
X6777Y-1879D02*
X6777Y-1559D01*
X6747Y-1605D01*
X6716Y-1635D01*
X6686Y-1650D01*
X5093Y-17859D02*
X5093Y-18088D01*
X5078Y-18133D01*
X5047Y-18164D01*
X5001Y-18179D01*
X4971Y-18179D01*
X5413Y-18179D02*
X5230Y-18179D01*
X5321Y-18179D02*
X5321Y-17859D01*
X5291Y-17905D01*
X5260Y-17935D01*
X5230Y-17950D01*
M02*
