M48
;DRILL file {Pcbnew (2013-04-19 BZR 4011)-stable} date 10/05/2013 01:06:16
;FORMAT={-:-/ absolute / inch / decimal}
FMAT,2
INCH,TZ
T1C0.020
T2C0.039
T3C0.040
T4C0.087
T5C0.110
%
G90
G05
M72
T1
X0.125Y-0.99
X0.175Y-1.1525
X0.175Y-1.215
X0.2025Y-1.245
X0.2075Y-1.1825
X0.235Y-1.535
X0.2775Y-1.35
X0.3225Y-1.29
X0.4375Y-0.835
X0.4475Y-1.2775
X0.45Y-0.9425
X0.48Y-0.975
X0.49Y-0.835
X0.535Y-0.8225
X0.575Y-0.8325
X0.615Y-1.27
X0.6175Y-0.995
X0.6175Y-1.0575
X0.6375Y-0.7975
X0.6475Y-1.025
X0.6475Y-1.09
X0.6475Y-1.505
X0.6925Y-0.8525
X0.785Y-1.68
X0.82Y-1.18
X0.8675Y-0.06
X0.875Y-0.8275
X0.925Y-1.5225
T2
X0.3861Y-0.2596
X0.3861Y-0.358
X0.4688Y-0.2596
X0.4688Y-0.358
X0.5554Y-0.358
X0.5712Y-0.2596
X0.6539Y-0.2596
X0.6539Y-0.358
T3
X0.07Y-0.67
X0.07Y-0.77
X0.07Y-0.87
X0.07Y-0.97
X0.07Y-1.07
X0.07Y-1.17
X0.07Y-1.27
X0.07Y-1.37
X0.07Y-1.47
X0.07Y-1.57
X0.17Y-0.53
X0.17Y-0.67
X0.17Y-1.57
X0.27Y-0.53
X0.27Y-0.67
X0.37Y-0.53
X0.37Y-0.67
X0.37Y-1.57
X0.47Y-0.53
X0.47Y-0.67
X0.47Y-1.57
X0.57Y-0.53
X0.57Y-0.67
X0.57Y-1.57
X0.67Y-0.53
X0.67Y-0.67
X0.67Y-1.57
X0.77Y-0.53
X0.77Y-0.67
X0.77Y-1.57
X0.87Y-0.53
X0.87Y-0.67
X0.97Y-0.67
X0.97Y-0.77
X0.97Y-0.87
X0.97Y-0.97
X0.97Y-1.07
X0.97Y-1.17
X0.97Y-1.27
X0.97Y-1.37
X0.97Y-1.47
X0.97Y-1.57
T4
X0.2543Y-0.1415
X0.52Y-0.11
X0.7857Y-0.1415
T5
X0.1375Y-0.305
X0.1375Y-1.8275
X0.9025Y-0.305
X0.9025Y-1.8275
T0
M30
