G04 (created by PCBNEW (2013-04-19 BZR 4011)-stable) date 09/05/2013 23:39:35*
%MOIN*%
G04 Gerber Fmt 3.4, Leading zero omitted, Abs format*
%FSLAX34Y34*%
G01*
G70*
G90*
G04 APERTURE LIST*
%ADD10C,2.3622e-006*%
%ADD11C,0.015*%
%ADD12C,0.06*%
%ADD13R,0.0246063X0.023622*%
%ADD14R,0.0127953X0.0275591*%
%ADD15R,0.0472X0.0551*%
%ADD16R,0.0472X0.0472*%
%ADD17R,0.045X0.025*%
%ADD18R,0.025X0.045*%
%ADD19R,0.06X0.016*%
%ADD20R,0.016X0.06*%
%ADD21R,0.06X0.08*%
%ADD22C,0.0629921*%
%ADD23C,0.125984*%
%ADD24R,0.0197X0.0787*%
%ADD25R,0.0984X0.0866*%
%ADD26C,0.110236*%
%ADD27C,0.03*%
%ADD28C,0.012*%
%ADD29C,0.008*%
%ADD30C,0.01*%
G04 APERTURE END LIST*
G54D10*
G54D11*
X10400Y-500D02*
X10400Y-19150D01*
X0Y-19150D02*
X0Y-500D01*
X9900Y-19650D02*
X500Y-19650D01*
X9900Y-19650D02*
G75*
G03X10400Y-19150I0J500D01*
G74*
G01*
X0Y-19150D02*
G75*
G03X500Y-19650I500J0D01*
G74*
G01*
X500Y0D02*
X9900Y0D01*
X500Y0D02*
G75*
G03X0Y-500I0J-500D01*
G74*
G01*
X10400Y-500D02*
G75*
G03X9900Y0I-500J0D01*
G74*
G01*
G54D12*
X700Y-6700D03*
G54D13*
X8910Y-15014D03*
X7689Y-15014D03*
X8910Y-14385D03*
X7689Y-14385D03*
G54D14*
X7630Y-14700D03*
X8969Y-14700D03*
G54D15*
X8160Y-10408D03*
X8160Y-9542D03*
X8790Y-10408D03*
X8790Y-9542D03*
G54D16*
X7716Y-7525D03*
X8583Y-7525D03*
G54D17*
X6825Y-7375D03*
X6825Y-7975D03*
G54D12*
X9700Y-15700D03*
X4700Y-15700D03*
X5700Y-15700D03*
X6700Y-5300D03*
G54D18*
X1825Y-8900D03*
X2425Y-8900D03*
G54D17*
X4700Y-14300D03*
X4700Y-14900D03*
X3950Y-14300D03*
X3950Y-14900D03*
G54D12*
X1700Y-6700D03*
X9700Y-10700D03*
X9700Y-8700D03*
X9700Y-9700D03*
X9700Y-7700D03*
X9700Y-11700D03*
X9700Y-12700D03*
X9700Y-13700D03*
X7700Y-15700D03*
X8700Y-5300D03*
X7700Y-5300D03*
X700Y-7700D03*
X1700Y-15700D03*
X9700Y-6700D03*
X3700Y-15700D03*
X6700Y-15700D03*
X9700Y-14700D03*
X700Y-15700D03*
X700Y-14700D03*
X700Y-13700D03*
X700Y-12700D03*
X2700Y-6700D03*
X700Y-10700D03*
X700Y-9700D03*
X700Y-8700D03*
X8700Y-6700D03*
X7700Y-6700D03*
X6700Y-6700D03*
X5700Y-6700D03*
X4700Y-6700D03*
X3700Y-6700D03*
X700Y-11700D03*
G54D17*
X2725Y-7925D03*
X2725Y-7325D03*
X3700Y-7925D03*
X3700Y-7325D03*
X4700Y-7925D03*
X4700Y-7325D03*
X1700Y-7925D03*
X1700Y-7325D03*
G54D12*
X1700Y-5300D03*
X2700Y-5300D03*
X3700Y-5300D03*
X4700Y-5300D03*
X5700Y-5300D03*
G54D19*
X2550Y-11200D03*
X2550Y-11515D03*
X2550Y-11830D03*
X2550Y-12145D03*
X2550Y-12460D03*
X2550Y-12775D03*
X2550Y-10885D03*
X2550Y-10570D03*
X2550Y-10255D03*
X2550Y-9940D03*
X2550Y-9625D03*
X7050Y-11200D03*
X7050Y-11515D03*
X7050Y-11830D03*
X7050Y-12145D03*
X7050Y-12460D03*
X7050Y-12775D03*
X7050Y-10885D03*
X7050Y-10570D03*
X7050Y-10255D03*
X7050Y-9940D03*
X7050Y-9625D03*
G54D20*
X4800Y-13450D03*
X4800Y-8950D03*
X5115Y-13450D03*
X5115Y-8950D03*
X5430Y-8950D03*
X5430Y-13450D03*
X5745Y-13450D03*
X5745Y-8950D03*
X6060Y-8950D03*
X6060Y-13450D03*
X6375Y-13450D03*
X6375Y-8950D03*
X4485Y-8950D03*
X4485Y-13450D03*
X4170Y-13450D03*
X4170Y-8950D03*
X3855Y-8950D03*
X3855Y-13450D03*
X3540Y-13450D03*
X3540Y-8950D03*
X3225Y-8950D03*
X3225Y-13450D03*
G54D21*
X3100Y-14675D03*
X1800Y-14675D03*
G54D17*
X8500Y-12700D03*
X8500Y-12100D03*
G54D18*
X5425Y-14825D03*
X6025Y-14825D03*
G54D17*
X1750Y-9475D03*
X1750Y-10075D03*
G54D18*
X5375Y-7425D03*
X5975Y-7425D03*
X1675Y-13500D03*
X2275Y-13500D03*
X8800Y-11225D03*
X8200Y-11225D03*
X8150Y-8725D03*
X8750Y-8725D03*
G54D22*
X3861Y-2596D03*
X6538Y-2596D03*
X3861Y-3580D03*
X6538Y-3580D03*
G54D23*
X5200Y-1100D03*
X2542Y-1414D03*
X7857Y-1414D03*
G54D22*
X4688Y-2596D03*
X5711Y-2596D03*
X4688Y-3580D03*
X5554Y-3580D03*
G54D24*
X4571Y-16767D03*
X4886Y-16767D03*
X5201Y-16767D03*
X5516Y-16767D03*
X5831Y-16767D03*
G54D25*
X3547Y-16806D03*
X6854Y-16806D03*
X3547Y-18892D03*
X6855Y-18892D03*
G54D26*
X9025Y-18275D03*
X1375Y-3050D03*
X9025Y-3050D03*
X1375Y-18275D03*
G54D27*
X1750Y-12150D03*
X4800Y-9750D03*
X4500Y-9425D03*
X4375Y-8350D03*
X6475Y-10900D03*
X6175Y-10575D03*
X6475Y-10250D03*
X6175Y-9950D03*
X5750Y-8325D03*
X6925Y-8525D03*
X5350Y-8225D03*
X4900Y-8350D03*
X3225Y-12900D03*
X2075Y-11825D03*
X1750Y-11525D03*
X6150Y-12700D03*
X8675Y-600D03*
X7850Y-16800D03*
X1250Y-9900D03*
X8750Y-8275D03*
X6375Y-7975D03*
X6475Y-15050D03*
X8200Y-11800D03*
X9250Y-15225D03*
X4475Y-12775D03*
X2775Y-13500D03*
X2350Y-15350D03*
X2025Y-12450D03*
G54D28*
X4571Y-16767D02*
X4571Y-16271D01*
X4000Y-15700D02*
X3700Y-15700D01*
X4571Y-16271D02*
X4000Y-15700D01*
G54D29*
X2550Y-9625D02*
X2225Y-9625D01*
X2225Y-9625D02*
X2075Y-9475D01*
X2075Y-9475D02*
X1750Y-9475D01*
G54D28*
X5125Y-12150D02*
X3540Y-12150D01*
X2550Y-9625D02*
X3085Y-9625D01*
X3085Y-9625D02*
X3540Y-10080D01*
X3540Y-10080D02*
X3540Y-12150D01*
X3540Y-12150D02*
X3540Y-13450D01*
X2550Y-12775D02*
X2900Y-12775D01*
X2900Y-12775D02*
X3200Y-12475D01*
X3200Y-12475D02*
X3540Y-12475D01*
G54D29*
X5365Y-7855D02*
X5295Y-7925D01*
X5375Y-7855D02*
X5365Y-7855D01*
X5295Y-7925D02*
X5375Y-7925D01*
X5375Y-7855D02*
X5445Y-7925D01*
X5375Y-7850D02*
X5375Y-7855D01*
X5445Y-7925D02*
X5975Y-7925D01*
X6060Y-8010D02*
X6060Y-8950D01*
X5975Y-7925D02*
X6060Y-8010D01*
X5375Y-7850D02*
X5375Y-7425D01*
G54D28*
X6060Y-8950D02*
X6060Y-9390D01*
X5125Y-10325D02*
X5125Y-12150D01*
X6060Y-9390D02*
X5125Y-10325D01*
X5125Y-12150D02*
X5125Y-13440D01*
X5125Y-13440D02*
X5115Y-13450D01*
X5125Y-12150D02*
X7045Y-12150D01*
X7045Y-12150D02*
X7050Y-12145D01*
G54D29*
X1675Y-13500D02*
X1675Y-13075D01*
X1975Y-12775D02*
X2550Y-12775D01*
X1675Y-13075D02*
X1975Y-12775D01*
G54D28*
X3540Y-13860D02*
X3540Y-13450D01*
X3100Y-14300D02*
X3540Y-13860D01*
X3100Y-14675D02*
X3100Y-14300D01*
X3700Y-15700D02*
X3100Y-15100D01*
G54D29*
X7050Y-12145D02*
X7445Y-12145D01*
X7625Y-12325D02*
X8000Y-12700D01*
X7445Y-12145D02*
X7625Y-12325D01*
X8000Y-12700D02*
X8500Y-12700D01*
X5375Y-7925D02*
X5375Y-7850D01*
X4700Y-7925D02*
X5295Y-7925D01*
X5375Y-7925D02*
X5445Y-7925D01*
X4700Y-7925D02*
X3700Y-7925D01*
X3700Y-7925D02*
X2725Y-7925D01*
X2725Y-7925D02*
X1700Y-7925D01*
X1700Y-7925D02*
X1675Y-7900D01*
X1675Y-7900D02*
X1375Y-7900D01*
X1375Y-7900D02*
X1150Y-7675D01*
X1150Y-7675D02*
X1150Y-7150D01*
X1150Y-7150D02*
X700Y-6700D01*
G54D28*
X3100Y-15100D02*
X3100Y-14675D01*
G54D29*
X2550Y-12145D02*
X2205Y-12145D01*
X2205Y-12145D02*
X1750Y-12150D01*
X5265Y-15700D02*
X5201Y-15636D01*
X5300Y-15700D02*
X5265Y-15700D01*
X5265Y-15700D02*
X5201Y-15764D01*
X5201Y-15764D02*
X5201Y-15765D01*
X5700Y-15700D02*
X5300Y-15700D01*
X5300Y-15700D02*
X5201Y-15700D01*
X5201Y-16767D02*
X5201Y-15765D01*
X5201Y-15765D02*
X5201Y-15700D01*
X5201Y-15700D02*
X5201Y-15636D01*
X5201Y-15636D02*
X5201Y-15546D01*
X5201Y-15546D02*
X4700Y-15045D01*
X4700Y-15045D02*
X4700Y-14900D01*
X4886Y-15886D02*
X4700Y-15700D01*
X4886Y-16767D02*
X4886Y-15886D01*
X3950Y-14900D02*
X3950Y-14950D01*
X3950Y-14950D02*
X4700Y-15700D01*
X1700Y-5300D02*
X2950Y-4050D01*
X2950Y-4050D02*
X2950Y-2650D01*
X2950Y-2650D02*
X3600Y-2000D01*
X1700Y-5300D02*
X2650Y-4350D01*
X3600Y-2000D02*
X4400Y-2000D01*
X4400Y-2000D02*
X4688Y-2288D01*
X4688Y-2288D02*
X4688Y-2596D01*
X3700Y-5300D02*
X3700Y-4550D01*
X3700Y-4550D02*
X3200Y-4050D01*
X3200Y-4050D02*
X3200Y-3257D01*
X3200Y-3257D02*
X3861Y-2596D01*
X3861Y-3580D02*
X3861Y-3961D01*
X3861Y-3961D02*
X4400Y-4500D01*
X4400Y-4500D02*
X5900Y-4500D01*
X5900Y-4500D02*
X6700Y-5300D01*
X5554Y-3580D02*
X5554Y-3904D01*
X6600Y-4200D02*
X7700Y-5300D01*
X5850Y-4200D02*
X6600Y-4200D01*
X5554Y-3904D02*
X5850Y-4200D01*
X6538Y-3580D02*
X6980Y-3580D01*
X6980Y-3580D02*
X8700Y-5300D01*
X5430Y-13450D02*
X5430Y-13905D01*
X9700Y-14400D02*
X9700Y-14700D01*
X9225Y-13925D02*
X9700Y-14400D01*
X7325Y-13925D02*
X9225Y-13925D01*
X6925Y-14325D02*
X7325Y-13925D01*
X5850Y-14325D02*
X6925Y-14325D01*
X5430Y-13905D02*
X5850Y-14325D01*
X5745Y-13450D02*
X5745Y-13870D01*
X7225Y-13700D02*
X9700Y-13700D01*
X6800Y-14125D02*
X7225Y-13700D01*
X6000Y-14125D02*
X6800Y-14125D01*
X5745Y-13870D02*
X6000Y-14125D01*
X9700Y-12700D02*
X9700Y-12925D01*
X6060Y-13835D02*
X6060Y-13450D01*
X6169Y-13944D02*
X6060Y-13835D01*
X6650Y-13944D02*
X6169Y-13944D01*
X7114Y-13480D02*
X6650Y-13944D01*
X9144Y-13480D02*
X7114Y-13480D01*
X9700Y-12925D02*
X9144Y-13480D01*
X6375Y-13450D02*
X6375Y-13050D01*
X9225Y-12175D02*
X9700Y-11700D01*
X9225Y-13050D02*
X9225Y-12175D01*
X9000Y-13275D02*
X9225Y-13050D01*
X6950Y-13275D02*
X9000Y-13275D01*
X6600Y-12925D02*
X6950Y-13275D01*
X6500Y-12925D02*
X6600Y-12925D01*
X6375Y-13050D02*
X6500Y-12925D01*
X4800Y-8950D02*
X4800Y-9750D01*
X4485Y-8950D02*
X4485Y-9410D01*
X4485Y-9410D02*
X4500Y-9425D01*
X4170Y-8950D02*
X4170Y-8555D01*
X4170Y-8555D02*
X4375Y-8350D01*
X9025Y-11950D02*
X9225Y-11750D01*
X9025Y-11950D02*
X9025Y-12975D01*
X9700Y-7700D02*
X9650Y-7700D01*
X9650Y-7700D02*
X9225Y-8125D01*
X7446Y-12775D02*
X7746Y-13075D01*
X7746Y-13075D02*
X8925Y-13075D01*
X8925Y-13075D02*
X9025Y-12975D01*
X7446Y-12775D02*
X7050Y-12775D01*
X9225Y-11750D02*
X9225Y-8125D01*
X3855Y-8950D02*
X3855Y-8555D01*
X750Y-8700D02*
X700Y-8700D01*
X1150Y-8300D02*
X750Y-8700D01*
X3600Y-8300D02*
X1150Y-8300D01*
X3855Y-8555D02*
X3600Y-8300D01*
X1575Y-8500D02*
X1525Y-8500D01*
X1525Y-8500D02*
X1450Y-8575D01*
X700Y-9325D02*
X700Y-9700D01*
X1450Y-8575D02*
X700Y-9325D01*
X3540Y-8950D02*
X3540Y-8565D01*
X1825Y-8500D02*
X1575Y-8500D01*
X3475Y-8500D02*
X1825Y-8500D01*
X3540Y-8565D02*
X3475Y-8500D01*
X6475Y-10900D02*
X7035Y-10900D01*
X7035Y-10900D02*
X7050Y-10885D01*
X1700Y-6700D02*
X1700Y-7325D01*
X6175Y-10575D02*
X7045Y-10575D01*
X7045Y-10575D02*
X7050Y-10570D01*
X2700Y-6700D02*
X2700Y-7300D01*
X2700Y-7300D02*
X2725Y-7325D01*
X7050Y-10255D02*
X7045Y-10250D01*
X6475Y-10250D02*
X7045Y-10250D01*
X3700Y-6700D02*
X3700Y-7325D01*
X6175Y-9950D02*
X7040Y-9950D01*
X7040Y-9950D02*
X7050Y-9940D01*
X7040Y-9950D02*
X7050Y-9940D01*
X4700Y-6700D02*
X4700Y-7325D01*
X5745Y-8345D02*
X5745Y-8950D01*
X5750Y-8325D02*
X5745Y-8345D01*
X7450Y-9625D02*
X7050Y-9625D01*
X7550Y-8650D02*
X7425Y-8525D01*
X7550Y-9525D02*
X7550Y-8650D01*
X7450Y-9625D02*
X7550Y-9525D01*
X7425Y-8525D02*
X6925Y-8525D01*
X7700Y-6700D02*
X7700Y-7508D01*
X7700Y-7508D02*
X7716Y-7525D01*
X5430Y-8950D02*
X5430Y-8305D01*
X5430Y-8305D02*
X5350Y-8225D01*
X5115Y-8560D02*
X4905Y-8350D01*
X4905Y-8350D02*
X4900Y-8350D01*
X5115Y-8950D02*
X5115Y-8560D01*
X3225Y-12900D02*
X3225Y-13450D01*
X2550Y-11830D02*
X2095Y-11830D01*
X2095Y-11830D02*
X2075Y-11825D01*
X1760Y-11515D02*
X2550Y-11515D01*
X1750Y-11525D02*
X1760Y-11515D01*
X1650Y-11200D02*
X2550Y-11200D01*
X1400Y-11450D02*
X1400Y-12625D01*
X1650Y-11200D02*
X1400Y-11450D01*
X700Y-13700D02*
X1025Y-13700D01*
X1225Y-12800D02*
X1400Y-12625D01*
X1225Y-13500D02*
X1225Y-12800D01*
X1025Y-13700D02*
X1225Y-13500D01*
X1200Y-12525D02*
X1200Y-11325D01*
X1525Y-11000D02*
X2050Y-11000D01*
X1200Y-11325D02*
X1525Y-11000D01*
X2050Y-11000D02*
X2165Y-10885D01*
X2165Y-10885D02*
X2550Y-10885D01*
X1200Y-12525D02*
X1025Y-12700D01*
X700Y-12700D02*
X1025Y-12700D01*
X2165Y-10885D02*
X2550Y-10885D01*
X2050Y-11000D02*
X2165Y-10885D01*
X700Y-12700D02*
X700Y-12700D01*
X700Y-11700D02*
X700Y-11500D01*
X1930Y-10819D02*
X2180Y-10570D01*
X1380Y-10819D02*
X1930Y-10819D01*
X700Y-11500D02*
X1380Y-10819D01*
X2180Y-10570D02*
X2550Y-10570D01*
X2180Y-10570D02*
X2550Y-10570D01*
X700Y-11700D02*
X700Y-11700D01*
X700Y-11700D02*
X700Y-11700D01*
X1810Y-10600D02*
X800Y-10600D01*
X800Y-10600D02*
X700Y-10700D01*
X2550Y-10255D02*
X2155Y-10255D01*
X2155Y-10255D02*
X1810Y-10600D01*
X7689Y-14385D02*
X8910Y-14385D01*
X7689Y-14385D02*
X7364Y-14385D01*
X7275Y-15275D02*
X7700Y-15700D01*
X7275Y-14475D02*
X7275Y-15275D01*
X7364Y-14385D02*
X7275Y-14475D01*
X7050Y-12460D02*
X6390Y-12460D01*
X6150Y-12700D02*
X6390Y-12460D01*
X7857Y-1414D02*
X7860Y-1414D01*
G54D28*
X7860Y-1414D02*
X8675Y-600D01*
X7857Y-1414D02*
X7864Y-1414D01*
X6854Y-16806D02*
X7844Y-16806D01*
X7844Y-16806D02*
X7850Y-16800D01*
X5831Y-16767D02*
X5831Y-16269D01*
X6400Y-15700D02*
X6700Y-15700D01*
X5831Y-16269D02*
X6400Y-15700D01*
G54D29*
X1825Y-8900D02*
X1525Y-8900D01*
X1525Y-8900D02*
X1250Y-9175D01*
X1250Y-9175D02*
X1250Y-9900D01*
X1750Y-10075D02*
X1425Y-10075D01*
X1425Y-10075D02*
X1250Y-9900D01*
X2550Y-9940D02*
X2210Y-9940D01*
X2210Y-9940D02*
X2075Y-10075D01*
X2075Y-10075D02*
X1750Y-10075D01*
X6825Y-7975D02*
X6375Y-7975D01*
X6375Y-7975D02*
X6350Y-7975D01*
X6350Y-7975D02*
X6375Y-8000D01*
X6250Y-14825D02*
X6475Y-15050D01*
X6025Y-14825D02*
X6250Y-14825D01*
X8200Y-11225D02*
X8200Y-11800D01*
X8200Y-11800D02*
X8225Y-11825D01*
X8500Y-12100D02*
X8225Y-11825D01*
X7055Y-11825D02*
X7050Y-11830D01*
X8225Y-11825D02*
X7055Y-11825D01*
X8910Y-15014D02*
X9039Y-15014D01*
X9039Y-15014D02*
X9250Y-15225D01*
X7689Y-15014D02*
X8910Y-15014D01*
X4485Y-13450D02*
X4485Y-12785D01*
X4485Y-12785D02*
X4475Y-12775D01*
X2275Y-13500D02*
X2775Y-13500D01*
G54D28*
X1800Y-14675D02*
X1800Y-14800D01*
X1800Y-14800D02*
X2350Y-15350D01*
G54D29*
X2550Y-12460D02*
X2035Y-12460D01*
X2035Y-12460D02*
X2025Y-12450D01*
X8750Y-8725D02*
X8750Y-8275D01*
X8750Y-8275D02*
X8750Y-8225D01*
X8750Y-8725D02*
X8750Y-8300D01*
X8750Y-8300D02*
X8725Y-8275D01*
X5975Y-7425D02*
X5975Y-7600D01*
X5975Y-7600D02*
X6350Y-7975D01*
X6375Y-8000D02*
X6375Y-8950D01*
X6375Y-8950D02*
X6375Y-8000D01*
X3225Y-8950D02*
X3225Y-9350D01*
X2650Y-8900D02*
X2425Y-8900D01*
X2800Y-9050D02*
X2650Y-8900D01*
X2800Y-9200D02*
X2800Y-9050D01*
X3025Y-9400D02*
X2800Y-9200D01*
X3150Y-9400D02*
X3025Y-9400D01*
X3225Y-9350D02*
X3150Y-9400D01*
X3200Y-8925D02*
X3225Y-8950D01*
X3200Y-8925D02*
X3225Y-8950D01*
X8583Y-7525D02*
X8583Y-7966D01*
X7500Y-8025D02*
X6825Y-7375D01*
X8525Y-8025D02*
X7500Y-8025D01*
X8583Y-7966D02*
X8525Y-8025D01*
X4800Y-13850D02*
X4800Y-13450D01*
X5425Y-14475D02*
X4800Y-13850D01*
X5425Y-14825D02*
X5425Y-14475D01*
X4170Y-13450D02*
X4170Y-13845D01*
X4170Y-13845D02*
X4350Y-14025D01*
X4350Y-14025D02*
X4625Y-14025D01*
X4625Y-14025D02*
X4700Y-14100D01*
X4700Y-14100D02*
X4700Y-14300D01*
X3950Y-14300D02*
X3950Y-13950D01*
X3950Y-13950D02*
X3855Y-13855D01*
X3855Y-13855D02*
X3855Y-13450D01*
X7050Y-11515D02*
X7460Y-11515D01*
X7925Y-10850D02*
X8790Y-10850D01*
X7825Y-10950D02*
X7925Y-10850D01*
X7825Y-11150D02*
X7825Y-10950D01*
X7460Y-11515D02*
X7825Y-11150D01*
X8790Y-10408D02*
X8790Y-10850D01*
X8790Y-10850D02*
X8790Y-11215D01*
X8790Y-11215D02*
X8800Y-11225D01*
X8150Y-8725D02*
X8150Y-9532D01*
X8150Y-9532D02*
X8160Y-9542D01*
X8160Y-9542D02*
X7833Y-9542D01*
X7450Y-11200D02*
X7050Y-11200D01*
X7575Y-11075D02*
X7450Y-11200D01*
X7575Y-9800D02*
X7575Y-11075D01*
X7833Y-9542D02*
X7575Y-9800D01*
G54D10*
G36*
X6600Y-12270D02*
X6390Y-12270D01*
X6372Y-12271D01*
X6355Y-12273D01*
X6354Y-12273D01*
X6353Y-12273D01*
X6336Y-12278D01*
X6319Y-12283D01*
X6318Y-12284D01*
X6317Y-12284D01*
X6302Y-12292D01*
X6286Y-12300D01*
X6285Y-12301D01*
X6284Y-12301D01*
X6271Y-12312D01*
X6257Y-12323D01*
X6256Y-12325D01*
X6256Y-12325D01*
X6256Y-12325D01*
X6255Y-12325D01*
X6181Y-12400D01*
X6122Y-12399D01*
X6064Y-12410D01*
X6010Y-12432D01*
X5961Y-12465D01*
X5919Y-12506D01*
X5885Y-12554D01*
X5862Y-12608D01*
X5850Y-12666D01*
X5849Y-12725D01*
X5860Y-12783D01*
X5881Y-12837D01*
X5913Y-12887D01*
X5954Y-12929D01*
X6002Y-12963D01*
X6056Y-12986D01*
X6114Y-12999D01*
X6146Y-13000D01*
X6141Y-13000D01*
X6126Y-12999D01*
X5965Y-12999D01*
X5965Y-13000D01*
X5826Y-13000D01*
X5811Y-12999D01*
X5650Y-12999D01*
X5650Y-13000D01*
X5511Y-13000D01*
X5496Y-12999D01*
X5335Y-12999D01*
X5335Y-13000D01*
X4881Y-13000D01*
X4866Y-12999D01*
X4705Y-12999D01*
X4705Y-13000D01*
X4675Y-13000D01*
X4675Y-12998D01*
X4703Y-12971D01*
X4737Y-12923D01*
X4761Y-12870D01*
X4774Y-12812D01*
X4775Y-12745D01*
X4763Y-12687D01*
X4741Y-12633D01*
X4708Y-12584D01*
X4667Y-12542D01*
X4618Y-12509D01*
X4564Y-12487D01*
X4506Y-12475D01*
X4447Y-12474D01*
X4389Y-12485D01*
X4335Y-12507D01*
X4286Y-12540D01*
X4244Y-12581D01*
X4210Y-12629D01*
X4187Y-12683D01*
X4175Y-12741D01*
X4174Y-12800D01*
X4185Y-12858D01*
X4206Y-12912D01*
X4238Y-12962D01*
X4275Y-13000D01*
X4251Y-13000D01*
X4236Y-12999D01*
X4075Y-12999D01*
X4075Y-13000D01*
X3936Y-13000D01*
X3921Y-12999D01*
X3760Y-12999D01*
X3760Y-13000D01*
X3508Y-13000D01*
X3511Y-12995D01*
X3524Y-12937D01*
X3525Y-12870D01*
X3513Y-12812D01*
X3491Y-12758D01*
X3458Y-12709D01*
X3417Y-12667D01*
X3368Y-12634D01*
X3314Y-12612D01*
X3256Y-12600D01*
X3197Y-12599D01*
X3139Y-12610D01*
X3085Y-12632D01*
X3036Y-12665D01*
X3000Y-12700D01*
X3000Y-12541D01*
X3000Y-12526D01*
X3000Y-12365D01*
X3000Y-12365D01*
X3000Y-12226D01*
X3000Y-12211D01*
X3000Y-12050D01*
X3000Y-12050D01*
X3000Y-11911D01*
X3000Y-11896D01*
X3000Y-11735D01*
X3000Y-11735D01*
X3000Y-11596D01*
X3000Y-11581D01*
X3000Y-11420D01*
X3000Y-11420D01*
X3000Y-11281D01*
X3000Y-11266D01*
X3000Y-11105D01*
X3000Y-11105D01*
X3000Y-10966D01*
X3000Y-10951D01*
X3000Y-10790D01*
X3000Y-10790D01*
X3000Y-10651D01*
X3000Y-10636D01*
X3000Y-10475D01*
X3000Y-10475D01*
X3000Y-10336D01*
X3000Y-10321D01*
X3000Y-10160D01*
X3000Y-10160D01*
X3000Y-10021D01*
X3000Y-10006D01*
X3000Y-9845D01*
X3000Y-9845D01*
X3000Y-9588D01*
X3008Y-9588D01*
X3022Y-9589D01*
X3025Y-9590D01*
X3150Y-9590D01*
X3167Y-9588D01*
X3184Y-9586D01*
X3185Y-9586D01*
X3186Y-9586D01*
X3203Y-9581D01*
X3220Y-9576D01*
X3221Y-9576D01*
X3222Y-9575D01*
X3237Y-9567D01*
X3253Y-9559D01*
X3255Y-9558D01*
X3255Y-9558D01*
X3255Y-9558D01*
X3255Y-9558D01*
X3328Y-9509D01*
X3329Y-9508D01*
X3329Y-9508D01*
X3330Y-9508D01*
X3342Y-9497D01*
X3357Y-9485D01*
X3358Y-9485D01*
X3359Y-9484D01*
X3369Y-9472D01*
X3381Y-9457D01*
X3382Y-9456D01*
X3382Y-9455D01*
X3390Y-9441D01*
X3399Y-9424D01*
X3399Y-9423D01*
X3400Y-9423D01*
X3405Y-9407D01*
X3407Y-9400D01*
X3458Y-9400D01*
X3473Y-9400D01*
X3634Y-9400D01*
X3634Y-9400D01*
X3773Y-9400D01*
X3788Y-9400D01*
X3949Y-9400D01*
X3949Y-9400D01*
X4088Y-9400D01*
X4103Y-9400D01*
X4200Y-9400D01*
X4199Y-9450D01*
X4210Y-9508D01*
X4231Y-9562D01*
X4263Y-9612D01*
X4304Y-9654D01*
X4352Y-9688D01*
X4406Y-9711D01*
X4464Y-9724D01*
X4500Y-9725D01*
X4499Y-9775D01*
X4510Y-9833D01*
X4531Y-9887D01*
X4563Y-9937D01*
X4604Y-9979D01*
X4652Y-10013D01*
X4706Y-10036D01*
X4764Y-10049D01*
X4823Y-10050D01*
X4881Y-10040D01*
X4935Y-10019D01*
X4985Y-9987D01*
X5028Y-9946D01*
X5062Y-9898D01*
X5086Y-9845D01*
X5099Y-9787D01*
X5100Y-9720D01*
X5088Y-9662D01*
X5066Y-9608D01*
X5033Y-9559D01*
X4992Y-9517D01*
X4990Y-9516D01*
X4990Y-9400D01*
X5033Y-9400D01*
X5048Y-9400D01*
X5209Y-9400D01*
X5209Y-9400D01*
X5348Y-9400D01*
X5363Y-9400D01*
X5524Y-9400D01*
X5524Y-9400D01*
X5663Y-9400D01*
X5678Y-9400D01*
X5839Y-9400D01*
X5839Y-9400D01*
X6293Y-9400D01*
X6308Y-9400D01*
X6469Y-9400D01*
X6469Y-9400D01*
X6600Y-9400D01*
X6600Y-9543D01*
X6599Y-9558D01*
X6599Y-9719D01*
X6600Y-9719D01*
X6600Y-9760D01*
X6408Y-9760D01*
X6408Y-9759D01*
X6367Y-9717D01*
X6318Y-9684D01*
X6264Y-9662D01*
X6206Y-9650D01*
X6147Y-9649D01*
X6089Y-9660D01*
X6035Y-9682D01*
X5986Y-9715D01*
X5944Y-9756D01*
X5910Y-9804D01*
X5887Y-9858D01*
X5875Y-9916D01*
X5874Y-9975D01*
X5885Y-10033D01*
X5906Y-10087D01*
X5938Y-10137D01*
X5979Y-10179D01*
X6027Y-10213D01*
X6081Y-10236D01*
X6139Y-10249D01*
X6174Y-10250D01*
X6174Y-10274D01*
X6147Y-10274D01*
X6089Y-10285D01*
X6035Y-10307D01*
X5986Y-10340D01*
X5944Y-10381D01*
X5910Y-10429D01*
X5887Y-10483D01*
X5875Y-10541D01*
X5874Y-10600D01*
X5885Y-10658D01*
X5906Y-10712D01*
X5938Y-10762D01*
X5979Y-10804D01*
X6027Y-10838D01*
X6081Y-10861D01*
X6139Y-10874D01*
X6175Y-10875D01*
X6174Y-10925D01*
X6185Y-10983D01*
X6206Y-11037D01*
X6238Y-11087D01*
X6279Y-11129D01*
X6327Y-11163D01*
X6381Y-11186D01*
X6439Y-11199D01*
X6498Y-11200D01*
X6556Y-11190D01*
X6599Y-11173D01*
X6599Y-11294D01*
X6600Y-11294D01*
X6600Y-11433D01*
X6599Y-11448D01*
X6599Y-11609D01*
X6600Y-11609D01*
X6600Y-11748D01*
X6599Y-11763D01*
X6599Y-11924D01*
X6600Y-11924D01*
X6600Y-12270D01*
X6600Y-12270D01*
G37*
G54D30*
X6600Y-12270D02*
X6390Y-12270D01*
X6372Y-12271D01*
X6355Y-12273D01*
X6354Y-12273D01*
X6353Y-12273D01*
X6336Y-12278D01*
X6319Y-12283D01*
X6318Y-12284D01*
X6317Y-12284D01*
X6302Y-12292D01*
X6286Y-12300D01*
X6285Y-12301D01*
X6284Y-12301D01*
X6271Y-12312D01*
X6257Y-12323D01*
X6256Y-12325D01*
X6256Y-12325D01*
X6256Y-12325D01*
X6255Y-12325D01*
X6181Y-12400D01*
X6122Y-12399D01*
X6064Y-12410D01*
X6010Y-12432D01*
X5961Y-12465D01*
X5919Y-12506D01*
X5885Y-12554D01*
X5862Y-12608D01*
X5850Y-12666D01*
X5849Y-12725D01*
X5860Y-12783D01*
X5881Y-12837D01*
X5913Y-12887D01*
X5954Y-12929D01*
X6002Y-12963D01*
X6056Y-12986D01*
X6114Y-12999D01*
X6146Y-13000D01*
X6141Y-13000D01*
X6126Y-12999D01*
X5965Y-12999D01*
X5965Y-13000D01*
X5826Y-13000D01*
X5811Y-12999D01*
X5650Y-12999D01*
X5650Y-13000D01*
X5511Y-13000D01*
X5496Y-12999D01*
X5335Y-12999D01*
X5335Y-13000D01*
X4881Y-13000D01*
X4866Y-12999D01*
X4705Y-12999D01*
X4705Y-13000D01*
X4675Y-13000D01*
X4675Y-12998D01*
X4703Y-12971D01*
X4737Y-12923D01*
X4761Y-12870D01*
X4774Y-12812D01*
X4775Y-12745D01*
X4763Y-12687D01*
X4741Y-12633D01*
X4708Y-12584D01*
X4667Y-12542D01*
X4618Y-12509D01*
X4564Y-12487D01*
X4506Y-12475D01*
X4447Y-12474D01*
X4389Y-12485D01*
X4335Y-12507D01*
X4286Y-12540D01*
X4244Y-12581D01*
X4210Y-12629D01*
X4187Y-12683D01*
X4175Y-12741D01*
X4174Y-12800D01*
X4185Y-12858D01*
X4206Y-12912D01*
X4238Y-12962D01*
X4275Y-13000D01*
X4251Y-13000D01*
X4236Y-12999D01*
X4075Y-12999D01*
X4075Y-13000D01*
X3936Y-13000D01*
X3921Y-12999D01*
X3760Y-12999D01*
X3760Y-13000D01*
X3508Y-13000D01*
X3511Y-12995D01*
X3524Y-12937D01*
X3525Y-12870D01*
X3513Y-12812D01*
X3491Y-12758D01*
X3458Y-12709D01*
X3417Y-12667D01*
X3368Y-12634D01*
X3314Y-12612D01*
X3256Y-12600D01*
X3197Y-12599D01*
X3139Y-12610D01*
X3085Y-12632D01*
X3036Y-12665D01*
X3000Y-12700D01*
X3000Y-12541D01*
X3000Y-12526D01*
X3000Y-12365D01*
X3000Y-12365D01*
X3000Y-12226D01*
X3000Y-12211D01*
X3000Y-12050D01*
X3000Y-12050D01*
X3000Y-11911D01*
X3000Y-11896D01*
X3000Y-11735D01*
X3000Y-11735D01*
X3000Y-11596D01*
X3000Y-11581D01*
X3000Y-11420D01*
X3000Y-11420D01*
X3000Y-11281D01*
X3000Y-11266D01*
X3000Y-11105D01*
X3000Y-11105D01*
X3000Y-10966D01*
X3000Y-10951D01*
X3000Y-10790D01*
X3000Y-10790D01*
X3000Y-10651D01*
X3000Y-10636D01*
X3000Y-10475D01*
X3000Y-10475D01*
X3000Y-10336D01*
X3000Y-10321D01*
X3000Y-10160D01*
X3000Y-10160D01*
X3000Y-10021D01*
X3000Y-10006D01*
X3000Y-9845D01*
X3000Y-9845D01*
X3000Y-9588D01*
X3008Y-9588D01*
X3022Y-9589D01*
X3025Y-9590D01*
X3150Y-9590D01*
X3167Y-9588D01*
X3184Y-9586D01*
X3185Y-9586D01*
X3186Y-9586D01*
X3203Y-9581D01*
X3220Y-9576D01*
X3221Y-9576D01*
X3222Y-9575D01*
X3237Y-9567D01*
X3253Y-9559D01*
X3255Y-9558D01*
X3255Y-9558D01*
X3255Y-9558D01*
X3255Y-9558D01*
X3328Y-9509D01*
X3329Y-9508D01*
X3329Y-9508D01*
X3330Y-9508D01*
X3342Y-9497D01*
X3357Y-9485D01*
X3358Y-9485D01*
X3359Y-9484D01*
X3369Y-9472D01*
X3381Y-9457D01*
X3382Y-9456D01*
X3382Y-9455D01*
X3390Y-9441D01*
X3399Y-9424D01*
X3399Y-9423D01*
X3400Y-9423D01*
X3405Y-9407D01*
X3407Y-9400D01*
X3458Y-9400D01*
X3473Y-9400D01*
X3634Y-9400D01*
X3634Y-9400D01*
X3773Y-9400D01*
X3788Y-9400D01*
X3949Y-9400D01*
X3949Y-9400D01*
X4088Y-9400D01*
X4103Y-9400D01*
X4200Y-9400D01*
X4199Y-9450D01*
X4210Y-9508D01*
X4231Y-9562D01*
X4263Y-9612D01*
X4304Y-9654D01*
X4352Y-9688D01*
X4406Y-9711D01*
X4464Y-9724D01*
X4500Y-9725D01*
X4499Y-9775D01*
X4510Y-9833D01*
X4531Y-9887D01*
X4563Y-9937D01*
X4604Y-9979D01*
X4652Y-10013D01*
X4706Y-10036D01*
X4764Y-10049D01*
X4823Y-10050D01*
X4881Y-10040D01*
X4935Y-10019D01*
X4985Y-9987D01*
X5028Y-9946D01*
X5062Y-9898D01*
X5086Y-9845D01*
X5099Y-9787D01*
X5100Y-9720D01*
X5088Y-9662D01*
X5066Y-9608D01*
X5033Y-9559D01*
X4992Y-9517D01*
X4990Y-9516D01*
X4990Y-9400D01*
X5033Y-9400D01*
X5048Y-9400D01*
X5209Y-9400D01*
X5209Y-9400D01*
X5348Y-9400D01*
X5363Y-9400D01*
X5524Y-9400D01*
X5524Y-9400D01*
X5663Y-9400D01*
X5678Y-9400D01*
X5839Y-9400D01*
X5839Y-9400D01*
X6293Y-9400D01*
X6308Y-9400D01*
X6469Y-9400D01*
X6469Y-9400D01*
X6600Y-9400D01*
X6600Y-9543D01*
X6599Y-9558D01*
X6599Y-9719D01*
X6600Y-9719D01*
X6600Y-9760D01*
X6408Y-9760D01*
X6408Y-9759D01*
X6367Y-9717D01*
X6318Y-9684D01*
X6264Y-9662D01*
X6206Y-9650D01*
X6147Y-9649D01*
X6089Y-9660D01*
X6035Y-9682D01*
X5986Y-9715D01*
X5944Y-9756D01*
X5910Y-9804D01*
X5887Y-9858D01*
X5875Y-9916D01*
X5874Y-9975D01*
X5885Y-10033D01*
X5906Y-10087D01*
X5938Y-10137D01*
X5979Y-10179D01*
X6027Y-10213D01*
X6081Y-10236D01*
X6139Y-10249D01*
X6174Y-10250D01*
X6174Y-10274D01*
X6147Y-10274D01*
X6089Y-10285D01*
X6035Y-10307D01*
X5986Y-10340D01*
X5944Y-10381D01*
X5910Y-10429D01*
X5887Y-10483D01*
X5875Y-10541D01*
X5874Y-10600D01*
X5885Y-10658D01*
X5906Y-10712D01*
X5938Y-10762D01*
X5979Y-10804D01*
X6027Y-10838D01*
X6081Y-10861D01*
X6139Y-10874D01*
X6175Y-10875D01*
X6174Y-10925D01*
X6185Y-10983D01*
X6206Y-11037D01*
X6238Y-11087D01*
X6279Y-11129D01*
X6327Y-11163D01*
X6381Y-11186D01*
X6439Y-11199D01*
X6498Y-11200D01*
X6556Y-11190D01*
X6599Y-11173D01*
X6599Y-11294D01*
X6600Y-11294D01*
X6600Y-11433D01*
X6599Y-11448D01*
X6599Y-11609D01*
X6600Y-11609D01*
X6600Y-11748D01*
X6599Y-11763D01*
X6599Y-11924D01*
X6600Y-11924D01*
X6600Y-12270D01*
M02*
