G04 (created by PCBNEW (2013-04-19 BZR 4011)-stable) date 09/05/2013 23:39:35*
%MOIN*%
G04 Gerber Fmt 3.4, Leading zero omitted, Abs format*
%FSLAX34Y34*%
G01*
G70*
G90*
G04 APERTURE LIST*
%ADD10C,2.3622e-006*%
%ADD11C,0.015*%
%ADD12C,0.06*%
%ADD13C,0.0629921*%
%ADD14C,0.125984*%
%ADD15R,0.015748X0.0531496*%
%ADD16R,0.0826772X0.0787402*%
%ADD17R,0.0629921X0.0748031*%
%ADD18C,0.110236*%
%ADD19C,0.03*%
%ADD20C,0.012*%
%ADD21C,0.008*%
%ADD22C,0.01*%
G04 APERTURE END LIST*
G54D10*
G54D11*
X10400Y-500D02*
X10400Y-19150D01*
X0Y-19150D02*
X0Y-500D01*
X9900Y-19650D02*
X500Y-19650D01*
X9900Y-19650D02*
G75*
G03X10400Y-19150I0J500D01*
G74*
G01*
X0Y-19150D02*
G75*
G03X500Y-19650I500J0D01*
G74*
G01*
X500Y0D02*
X9900Y0D01*
X500Y0D02*
G75*
G03X0Y-500I0J-500D01*
G74*
G01*
X10400Y-500D02*
G75*
G03X9900Y0I-500J0D01*
G74*
G01*
G54D12*
X700Y-6700D03*
X9700Y-15700D03*
X4700Y-15700D03*
X5700Y-15700D03*
X6700Y-5300D03*
X1700Y-6700D03*
X9700Y-10700D03*
X9700Y-8700D03*
X9700Y-9700D03*
X9700Y-7700D03*
X9700Y-11700D03*
X9700Y-12700D03*
X9700Y-13700D03*
X7700Y-15700D03*
X8700Y-5300D03*
X7700Y-5300D03*
X700Y-7700D03*
X1700Y-15700D03*
X9700Y-6700D03*
X3700Y-15700D03*
X6700Y-15700D03*
X9700Y-14700D03*
X700Y-15700D03*
X700Y-14700D03*
X700Y-13700D03*
X700Y-12700D03*
X2700Y-6700D03*
X700Y-10700D03*
X700Y-9700D03*
X700Y-8700D03*
X8700Y-6700D03*
X7700Y-6700D03*
X6700Y-6700D03*
X5700Y-6700D03*
X4700Y-6700D03*
X3700Y-6700D03*
X700Y-11700D03*
X1700Y-5300D03*
X2700Y-5300D03*
X3700Y-5300D03*
X4700Y-5300D03*
X5700Y-5300D03*
G54D13*
X3861Y-2596D03*
X6538Y-2596D03*
X3861Y-3580D03*
X6538Y-3580D03*
G54D14*
X5200Y-1100D03*
X2542Y-1414D03*
X7857Y-1414D03*
G54D13*
X4688Y-2596D03*
X5711Y-2596D03*
X4688Y-3580D03*
X5554Y-3580D03*
G54D15*
X4689Y-17797D03*
G54D16*
X6420Y-17925D03*
X3980Y-17925D03*
G54D17*
X6814Y-18850D03*
X3586Y-18850D03*
G54D15*
X4944Y-17797D03*
X5200Y-17797D03*
X5456Y-17797D03*
X5712Y-17797D03*
G54D18*
X9025Y-18275D03*
X1375Y-3050D03*
X9025Y-3050D03*
X1375Y-18275D03*
G54D19*
X1750Y-12150D03*
X4800Y-9750D03*
X4500Y-9425D03*
X4375Y-8350D03*
X6475Y-10900D03*
X6175Y-10575D03*
X6475Y-10250D03*
X6175Y-9950D03*
X5750Y-8325D03*
X6925Y-8525D03*
X5350Y-8225D03*
X4900Y-8350D03*
X3225Y-12900D03*
X2075Y-11825D03*
X1750Y-11525D03*
X6150Y-12700D03*
X8675Y-600D03*
X7850Y-16800D03*
X1250Y-9900D03*
X8750Y-8275D03*
X6375Y-7975D03*
X6475Y-15050D03*
X8200Y-11800D03*
X9250Y-15225D03*
X4475Y-12775D03*
X2775Y-13500D03*
X2350Y-15350D03*
X2025Y-12450D03*
G54D20*
X4689Y-17797D02*
X4689Y-16689D01*
X4689Y-16689D02*
X3700Y-15700D01*
G54D21*
X1700Y-12200D02*
X1700Y-15700D01*
X1750Y-12150D02*
X1700Y-12200D01*
X5200Y-17797D02*
X5200Y-15925D01*
X5425Y-15700D02*
X5700Y-15700D01*
X5200Y-15925D02*
X5425Y-15700D01*
X4944Y-17797D02*
X4944Y-15944D01*
X4944Y-15944D02*
X4700Y-15700D01*
X2700Y-5300D02*
X2700Y-5250D01*
X2700Y-5250D02*
X3050Y-4900D01*
X3050Y-4900D02*
X3050Y-3550D01*
X5711Y-2596D02*
X5603Y-2596D01*
X5603Y-2596D02*
X5100Y-3100D01*
X5100Y-3100D02*
X3500Y-3100D01*
X3500Y-3100D02*
X3050Y-3550D01*
X4688Y-3580D02*
X4688Y-5288D01*
X4688Y-5288D02*
X4700Y-5300D01*
X6538Y-2596D02*
X6453Y-2596D01*
X6453Y-2596D02*
X6050Y-3000D01*
X6050Y-3000D02*
X6050Y-3250D01*
X6538Y-2596D02*
X6538Y-2761D01*
X6050Y-4950D02*
X5700Y-5300D01*
X6050Y-3250D02*
X6050Y-4950D01*
X8625Y-9625D02*
X9700Y-10700D01*
X4925Y-9625D02*
X8625Y-9625D01*
X4800Y-9750D02*
X4925Y-9625D01*
X9700Y-9700D02*
X9050Y-9700D01*
X5000Y-9425D02*
X4500Y-9425D01*
X8775Y-9425D02*
X5000Y-9425D01*
X9050Y-9700D02*
X8775Y-9425D01*
X4975Y-9200D02*
X9225Y-9200D01*
X9225Y-9200D02*
X9700Y-8725D01*
X9700Y-8725D02*
X9700Y-8600D01*
X4350Y-8575D02*
X4975Y-9200D01*
X4350Y-8375D02*
X4350Y-8575D01*
X4375Y-8350D02*
X4350Y-8375D01*
X1700Y-6700D02*
X1700Y-8325D01*
X4275Y-10900D02*
X6475Y-10900D01*
X1700Y-8325D02*
X4275Y-10900D01*
X6175Y-10575D02*
X4325Y-10575D01*
X2700Y-8925D02*
X2700Y-6700D01*
X4325Y-10575D02*
X2700Y-8925D01*
X3700Y-6700D02*
X3700Y-9475D01*
X3700Y-9475D02*
X4475Y-10250D01*
X4475Y-10250D02*
X6475Y-10250D01*
X4700Y-6700D02*
X4700Y-7450D01*
X4625Y-10050D02*
X5050Y-10050D01*
X4050Y-9475D02*
X4625Y-10050D01*
X4050Y-8100D02*
X4050Y-9475D01*
X4700Y-7450D02*
X4050Y-8100D01*
X5050Y-10050D02*
X5150Y-9950D01*
X5150Y-9950D02*
X6175Y-9950D01*
X6175Y-9950D02*
X5150Y-9950D01*
X5150Y-9950D02*
X5050Y-10050D01*
X4700Y-6700D02*
X4675Y-6700D01*
X5700Y-6700D02*
X5700Y-8275D01*
X5700Y-8275D02*
X5750Y-8325D01*
X6700Y-6700D02*
X6700Y-8300D01*
X6700Y-8300D02*
X6925Y-8525D01*
X7700Y-6700D02*
X7700Y-8650D01*
X7400Y-8839D02*
X7510Y-8839D01*
X7510Y-8839D02*
X7700Y-8650D01*
X5335Y-8239D02*
X5350Y-8225D01*
X5335Y-8600D02*
X5335Y-8239D01*
X5575Y-8839D02*
X5335Y-8600D01*
X7400Y-8839D02*
X5575Y-8839D01*
X5350Y-8225D02*
X5375Y-8225D01*
X8700Y-6700D02*
X8675Y-6700D01*
X8000Y-8700D02*
X7680Y-9019D01*
X8000Y-7375D02*
X8000Y-8700D01*
X8675Y-6700D02*
X8000Y-7375D01*
X7525Y-9019D02*
X7680Y-9019D01*
X4900Y-8350D02*
X4900Y-8825D01*
X5094Y-9019D02*
X7525Y-9019D01*
X4900Y-8825D02*
X5094Y-9019D01*
X700Y-7700D02*
X3225Y-10225D01*
X3225Y-10225D02*
X3225Y-12900D01*
X2075Y-11825D02*
X1625Y-11825D01*
X1450Y-12000D02*
X1450Y-12475D01*
X1625Y-11825D02*
X1450Y-12000D01*
X1450Y-14950D02*
X700Y-15700D01*
X1450Y-12475D02*
X1450Y-14950D01*
X1750Y-11525D02*
X1450Y-11525D01*
X1200Y-11775D02*
X1200Y-12300D01*
X1450Y-11525D02*
X1200Y-11775D01*
X700Y-14700D02*
X919Y-14700D01*
X919Y-14700D02*
X1200Y-14419D01*
X1200Y-14419D02*
X1200Y-12300D01*
X6150Y-12700D02*
X6150Y-14150D01*
X6150Y-14150D02*
X7700Y-15700D01*
X6150Y-14150D02*
X7700Y-15700D01*
G54D20*
X5712Y-17797D02*
X5712Y-16688D01*
X5712Y-16688D02*
X6700Y-15700D01*
G54D21*
X6475Y-15050D02*
X6500Y-15050D01*
G54D10*
G36*
X10175Y-19138D02*
X10168Y-19203D01*
X10153Y-19254D01*
X10151Y-19258D01*
X10151Y-15668D01*
X10151Y-6668D01*
X10136Y-6581D01*
X10105Y-6499D01*
X10092Y-6476D01*
X10026Y-6444D01*
X9955Y-6514D01*
X9955Y-6373D01*
X9923Y-6307D01*
X9843Y-6271D01*
X9757Y-6251D01*
X9726Y-6250D01*
X9726Y-2981D01*
X9699Y-2846D01*
X9647Y-2719D01*
X9571Y-2604D01*
X9474Y-2507D01*
X9360Y-2430D01*
X9233Y-2376D01*
X9098Y-2349D01*
X8961Y-2348D01*
X8826Y-2374D01*
X8698Y-2425D01*
X8637Y-2465D01*
X8637Y-1338D01*
X8607Y-1188D01*
X8549Y-1047D01*
X8464Y-919D01*
X8357Y-811D01*
X8230Y-725D01*
X8089Y-666D01*
X7939Y-635D01*
X7786Y-634D01*
X7636Y-663D01*
X7494Y-720D01*
X7366Y-804D01*
X7257Y-911D01*
X7170Y-1037D01*
X7110Y-1177D01*
X7078Y-1327D01*
X7076Y-1480D01*
X7104Y-1630D01*
X7160Y-1773D01*
X7243Y-1901D01*
X7349Y-2011D01*
X7475Y-2099D01*
X7615Y-2160D01*
X7764Y-2193D01*
X7917Y-2196D01*
X8068Y-2169D01*
X8210Y-2114D01*
X8339Y-2032D01*
X8450Y-1927D01*
X8538Y-1802D01*
X8601Y-1662D01*
X8634Y-1513D01*
X8637Y-1338D01*
X8637Y-2465D01*
X8583Y-2500D01*
X8485Y-2597D01*
X8407Y-2710D01*
X8353Y-2836D01*
X8324Y-2971D01*
X8322Y-3108D01*
X8347Y-3244D01*
X8398Y-3372D01*
X8472Y-3487D01*
X8568Y-3586D01*
X8681Y-3665D01*
X8807Y-3720D01*
X8941Y-3749D01*
X9079Y-3752D01*
X9214Y-3728D01*
X9342Y-3678D01*
X9458Y-3605D01*
X9558Y-3510D01*
X9637Y-3398D01*
X9693Y-3272D01*
X9724Y-3138D01*
X9726Y-2981D01*
X9726Y-6250D01*
X9668Y-6248D01*
X9581Y-6263D01*
X9499Y-6294D01*
X9476Y-6307D01*
X9444Y-6373D01*
X9700Y-6629D01*
X9955Y-6373D01*
X9955Y-6514D01*
X9770Y-6700D01*
X10026Y-6955D01*
X10092Y-6923D01*
X10128Y-6843D01*
X10148Y-6757D01*
X10151Y-6668D01*
X10151Y-15668D01*
X10150Y-15662D01*
X10150Y-14655D01*
X10150Y-13655D01*
X10150Y-12655D01*
X10150Y-11655D01*
X10150Y-10655D01*
X10132Y-10569D01*
X10099Y-10487D01*
X10050Y-10414D01*
X9988Y-10351D01*
X9915Y-10302D01*
X9833Y-10268D01*
X9747Y-10250D01*
X9659Y-10249D01*
X9572Y-10266D01*
X9545Y-10276D01*
X9158Y-9890D01*
X9291Y-9890D01*
X9297Y-9906D01*
X9345Y-9980D01*
X9406Y-10044D01*
X9479Y-10094D01*
X9560Y-10130D01*
X9646Y-10148D01*
X9734Y-10150D01*
X9821Y-10135D01*
X9903Y-10103D01*
X9978Y-10056D01*
X10042Y-9995D01*
X10093Y-9923D01*
X10129Y-9842D01*
X10148Y-9756D01*
X10150Y-9655D01*
X10132Y-9569D01*
X10099Y-9487D01*
X10050Y-9414D01*
X9988Y-9351D01*
X9915Y-9302D01*
X9833Y-9268D01*
X9747Y-9250D01*
X9659Y-9249D01*
X9572Y-9266D01*
X9490Y-9299D01*
X9416Y-9347D01*
X9353Y-9409D01*
X9303Y-9482D01*
X9291Y-9510D01*
X9128Y-9510D01*
X9008Y-9390D01*
X9225Y-9390D01*
X9242Y-9388D01*
X9259Y-9386D01*
X9260Y-9386D01*
X9261Y-9386D01*
X9278Y-9381D01*
X9295Y-9376D01*
X9296Y-9375D01*
X9297Y-9375D01*
X9312Y-9367D01*
X9328Y-9359D01*
X9329Y-9358D01*
X9330Y-9358D01*
X9343Y-9347D01*
X9357Y-9336D01*
X9358Y-9334D01*
X9358Y-9334D01*
X9358Y-9334D01*
X9359Y-9334D01*
X9563Y-9130D01*
X9646Y-9148D01*
X9734Y-9150D01*
X9821Y-9135D01*
X9903Y-9103D01*
X9978Y-9056D01*
X10042Y-8995D01*
X10093Y-8923D01*
X10129Y-8842D01*
X10148Y-8756D01*
X10150Y-8655D01*
X10150Y-7655D01*
X10132Y-7569D01*
X10099Y-7487D01*
X10050Y-7414D01*
X9988Y-7351D01*
X9955Y-7329D01*
X9955Y-7026D01*
X9700Y-6770D01*
X9629Y-6841D01*
X9629Y-6700D01*
X9373Y-6444D01*
X9307Y-6476D01*
X9271Y-6556D01*
X9251Y-6642D01*
X9248Y-6731D01*
X9263Y-6818D01*
X9294Y-6900D01*
X9307Y-6923D01*
X9373Y-6955D01*
X9629Y-6700D01*
X9629Y-6841D01*
X9444Y-7026D01*
X9476Y-7092D01*
X9556Y-7128D01*
X9642Y-7148D01*
X9731Y-7151D01*
X9818Y-7136D01*
X9900Y-7105D01*
X9923Y-7092D01*
X9955Y-7026D01*
X9955Y-7329D01*
X9915Y-7302D01*
X9833Y-7268D01*
X9747Y-7250D01*
X9659Y-7249D01*
X9572Y-7266D01*
X9490Y-7299D01*
X9416Y-7347D01*
X9353Y-7409D01*
X9303Y-7482D01*
X9268Y-7563D01*
X9250Y-7649D01*
X9249Y-7737D01*
X9265Y-7824D01*
X9297Y-7906D01*
X9345Y-7980D01*
X9406Y-8044D01*
X9479Y-8094D01*
X9560Y-8130D01*
X9646Y-8148D01*
X9734Y-8150D01*
X9821Y-8135D01*
X9903Y-8103D01*
X9978Y-8056D01*
X10042Y-7995D01*
X10093Y-7923D01*
X10129Y-7842D01*
X10148Y-7756D01*
X10150Y-7655D01*
X10150Y-8655D01*
X10132Y-8569D01*
X10099Y-8487D01*
X10050Y-8414D01*
X9988Y-8351D01*
X9915Y-8302D01*
X9833Y-8268D01*
X9747Y-8250D01*
X9659Y-8249D01*
X9572Y-8266D01*
X9490Y-8299D01*
X9416Y-8347D01*
X9353Y-8409D01*
X9303Y-8482D01*
X9268Y-8563D01*
X9250Y-8649D01*
X9249Y-8737D01*
X9265Y-8824D01*
X9284Y-8872D01*
X9146Y-9010D01*
X7958Y-9010D01*
X8134Y-8834D01*
X8145Y-8820D01*
X8156Y-8807D01*
X8157Y-8806D01*
X8157Y-8805D01*
X8166Y-8790D01*
X8174Y-8774D01*
X8174Y-8773D01*
X8175Y-8773D01*
X8180Y-8756D01*
X8185Y-8739D01*
X8185Y-8738D01*
X8186Y-8737D01*
X8188Y-8720D01*
X8189Y-8702D01*
X8189Y-8700D01*
X8189Y-8700D01*
X8189Y-8700D01*
X8190Y-8700D01*
X8190Y-7453D01*
X8527Y-7115D01*
X8560Y-7130D01*
X8646Y-7148D01*
X8734Y-7150D01*
X8821Y-7135D01*
X8903Y-7103D01*
X8978Y-7056D01*
X9042Y-6995D01*
X9093Y-6923D01*
X9129Y-6842D01*
X9148Y-6756D01*
X9150Y-6655D01*
X9150Y-5255D01*
X9132Y-5169D01*
X9099Y-5087D01*
X9050Y-5014D01*
X8988Y-4951D01*
X8915Y-4902D01*
X8833Y-4868D01*
X8747Y-4850D01*
X8659Y-4849D01*
X8572Y-4866D01*
X8490Y-4899D01*
X8416Y-4947D01*
X8353Y-5009D01*
X8303Y-5082D01*
X8268Y-5163D01*
X8250Y-5249D01*
X8249Y-5337D01*
X8265Y-5424D01*
X8297Y-5506D01*
X8345Y-5580D01*
X8406Y-5644D01*
X8479Y-5694D01*
X8560Y-5730D01*
X8646Y-5748D01*
X8734Y-5750D01*
X8821Y-5735D01*
X8903Y-5703D01*
X8978Y-5656D01*
X9042Y-5595D01*
X9093Y-5523D01*
X9129Y-5442D01*
X9148Y-5356D01*
X9150Y-5255D01*
X9150Y-6655D01*
X9132Y-6569D01*
X9099Y-6487D01*
X9050Y-6414D01*
X8988Y-6351D01*
X8915Y-6302D01*
X8833Y-6268D01*
X8747Y-6250D01*
X8659Y-6249D01*
X8572Y-6266D01*
X8490Y-6299D01*
X8416Y-6347D01*
X8353Y-6409D01*
X8303Y-6482D01*
X8268Y-6563D01*
X8250Y-6649D01*
X8249Y-6737D01*
X8265Y-6824D01*
X8269Y-6836D01*
X7890Y-7216D01*
X7890Y-7108D01*
X7903Y-7103D01*
X7978Y-7056D01*
X8042Y-6995D01*
X8093Y-6923D01*
X8129Y-6842D01*
X8148Y-6756D01*
X8150Y-6655D01*
X8150Y-5255D01*
X8132Y-5169D01*
X8099Y-5087D01*
X8050Y-5014D01*
X7988Y-4951D01*
X7915Y-4902D01*
X7833Y-4868D01*
X7747Y-4850D01*
X7659Y-4849D01*
X7572Y-4866D01*
X7490Y-4899D01*
X7416Y-4947D01*
X7353Y-5009D01*
X7303Y-5082D01*
X7268Y-5163D01*
X7250Y-5249D01*
X7249Y-5337D01*
X7265Y-5424D01*
X7297Y-5506D01*
X7345Y-5580D01*
X7406Y-5644D01*
X7479Y-5694D01*
X7560Y-5730D01*
X7646Y-5748D01*
X7734Y-5750D01*
X7821Y-5735D01*
X7903Y-5703D01*
X7978Y-5656D01*
X8042Y-5595D01*
X8093Y-5523D01*
X8129Y-5442D01*
X8148Y-5356D01*
X8150Y-5255D01*
X8150Y-6655D01*
X8132Y-6569D01*
X8099Y-6487D01*
X8050Y-6414D01*
X7988Y-6351D01*
X7915Y-6302D01*
X7833Y-6268D01*
X7747Y-6250D01*
X7659Y-6249D01*
X7572Y-6266D01*
X7490Y-6299D01*
X7416Y-6347D01*
X7353Y-6409D01*
X7303Y-6482D01*
X7268Y-6563D01*
X7250Y-6649D01*
X7249Y-6737D01*
X7265Y-6824D01*
X7297Y-6906D01*
X7345Y-6980D01*
X7406Y-7044D01*
X7479Y-7094D01*
X7510Y-7108D01*
X7510Y-8571D01*
X7431Y-8649D01*
X7400Y-8649D01*
X7197Y-8649D01*
X7211Y-8620D01*
X7224Y-8562D01*
X7225Y-8495D01*
X7213Y-8437D01*
X7191Y-8383D01*
X7158Y-8334D01*
X7117Y-8292D01*
X7068Y-8259D01*
X7014Y-8237D01*
X6956Y-8225D01*
X6897Y-8224D01*
X6894Y-8225D01*
X6890Y-8221D01*
X6890Y-7108D01*
X6903Y-7103D01*
X6978Y-7056D01*
X7042Y-6995D01*
X7093Y-6923D01*
X7129Y-6842D01*
X7148Y-6756D01*
X7150Y-6655D01*
X7150Y-5255D01*
X7132Y-5169D01*
X7099Y-5087D01*
X7050Y-5014D01*
X7003Y-4967D01*
X7003Y-3534D01*
X6985Y-3445D01*
X6951Y-3360D01*
X6900Y-3285D01*
X6836Y-3220D01*
X6760Y-3169D01*
X6676Y-3133D01*
X6587Y-3115D01*
X6496Y-3115D01*
X6406Y-3132D01*
X6322Y-3166D01*
X6245Y-3216D01*
X6240Y-3221D01*
X6240Y-3078D01*
X6313Y-3005D01*
X6394Y-3040D01*
X6483Y-3059D01*
X6574Y-3061D01*
X6664Y-3046D01*
X6749Y-3013D01*
X6826Y-2964D01*
X6892Y-2901D01*
X6944Y-2826D01*
X6981Y-2743D01*
X7002Y-2654D01*
X7003Y-2550D01*
X6985Y-2461D01*
X6951Y-2376D01*
X6900Y-2300D01*
X6836Y-2236D01*
X6760Y-2185D01*
X6676Y-2149D01*
X6587Y-2131D01*
X6496Y-2130D01*
X6406Y-2147D01*
X6322Y-2182D01*
X6245Y-2231D01*
X6180Y-2295D01*
X6129Y-2370D01*
X6125Y-2379D01*
X6124Y-2376D01*
X6073Y-2300D01*
X6009Y-2236D01*
X5979Y-2216D01*
X5979Y-1023D01*
X5950Y-873D01*
X5891Y-732D01*
X5807Y-604D01*
X5699Y-496D01*
X5572Y-410D01*
X5431Y-351D01*
X5281Y-320D01*
X5128Y-319D01*
X4978Y-348D01*
X4836Y-405D01*
X4708Y-489D01*
X4599Y-596D01*
X4513Y-722D01*
X4452Y-863D01*
X4421Y-1012D01*
X4419Y-1165D01*
X4446Y-1316D01*
X4502Y-1458D01*
X4585Y-1586D01*
X4692Y-1696D01*
X4817Y-1784D01*
X4957Y-1845D01*
X5107Y-1878D01*
X5260Y-1881D01*
X5410Y-1854D01*
X5553Y-1799D01*
X5682Y-1717D01*
X5793Y-1612D01*
X5881Y-1487D01*
X5943Y-1347D01*
X5977Y-1198D01*
X5979Y-1023D01*
X5979Y-2216D01*
X5934Y-2185D01*
X5849Y-2149D01*
X5760Y-2131D01*
X5669Y-2130D01*
X5579Y-2147D01*
X5495Y-2182D01*
X5419Y-2231D01*
X5353Y-2295D01*
X5302Y-2370D01*
X5266Y-2454D01*
X5247Y-2543D01*
X5246Y-2635D01*
X5253Y-2677D01*
X5070Y-2860D01*
X5094Y-2826D01*
X5131Y-2743D01*
X5151Y-2654D01*
X5153Y-2550D01*
X5135Y-2461D01*
X5100Y-2376D01*
X5050Y-2300D01*
X4986Y-2236D01*
X4910Y-2185D01*
X4826Y-2149D01*
X4737Y-2131D01*
X4645Y-2130D01*
X4556Y-2147D01*
X4471Y-2182D01*
X4395Y-2231D01*
X4330Y-2295D01*
X4278Y-2370D01*
X4275Y-2379D01*
X4273Y-2376D01*
X4223Y-2300D01*
X4159Y-2236D01*
X4083Y-2185D01*
X3999Y-2149D01*
X3910Y-2131D01*
X3819Y-2130D01*
X3729Y-2147D01*
X3644Y-2182D01*
X3568Y-2231D01*
X3503Y-2295D01*
X3451Y-2370D01*
X3416Y-2454D01*
X3397Y-2543D01*
X3395Y-2635D01*
X3412Y-2724D01*
X3445Y-2809D01*
X3495Y-2886D01*
X3518Y-2910D01*
X3500Y-2910D01*
X3482Y-2911D01*
X3465Y-2913D01*
X3464Y-2913D01*
X3463Y-2913D01*
X3446Y-2918D01*
X3429Y-2923D01*
X3428Y-2924D01*
X3427Y-2924D01*
X3412Y-2932D01*
X3396Y-2940D01*
X3395Y-2941D01*
X3394Y-2941D01*
X3381Y-2952D01*
X3367Y-2963D01*
X3366Y-2965D01*
X3366Y-2965D01*
X3366Y-2965D01*
X3365Y-2965D01*
X3322Y-3008D01*
X3322Y-1338D01*
X3292Y-1188D01*
X3234Y-1047D01*
X3149Y-919D01*
X3042Y-811D01*
X2915Y-725D01*
X2774Y-666D01*
X2624Y-635D01*
X2471Y-634D01*
X2321Y-663D01*
X2179Y-720D01*
X2051Y-804D01*
X1942Y-911D01*
X1855Y-1037D01*
X1795Y-1177D01*
X1763Y-1327D01*
X1761Y-1480D01*
X1789Y-1630D01*
X1845Y-1773D01*
X1928Y-1901D01*
X2034Y-2011D01*
X2160Y-2099D01*
X2300Y-2160D01*
X2449Y-2193D01*
X2602Y-2196D01*
X2753Y-2169D01*
X2895Y-2114D01*
X3025Y-2032D01*
X3135Y-1927D01*
X3223Y-1802D01*
X3286Y-1662D01*
X3320Y-1513D01*
X3322Y-1338D01*
X3322Y-3008D01*
X2915Y-3415D01*
X2904Y-3429D01*
X2893Y-3442D01*
X2892Y-3443D01*
X2892Y-3444D01*
X2883Y-3459D01*
X2875Y-3475D01*
X2875Y-3476D01*
X2874Y-3476D01*
X2869Y-3493D01*
X2864Y-3510D01*
X2864Y-3511D01*
X2863Y-3512D01*
X2861Y-3529D01*
X2860Y-3547D01*
X2860Y-3549D01*
X2860Y-3549D01*
X2860Y-3549D01*
X2860Y-3550D01*
X2860Y-4821D01*
X2816Y-4864D01*
X2747Y-4850D01*
X2659Y-4849D01*
X2572Y-4866D01*
X2490Y-4899D01*
X2416Y-4947D01*
X2353Y-5009D01*
X2303Y-5082D01*
X2268Y-5163D01*
X2250Y-5249D01*
X2249Y-5337D01*
X2265Y-5424D01*
X2297Y-5506D01*
X2345Y-5580D01*
X2406Y-5644D01*
X2479Y-5694D01*
X2560Y-5730D01*
X2646Y-5748D01*
X2734Y-5750D01*
X2821Y-5735D01*
X2903Y-5703D01*
X2978Y-5656D01*
X3042Y-5595D01*
X3093Y-5523D01*
X3129Y-5442D01*
X3148Y-5356D01*
X3150Y-5255D01*
X3132Y-5169D01*
X3108Y-5110D01*
X3184Y-5034D01*
X3195Y-5020D01*
X3206Y-5007D01*
X3207Y-5006D01*
X3207Y-5005D01*
X3216Y-4990D01*
X3224Y-4974D01*
X3224Y-4973D01*
X3225Y-4973D01*
X3230Y-4956D01*
X3235Y-4939D01*
X3235Y-4938D01*
X3236Y-4937D01*
X3238Y-4920D01*
X3239Y-4902D01*
X3239Y-4900D01*
X3239Y-4900D01*
X3239Y-4900D01*
X3240Y-4900D01*
X3240Y-3628D01*
X3412Y-3456D01*
X3397Y-3528D01*
X3395Y-3619D01*
X3412Y-3709D01*
X3445Y-3793D01*
X3495Y-3870D01*
X3558Y-3936D01*
X3633Y-3988D01*
X3717Y-4024D01*
X3806Y-4044D01*
X3897Y-4046D01*
X3987Y-4030D01*
X4072Y-3997D01*
X4149Y-3948D01*
X4215Y-3885D01*
X4267Y-3811D01*
X4274Y-3796D01*
X4322Y-3870D01*
X4385Y-3936D01*
X4460Y-3988D01*
X4498Y-4004D01*
X4498Y-4896D01*
X4490Y-4899D01*
X4416Y-4947D01*
X4353Y-5009D01*
X4303Y-5082D01*
X4268Y-5163D01*
X4250Y-5249D01*
X4249Y-5337D01*
X4265Y-5424D01*
X4297Y-5506D01*
X4345Y-5580D01*
X4406Y-5644D01*
X4479Y-5694D01*
X4560Y-5730D01*
X4646Y-5748D01*
X4734Y-5750D01*
X4821Y-5735D01*
X4903Y-5703D01*
X4978Y-5656D01*
X5042Y-5595D01*
X5093Y-5523D01*
X5129Y-5442D01*
X5148Y-5356D01*
X5150Y-5255D01*
X5132Y-5169D01*
X5099Y-5087D01*
X5050Y-5014D01*
X4988Y-4951D01*
X4915Y-4902D01*
X4878Y-4886D01*
X4878Y-4005D01*
X4898Y-3997D01*
X4975Y-3948D01*
X5041Y-3885D01*
X5094Y-3811D01*
X5121Y-3750D01*
X5138Y-3793D01*
X5188Y-3870D01*
X5251Y-3936D01*
X5326Y-3988D01*
X5409Y-4024D01*
X5499Y-4044D01*
X5590Y-4046D01*
X5679Y-4030D01*
X5764Y-3997D01*
X5841Y-3948D01*
X5860Y-3931D01*
X5860Y-4871D01*
X5854Y-4876D01*
X5833Y-4868D01*
X5747Y-4850D01*
X5659Y-4849D01*
X5572Y-4866D01*
X5490Y-4899D01*
X5416Y-4947D01*
X5353Y-5009D01*
X5303Y-5082D01*
X5268Y-5163D01*
X5250Y-5249D01*
X5249Y-5337D01*
X5265Y-5424D01*
X5297Y-5506D01*
X5345Y-5580D01*
X5406Y-5644D01*
X5479Y-5694D01*
X5560Y-5730D01*
X5646Y-5748D01*
X5734Y-5750D01*
X5821Y-5735D01*
X5903Y-5703D01*
X5978Y-5656D01*
X6042Y-5595D01*
X6093Y-5523D01*
X6129Y-5442D01*
X6148Y-5356D01*
X6150Y-5255D01*
X6132Y-5169D01*
X6123Y-5145D01*
X6184Y-5084D01*
X6195Y-5070D01*
X6206Y-5057D01*
X6207Y-5056D01*
X6207Y-5055D01*
X6216Y-5040D01*
X6224Y-5024D01*
X6224Y-5023D01*
X6225Y-5023D01*
X6230Y-5006D01*
X6235Y-4989D01*
X6235Y-4988D01*
X6236Y-4987D01*
X6238Y-4970D01*
X6239Y-4952D01*
X6239Y-4950D01*
X6239Y-4950D01*
X6239Y-4950D01*
X6240Y-4950D01*
X6240Y-3939D01*
X6310Y-3988D01*
X6394Y-4024D01*
X6483Y-4044D01*
X6574Y-4046D01*
X6664Y-4030D01*
X6749Y-3997D01*
X6826Y-3948D01*
X6892Y-3885D01*
X6944Y-3811D01*
X6981Y-3727D01*
X7002Y-3638D01*
X7003Y-3534D01*
X7003Y-4967D01*
X6988Y-4951D01*
X6915Y-4902D01*
X6833Y-4868D01*
X6747Y-4850D01*
X6659Y-4849D01*
X6572Y-4866D01*
X6490Y-4899D01*
X6416Y-4947D01*
X6353Y-5009D01*
X6303Y-5082D01*
X6268Y-5163D01*
X6250Y-5249D01*
X6249Y-5337D01*
X6265Y-5424D01*
X6297Y-5506D01*
X6345Y-5580D01*
X6406Y-5644D01*
X6479Y-5694D01*
X6560Y-5730D01*
X6646Y-5748D01*
X6734Y-5750D01*
X6821Y-5735D01*
X6903Y-5703D01*
X6978Y-5656D01*
X7042Y-5595D01*
X7093Y-5523D01*
X7129Y-5442D01*
X7148Y-5356D01*
X7150Y-5255D01*
X7150Y-6655D01*
X7132Y-6569D01*
X7099Y-6487D01*
X7050Y-6414D01*
X6988Y-6351D01*
X6915Y-6302D01*
X6833Y-6268D01*
X6747Y-6250D01*
X6659Y-6249D01*
X6572Y-6266D01*
X6490Y-6299D01*
X6416Y-6347D01*
X6353Y-6409D01*
X6303Y-6482D01*
X6268Y-6563D01*
X6250Y-6649D01*
X6249Y-6737D01*
X6265Y-6824D01*
X6297Y-6906D01*
X6345Y-6980D01*
X6406Y-7044D01*
X6479Y-7094D01*
X6510Y-7108D01*
X6510Y-8300D01*
X6511Y-8317D01*
X6513Y-8334D01*
X6513Y-8335D01*
X6513Y-8336D01*
X6518Y-8353D01*
X6523Y-8370D01*
X6524Y-8371D01*
X6524Y-8372D01*
X6532Y-8387D01*
X6540Y-8403D01*
X6541Y-8404D01*
X6541Y-8405D01*
X6552Y-8418D01*
X6563Y-8432D01*
X6565Y-8433D01*
X6565Y-8433D01*
X6565Y-8433D01*
X6565Y-8434D01*
X6625Y-8494D01*
X6624Y-8550D01*
X6635Y-8608D01*
X6651Y-8649D01*
X5653Y-8649D01*
X5566Y-8562D01*
X5602Y-8588D01*
X5656Y-8611D01*
X5714Y-8624D01*
X5773Y-8625D01*
X5831Y-8615D01*
X5885Y-8594D01*
X5935Y-8562D01*
X5978Y-8521D01*
X6012Y-8473D01*
X6036Y-8420D01*
X6049Y-8362D01*
X6050Y-8295D01*
X6038Y-8237D01*
X6016Y-8183D01*
X5983Y-8134D01*
X5942Y-8092D01*
X5893Y-8059D01*
X5890Y-8058D01*
X5890Y-7108D01*
X5903Y-7103D01*
X5978Y-7056D01*
X6042Y-6995D01*
X6093Y-6923D01*
X6129Y-6842D01*
X6148Y-6756D01*
X6150Y-6655D01*
X6132Y-6569D01*
X6099Y-6487D01*
X6050Y-6414D01*
X5988Y-6351D01*
X5915Y-6302D01*
X5833Y-6268D01*
X5747Y-6250D01*
X5659Y-6249D01*
X5572Y-6266D01*
X5490Y-6299D01*
X5416Y-6347D01*
X5353Y-6409D01*
X5303Y-6482D01*
X5268Y-6563D01*
X5250Y-6649D01*
X5249Y-6737D01*
X5265Y-6824D01*
X5297Y-6906D01*
X5345Y-6980D01*
X5406Y-7044D01*
X5479Y-7094D01*
X5510Y-7108D01*
X5510Y-7971D01*
X5493Y-7959D01*
X5439Y-7937D01*
X5381Y-7925D01*
X5322Y-7924D01*
X5264Y-7935D01*
X5210Y-7957D01*
X5161Y-7990D01*
X5119Y-8031D01*
X5085Y-8079D01*
X5074Y-8105D01*
X5043Y-8084D01*
X4989Y-8062D01*
X4931Y-8050D01*
X4872Y-8049D01*
X4814Y-8060D01*
X4760Y-8082D01*
X4711Y-8115D01*
X4669Y-8156D01*
X4637Y-8202D01*
X4608Y-8159D01*
X4567Y-8117D01*
X4518Y-8084D01*
X4464Y-8062D01*
X4406Y-8050D01*
X4368Y-8049D01*
X4834Y-7584D01*
X4845Y-7570D01*
X4856Y-7557D01*
X4857Y-7556D01*
X4857Y-7555D01*
X4866Y-7540D01*
X4874Y-7524D01*
X4874Y-7523D01*
X4875Y-7523D01*
X4880Y-7506D01*
X4885Y-7489D01*
X4885Y-7488D01*
X4886Y-7487D01*
X4888Y-7470D01*
X4889Y-7452D01*
X4889Y-7450D01*
X4889Y-7450D01*
X4889Y-7450D01*
X4890Y-7450D01*
X4890Y-7108D01*
X4903Y-7103D01*
X4978Y-7056D01*
X5042Y-6995D01*
X5093Y-6923D01*
X5129Y-6842D01*
X5148Y-6756D01*
X5150Y-6655D01*
X5132Y-6569D01*
X5099Y-6487D01*
X5050Y-6414D01*
X4988Y-6351D01*
X4915Y-6302D01*
X4833Y-6268D01*
X4747Y-6250D01*
X4659Y-6249D01*
X4572Y-6266D01*
X4490Y-6299D01*
X4416Y-6347D01*
X4353Y-6409D01*
X4303Y-6482D01*
X4268Y-6563D01*
X4250Y-6649D01*
X4249Y-6737D01*
X4265Y-6824D01*
X4297Y-6906D01*
X4345Y-6980D01*
X4406Y-7044D01*
X4479Y-7094D01*
X4510Y-7108D01*
X4510Y-7371D01*
X3915Y-7965D01*
X3904Y-7979D01*
X3893Y-7992D01*
X3892Y-7993D01*
X3892Y-7994D01*
X3890Y-7998D01*
X3890Y-7108D01*
X3903Y-7103D01*
X3978Y-7056D01*
X4042Y-6995D01*
X4093Y-6923D01*
X4129Y-6842D01*
X4148Y-6756D01*
X4150Y-6655D01*
X4150Y-5255D01*
X4132Y-5169D01*
X4099Y-5087D01*
X4050Y-5014D01*
X3988Y-4951D01*
X3915Y-4902D01*
X3833Y-4868D01*
X3747Y-4850D01*
X3659Y-4849D01*
X3572Y-4866D01*
X3490Y-4899D01*
X3416Y-4947D01*
X3353Y-5009D01*
X3303Y-5082D01*
X3268Y-5163D01*
X3250Y-5249D01*
X3249Y-5337D01*
X3265Y-5424D01*
X3297Y-5506D01*
X3345Y-5580D01*
X3406Y-5644D01*
X3479Y-5694D01*
X3560Y-5730D01*
X3646Y-5748D01*
X3734Y-5750D01*
X3821Y-5735D01*
X3903Y-5703D01*
X3978Y-5656D01*
X4042Y-5595D01*
X4093Y-5523D01*
X4129Y-5442D01*
X4148Y-5356D01*
X4150Y-5255D01*
X4150Y-6655D01*
X4132Y-6569D01*
X4099Y-6487D01*
X4050Y-6414D01*
X3988Y-6351D01*
X3915Y-6302D01*
X3833Y-6268D01*
X3747Y-6250D01*
X3659Y-6249D01*
X3572Y-6266D01*
X3490Y-6299D01*
X3416Y-6347D01*
X3353Y-6409D01*
X3303Y-6482D01*
X3268Y-6563D01*
X3250Y-6649D01*
X3249Y-6737D01*
X3265Y-6824D01*
X3297Y-6906D01*
X3345Y-6980D01*
X3406Y-7044D01*
X3479Y-7094D01*
X3510Y-7108D01*
X3510Y-9475D01*
X3510Y-9475D01*
X2890Y-8847D01*
X2890Y-7108D01*
X2903Y-7103D01*
X2978Y-7056D01*
X3042Y-6995D01*
X3093Y-6923D01*
X3129Y-6842D01*
X3148Y-6756D01*
X3150Y-6655D01*
X3132Y-6569D01*
X3099Y-6487D01*
X3050Y-6414D01*
X2988Y-6351D01*
X2915Y-6302D01*
X2833Y-6268D01*
X2747Y-6250D01*
X2659Y-6249D01*
X2572Y-6266D01*
X2490Y-6299D01*
X2416Y-6347D01*
X2353Y-6409D01*
X2303Y-6482D01*
X2268Y-6563D01*
X2250Y-6649D01*
X2249Y-6737D01*
X2265Y-6824D01*
X2297Y-6906D01*
X2345Y-6980D01*
X2406Y-7044D01*
X2479Y-7094D01*
X2510Y-7108D01*
X2510Y-8866D01*
X1890Y-8246D01*
X1890Y-7108D01*
X1903Y-7103D01*
X1978Y-7056D01*
X2042Y-6995D01*
X2093Y-6923D01*
X2129Y-6842D01*
X2148Y-6756D01*
X2150Y-6655D01*
X2150Y-5255D01*
X2132Y-5169D01*
X2099Y-5087D01*
X2076Y-5053D01*
X2076Y-2981D01*
X2049Y-2846D01*
X1997Y-2719D01*
X1921Y-2604D01*
X1824Y-2507D01*
X1710Y-2430D01*
X1583Y-2376D01*
X1448Y-2349D01*
X1311Y-2348D01*
X1176Y-2374D01*
X1048Y-2425D01*
X933Y-2500D01*
X835Y-2597D01*
X757Y-2710D01*
X703Y-2836D01*
X674Y-2971D01*
X672Y-3108D01*
X697Y-3244D01*
X748Y-3372D01*
X822Y-3487D01*
X918Y-3586D01*
X1031Y-3665D01*
X1157Y-3720D01*
X1291Y-3749D01*
X1429Y-3752D01*
X1564Y-3728D01*
X1692Y-3678D01*
X1808Y-3605D01*
X1908Y-3510D01*
X1987Y-3398D01*
X2043Y-3272D01*
X2074Y-3138D01*
X2076Y-2981D01*
X2076Y-5053D01*
X2050Y-5014D01*
X1988Y-4951D01*
X1915Y-4902D01*
X1833Y-4868D01*
X1747Y-4850D01*
X1659Y-4849D01*
X1572Y-4866D01*
X1490Y-4899D01*
X1416Y-4947D01*
X1353Y-5009D01*
X1303Y-5082D01*
X1268Y-5163D01*
X1250Y-5249D01*
X1249Y-5337D01*
X1265Y-5424D01*
X1297Y-5506D01*
X1345Y-5580D01*
X1406Y-5644D01*
X1479Y-5694D01*
X1560Y-5730D01*
X1646Y-5748D01*
X1734Y-5750D01*
X1821Y-5735D01*
X1903Y-5703D01*
X1978Y-5656D01*
X2042Y-5595D01*
X2093Y-5523D01*
X2129Y-5442D01*
X2148Y-5356D01*
X2150Y-5255D01*
X2150Y-6655D01*
X2132Y-6569D01*
X2099Y-6487D01*
X2050Y-6414D01*
X1988Y-6351D01*
X1915Y-6302D01*
X1833Y-6268D01*
X1747Y-6250D01*
X1659Y-6249D01*
X1572Y-6266D01*
X1490Y-6299D01*
X1416Y-6347D01*
X1353Y-6409D01*
X1303Y-6482D01*
X1268Y-6563D01*
X1250Y-6649D01*
X1249Y-6737D01*
X1265Y-6824D01*
X1297Y-6906D01*
X1345Y-6980D01*
X1406Y-7044D01*
X1479Y-7094D01*
X1510Y-7108D01*
X1510Y-8241D01*
X1123Y-7854D01*
X1129Y-7842D01*
X1148Y-7756D01*
X1150Y-7655D01*
X1150Y-6655D01*
X1132Y-6569D01*
X1099Y-6487D01*
X1050Y-6414D01*
X988Y-6351D01*
X915Y-6302D01*
X833Y-6268D01*
X747Y-6250D01*
X659Y-6249D01*
X572Y-6266D01*
X490Y-6299D01*
X416Y-6347D01*
X353Y-6409D01*
X303Y-6482D01*
X268Y-6563D01*
X250Y-6649D01*
X249Y-6737D01*
X265Y-6824D01*
X297Y-6906D01*
X345Y-6980D01*
X406Y-7044D01*
X479Y-7094D01*
X560Y-7130D01*
X646Y-7148D01*
X734Y-7150D01*
X821Y-7135D01*
X903Y-7103D01*
X978Y-7056D01*
X1042Y-6995D01*
X1093Y-6923D01*
X1129Y-6842D01*
X1148Y-6756D01*
X1150Y-6655D01*
X1150Y-7655D01*
X1132Y-7569D01*
X1099Y-7487D01*
X1050Y-7414D01*
X988Y-7351D01*
X915Y-7302D01*
X833Y-7268D01*
X747Y-7250D01*
X659Y-7249D01*
X572Y-7266D01*
X490Y-7299D01*
X416Y-7347D01*
X353Y-7409D01*
X303Y-7482D01*
X268Y-7563D01*
X250Y-7649D01*
X249Y-7737D01*
X265Y-7824D01*
X297Y-7906D01*
X345Y-7980D01*
X406Y-8044D01*
X479Y-8094D01*
X560Y-8130D01*
X646Y-8148D01*
X734Y-8150D01*
X821Y-8135D01*
X854Y-8122D01*
X3035Y-10303D01*
X3035Y-12666D01*
X2994Y-12706D01*
X2960Y-12754D01*
X2937Y-12808D01*
X2925Y-12866D01*
X2924Y-12925D01*
X2935Y-12983D01*
X2956Y-13037D01*
X2988Y-13087D01*
X3029Y-13129D01*
X3077Y-13163D01*
X3131Y-13186D01*
X3189Y-13199D01*
X3248Y-13200D01*
X3306Y-13190D01*
X3360Y-13169D01*
X3410Y-13137D01*
X3453Y-13096D01*
X3487Y-13048D01*
X3511Y-12995D01*
X3524Y-12937D01*
X3525Y-12870D01*
X3513Y-12812D01*
X3491Y-12758D01*
X3458Y-12709D01*
X3417Y-12667D01*
X3415Y-12666D01*
X3415Y-10308D01*
X4140Y-11034D01*
X4154Y-11045D01*
X4167Y-11056D01*
X4168Y-11057D01*
X4169Y-11057D01*
X4184Y-11066D01*
X4200Y-11074D01*
X4201Y-11074D01*
X4201Y-11075D01*
X4218Y-11080D01*
X4235Y-11085D01*
X4236Y-11085D01*
X4237Y-11086D01*
X4254Y-11088D01*
X4272Y-11089D01*
X4274Y-11089D01*
X4274Y-11089D01*
X4274Y-11089D01*
X4275Y-11090D01*
X6241Y-11090D01*
X6279Y-11129D01*
X6327Y-11163D01*
X6381Y-11186D01*
X6439Y-11199D01*
X6498Y-11200D01*
X6556Y-11190D01*
X6610Y-11169D01*
X6660Y-11137D01*
X6703Y-11096D01*
X6737Y-11048D01*
X6761Y-10995D01*
X6774Y-10937D01*
X6775Y-10870D01*
X6763Y-10812D01*
X6741Y-10758D01*
X6708Y-10709D01*
X6667Y-10667D01*
X6618Y-10634D01*
X6564Y-10612D01*
X6506Y-10600D01*
X6474Y-10599D01*
X6474Y-10550D01*
X6498Y-10550D01*
X6556Y-10540D01*
X6610Y-10519D01*
X6660Y-10487D01*
X6703Y-10446D01*
X6737Y-10398D01*
X6761Y-10345D01*
X6774Y-10287D01*
X6775Y-10220D01*
X6763Y-10162D01*
X6741Y-10108D01*
X6708Y-10059D01*
X6667Y-10017D01*
X6618Y-9984D01*
X6564Y-9962D01*
X6506Y-9950D01*
X6474Y-9949D01*
X6475Y-9920D01*
X6463Y-9862D01*
X6443Y-9815D01*
X8546Y-9815D01*
X9276Y-10545D01*
X9268Y-10563D01*
X9250Y-10649D01*
X9249Y-10737D01*
X9265Y-10824D01*
X9297Y-10906D01*
X9345Y-10980D01*
X9406Y-11044D01*
X9479Y-11094D01*
X9560Y-11130D01*
X9646Y-11148D01*
X9734Y-11150D01*
X9821Y-11135D01*
X9903Y-11103D01*
X9978Y-11056D01*
X10042Y-10995D01*
X10093Y-10923D01*
X10129Y-10842D01*
X10148Y-10756D01*
X10150Y-10655D01*
X10150Y-11655D01*
X10132Y-11569D01*
X10099Y-11487D01*
X10050Y-11414D01*
X9988Y-11351D01*
X9915Y-11302D01*
X9833Y-11268D01*
X9747Y-11250D01*
X9659Y-11249D01*
X9572Y-11266D01*
X9490Y-11299D01*
X9416Y-11347D01*
X9353Y-11409D01*
X9303Y-11482D01*
X9268Y-11563D01*
X9250Y-11649D01*
X9249Y-11737D01*
X9265Y-11824D01*
X9297Y-11906D01*
X9345Y-11980D01*
X9406Y-12044D01*
X9479Y-12094D01*
X9560Y-12130D01*
X9646Y-12148D01*
X9734Y-12150D01*
X9821Y-12135D01*
X9903Y-12103D01*
X9978Y-12056D01*
X10042Y-11995D01*
X10093Y-11923D01*
X10129Y-11842D01*
X10148Y-11756D01*
X10150Y-11655D01*
X10150Y-12655D01*
X10132Y-12569D01*
X10099Y-12487D01*
X10050Y-12414D01*
X9988Y-12351D01*
X9915Y-12302D01*
X9833Y-12268D01*
X9747Y-12250D01*
X9659Y-12249D01*
X9572Y-12266D01*
X9490Y-12299D01*
X9416Y-12347D01*
X9353Y-12409D01*
X9303Y-12482D01*
X9268Y-12563D01*
X9250Y-12649D01*
X9249Y-12737D01*
X9265Y-12824D01*
X9297Y-12906D01*
X9345Y-12980D01*
X9406Y-13044D01*
X9479Y-13094D01*
X9560Y-13130D01*
X9646Y-13148D01*
X9734Y-13150D01*
X9821Y-13135D01*
X9903Y-13103D01*
X9978Y-13056D01*
X10042Y-12995D01*
X10093Y-12923D01*
X10129Y-12842D01*
X10148Y-12756D01*
X10150Y-12655D01*
X10150Y-13655D01*
X10132Y-13569D01*
X10099Y-13487D01*
X10050Y-13414D01*
X9988Y-13351D01*
X9915Y-13302D01*
X9833Y-13268D01*
X9747Y-13250D01*
X9659Y-13249D01*
X9572Y-13266D01*
X9490Y-13299D01*
X9416Y-13347D01*
X9353Y-13409D01*
X9303Y-13482D01*
X9268Y-13563D01*
X9250Y-13649D01*
X9249Y-13737D01*
X9265Y-13824D01*
X9297Y-13906D01*
X9345Y-13980D01*
X9406Y-14044D01*
X9479Y-14094D01*
X9560Y-14130D01*
X9646Y-14148D01*
X9734Y-14150D01*
X9821Y-14135D01*
X9903Y-14103D01*
X9978Y-14056D01*
X10042Y-13995D01*
X10093Y-13923D01*
X10129Y-13842D01*
X10148Y-13756D01*
X10150Y-13655D01*
X10150Y-14655D01*
X10132Y-14569D01*
X10099Y-14487D01*
X10050Y-14414D01*
X9988Y-14351D01*
X9915Y-14302D01*
X9833Y-14268D01*
X9747Y-14250D01*
X9659Y-14249D01*
X9572Y-14266D01*
X9490Y-14299D01*
X9416Y-14347D01*
X9353Y-14409D01*
X9303Y-14482D01*
X9268Y-14563D01*
X9250Y-14649D01*
X9249Y-14737D01*
X9265Y-14824D01*
X9297Y-14906D01*
X9345Y-14980D01*
X9406Y-15044D01*
X9479Y-15094D01*
X9560Y-15130D01*
X9646Y-15148D01*
X9734Y-15150D01*
X9821Y-15135D01*
X9903Y-15103D01*
X9978Y-15056D01*
X10042Y-14995D01*
X10093Y-14923D01*
X10129Y-14842D01*
X10148Y-14756D01*
X10150Y-14655D01*
X10150Y-15662D01*
X10136Y-15581D01*
X10105Y-15499D01*
X10092Y-15476D01*
X10026Y-15444D01*
X9955Y-15514D01*
X9955Y-15373D01*
X9923Y-15307D01*
X9843Y-15271D01*
X9757Y-15251D01*
X9668Y-15248D01*
X9581Y-15263D01*
X9499Y-15294D01*
X9476Y-15307D01*
X9444Y-15373D01*
X9700Y-15629D01*
X9955Y-15373D01*
X9955Y-15514D01*
X9770Y-15700D01*
X10026Y-15955D01*
X10092Y-15923D01*
X10128Y-15843D01*
X10148Y-15757D01*
X10151Y-15668D01*
X10151Y-19258D01*
X10128Y-19301D01*
X10094Y-19343D01*
X10053Y-19377D01*
X10006Y-19402D01*
X9955Y-19418D01*
X9955Y-16026D01*
X9700Y-15770D01*
X9629Y-15841D01*
X9629Y-15700D01*
X9373Y-15444D01*
X9307Y-15476D01*
X9271Y-15556D01*
X9251Y-15642D01*
X9248Y-15731D01*
X9263Y-15818D01*
X9294Y-15900D01*
X9307Y-15923D01*
X9373Y-15955D01*
X9629Y-15700D01*
X9629Y-15841D01*
X9444Y-16026D01*
X9476Y-16092D01*
X9556Y-16128D01*
X9642Y-16148D01*
X9731Y-16151D01*
X9818Y-16136D01*
X9900Y-16105D01*
X9923Y-16092D01*
X9955Y-16026D01*
X9955Y-19418D01*
X9955Y-19418D01*
X9891Y-19425D01*
X9726Y-19425D01*
X9726Y-18206D01*
X9699Y-18071D01*
X9647Y-17944D01*
X9571Y-17829D01*
X9474Y-17732D01*
X9360Y-17655D01*
X9233Y-17601D01*
X9098Y-17574D01*
X8961Y-17573D01*
X8826Y-17599D01*
X8698Y-17650D01*
X8583Y-17725D01*
X8485Y-17822D01*
X8407Y-17935D01*
X8353Y-18061D01*
X8324Y-18196D01*
X8322Y-18333D01*
X8347Y-18469D01*
X8398Y-18597D01*
X8472Y-18712D01*
X8568Y-18811D01*
X8681Y-18890D01*
X8807Y-18945D01*
X8941Y-18974D01*
X9079Y-18977D01*
X9214Y-18953D01*
X9342Y-18903D01*
X9458Y-18830D01*
X9558Y-18735D01*
X9637Y-18623D01*
X9693Y-18497D01*
X9724Y-18363D01*
X9726Y-18206D01*
X9726Y-19425D01*
X8150Y-19425D01*
X8150Y-15655D01*
X8132Y-15569D01*
X8099Y-15487D01*
X8050Y-15414D01*
X7988Y-15351D01*
X7915Y-15302D01*
X7833Y-15268D01*
X7747Y-15250D01*
X7659Y-15249D01*
X7572Y-15266D01*
X7545Y-15276D01*
X6340Y-14071D01*
X6340Y-12933D01*
X6378Y-12896D01*
X6412Y-12848D01*
X6436Y-12795D01*
X6449Y-12737D01*
X6450Y-12670D01*
X6438Y-12612D01*
X6416Y-12558D01*
X6383Y-12509D01*
X6342Y-12467D01*
X6293Y-12434D01*
X6239Y-12412D01*
X6181Y-12400D01*
X6122Y-12399D01*
X6064Y-12410D01*
X6010Y-12432D01*
X5961Y-12465D01*
X5919Y-12506D01*
X5885Y-12554D01*
X5862Y-12608D01*
X5850Y-12666D01*
X5849Y-12725D01*
X5860Y-12783D01*
X5881Y-12837D01*
X5913Y-12887D01*
X5954Y-12929D01*
X5960Y-12933D01*
X5960Y-14150D01*
X5961Y-14167D01*
X5963Y-14184D01*
X5963Y-14185D01*
X5963Y-14186D01*
X5968Y-14203D01*
X5973Y-14220D01*
X5974Y-14221D01*
X5974Y-14222D01*
X5982Y-14237D01*
X5990Y-14253D01*
X5991Y-14254D01*
X5991Y-14255D01*
X6002Y-14268D01*
X6013Y-14282D01*
X6015Y-14283D01*
X6015Y-14283D01*
X6015Y-14283D01*
X6015Y-14284D01*
X7276Y-15545D01*
X7268Y-15563D01*
X7250Y-15649D01*
X7249Y-15737D01*
X7265Y-15824D01*
X7297Y-15906D01*
X7345Y-15980D01*
X7406Y-16044D01*
X7479Y-16094D01*
X7560Y-16130D01*
X7646Y-16148D01*
X7734Y-16150D01*
X7821Y-16135D01*
X7903Y-16103D01*
X7978Y-16056D01*
X8042Y-15995D01*
X8093Y-15923D01*
X8129Y-15842D01*
X8148Y-15756D01*
X8150Y-15655D01*
X8150Y-19425D01*
X7285Y-19425D01*
X7285Y-18415D01*
X7266Y-18415D01*
X7262Y-18405D01*
X7245Y-18380D01*
X7225Y-18359D01*
X7200Y-18343D01*
X7173Y-18331D01*
X7151Y-18327D01*
X7151Y-15668D01*
X7136Y-15581D01*
X7105Y-15499D01*
X7092Y-15476D01*
X7026Y-15444D01*
X6955Y-15514D01*
X6955Y-15373D01*
X6923Y-15307D01*
X6843Y-15271D01*
X6757Y-15251D01*
X6668Y-15248D01*
X6581Y-15263D01*
X6499Y-15294D01*
X6476Y-15307D01*
X6444Y-15373D01*
X6700Y-15629D01*
X6955Y-15373D01*
X6955Y-15514D01*
X6770Y-15700D01*
X7026Y-15955D01*
X7092Y-15923D01*
X7128Y-15843D01*
X7148Y-15757D01*
X7151Y-15668D01*
X7151Y-18327D01*
X7144Y-18326D01*
X7115Y-18325D01*
X6983Y-18325D01*
X6983Y-18305D01*
X6983Y-17516D01*
X6977Y-17487D01*
X6966Y-17460D01*
X6955Y-17444D01*
X6955Y-16026D01*
X6700Y-15770D01*
X6629Y-15841D01*
X6629Y-15700D01*
X6373Y-15444D01*
X6307Y-15476D01*
X6271Y-15556D01*
X6251Y-15642D01*
X6248Y-15731D01*
X6263Y-15818D01*
X6294Y-15900D01*
X6307Y-15923D01*
X6373Y-15955D01*
X6629Y-15700D01*
X6629Y-15841D01*
X6444Y-16026D01*
X6476Y-16092D01*
X6556Y-16128D01*
X6642Y-16148D01*
X6731Y-16151D01*
X6818Y-16136D01*
X6900Y-16105D01*
X6923Y-16092D01*
X6955Y-16026D01*
X6955Y-17444D01*
X6950Y-17436D01*
X6929Y-17415D01*
X6905Y-17398D01*
X6877Y-17387D01*
X6849Y-17381D01*
X6819Y-17381D01*
X6060Y-17381D01*
X6060Y-17379D01*
X5390Y-17380D01*
X5390Y-16026D01*
X5406Y-16044D01*
X5479Y-16094D01*
X5560Y-16130D01*
X5646Y-16148D01*
X5734Y-16150D01*
X5821Y-16135D01*
X5903Y-16103D01*
X5978Y-16056D01*
X6042Y-15995D01*
X6093Y-15923D01*
X6129Y-15842D01*
X6148Y-15756D01*
X6150Y-15655D01*
X6132Y-15569D01*
X6099Y-15487D01*
X6050Y-15414D01*
X5988Y-15351D01*
X5915Y-15302D01*
X5833Y-15268D01*
X5747Y-15250D01*
X5659Y-15249D01*
X5572Y-15266D01*
X5490Y-15299D01*
X5416Y-15347D01*
X5353Y-15409D01*
X5303Y-15482D01*
X5268Y-15563D01*
X5262Y-15593D01*
X5149Y-15706D01*
X5150Y-15655D01*
X5132Y-15569D01*
X5099Y-15487D01*
X5050Y-15414D01*
X4988Y-15351D01*
X4915Y-15302D01*
X4833Y-15268D01*
X4747Y-15250D01*
X4659Y-15249D01*
X4572Y-15266D01*
X4490Y-15299D01*
X4416Y-15347D01*
X4353Y-15409D01*
X4303Y-15482D01*
X4268Y-15563D01*
X4250Y-15649D01*
X4249Y-15737D01*
X4265Y-15824D01*
X4297Y-15906D01*
X4345Y-15980D01*
X4406Y-16044D01*
X4479Y-16094D01*
X4560Y-16130D01*
X4646Y-16148D01*
X4734Y-16150D01*
X4754Y-16147D01*
X4754Y-16457D01*
X4131Y-15834D01*
X4148Y-15756D01*
X4150Y-15655D01*
X4132Y-15569D01*
X4099Y-15487D01*
X4050Y-15414D01*
X3988Y-15351D01*
X3915Y-15302D01*
X3833Y-15268D01*
X3747Y-15250D01*
X3659Y-15249D01*
X3572Y-15266D01*
X3490Y-15299D01*
X3416Y-15347D01*
X3353Y-15409D01*
X3303Y-15482D01*
X3268Y-15563D01*
X3250Y-15649D01*
X3249Y-15737D01*
X3265Y-15824D01*
X3297Y-15906D01*
X3345Y-15980D01*
X3406Y-16044D01*
X3479Y-16094D01*
X3560Y-16130D01*
X3646Y-16148D01*
X3734Y-16150D01*
X3821Y-16135D01*
X3833Y-16130D01*
X4479Y-16775D01*
X4479Y-17381D01*
X4411Y-17382D01*
X4408Y-17381D01*
X4183Y-17381D01*
X4183Y-17380D01*
X3893Y-17381D01*
X3892Y-17381D01*
X3551Y-17381D01*
X3523Y-17387D01*
X3495Y-17398D01*
X3471Y-17414D01*
X3450Y-17435D01*
X3434Y-17459D01*
X3422Y-17486D01*
X3416Y-17515D01*
X3416Y-17544D01*
X3416Y-17837D01*
X3454Y-17875D01*
X3930Y-17875D01*
X3930Y-17581D01*
X4030Y-17581D01*
X4030Y-17875D01*
X4037Y-17875D01*
X4037Y-17975D01*
X4030Y-17975D01*
X4030Y-17982D01*
X3930Y-17982D01*
X3930Y-17975D01*
X3454Y-17975D01*
X3416Y-18012D01*
X3416Y-18305D01*
X3416Y-18325D01*
X3256Y-18325D01*
X3227Y-18331D01*
X3200Y-18342D01*
X3175Y-18359D01*
X3154Y-18379D01*
X3138Y-18404D01*
X3127Y-18429D01*
X3120Y-18429D01*
X3120Y-19425D01*
X2375Y-19425D01*
X2375Y-11795D01*
X2363Y-11737D01*
X2341Y-11683D01*
X2308Y-11634D01*
X2267Y-11592D01*
X2218Y-11559D01*
X2164Y-11537D01*
X2106Y-11525D01*
X2049Y-11524D01*
X2050Y-11495D01*
X2038Y-11437D01*
X2016Y-11383D01*
X1983Y-11334D01*
X1942Y-11292D01*
X1893Y-11259D01*
X1839Y-11237D01*
X1781Y-11225D01*
X1722Y-11224D01*
X1664Y-11235D01*
X1610Y-11257D01*
X1561Y-11290D01*
X1519Y-11331D01*
X1516Y-11335D01*
X1450Y-11335D01*
X1432Y-11336D01*
X1415Y-11338D01*
X1414Y-11338D01*
X1413Y-11338D01*
X1396Y-11343D01*
X1379Y-11348D01*
X1378Y-11349D01*
X1377Y-11349D01*
X1362Y-11357D01*
X1346Y-11365D01*
X1345Y-11366D01*
X1344Y-11366D01*
X1331Y-11377D01*
X1317Y-11388D01*
X1316Y-11390D01*
X1316Y-11390D01*
X1316Y-11390D01*
X1315Y-11390D01*
X1150Y-11556D01*
X1150Y-10655D01*
X1150Y-9655D01*
X1150Y-8655D01*
X1132Y-8569D01*
X1099Y-8487D01*
X1050Y-8414D01*
X988Y-8351D01*
X915Y-8302D01*
X833Y-8268D01*
X747Y-8250D01*
X659Y-8249D01*
X572Y-8266D01*
X490Y-8299D01*
X416Y-8347D01*
X353Y-8409D01*
X303Y-8482D01*
X268Y-8563D01*
X250Y-8649D01*
X249Y-8737D01*
X265Y-8824D01*
X297Y-8906D01*
X345Y-8980D01*
X406Y-9044D01*
X479Y-9094D01*
X560Y-9130D01*
X646Y-9148D01*
X734Y-9150D01*
X821Y-9135D01*
X903Y-9103D01*
X978Y-9056D01*
X1042Y-8995D01*
X1093Y-8923D01*
X1129Y-8842D01*
X1148Y-8756D01*
X1150Y-8655D01*
X1150Y-9655D01*
X1132Y-9569D01*
X1099Y-9487D01*
X1050Y-9414D01*
X988Y-9351D01*
X915Y-9302D01*
X833Y-9268D01*
X747Y-9250D01*
X659Y-9249D01*
X572Y-9266D01*
X490Y-9299D01*
X416Y-9347D01*
X353Y-9409D01*
X303Y-9482D01*
X268Y-9563D01*
X250Y-9649D01*
X249Y-9737D01*
X265Y-9824D01*
X297Y-9906D01*
X345Y-9980D01*
X406Y-10044D01*
X479Y-10094D01*
X560Y-10130D01*
X646Y-10148D01*
X734Y-10150D01*
X821Y-10135D01*
X903Y-10103D01*
X978Y-10056D01*
X1042Y-9995D01*
X1093Y-9923D01*
X1129Y-9842D01*
X1148Y-9756D01*
X1150Y-9655D01*
X1150Y-10655D01*
X1132Y-10569D01*
X1099Y-10487D01*
X1050Y-10414D01*
X988Y-10351D01*
X915Y-10302D01*
X833Y-10268D01*
X747Y-10250D01*
X659Y-10249D01*
X572Y-10266D01*
X490Y-10299D01*
X416Y-10347D01*
X353Y-10409D01*
X303Y-10482D01*
X268Y-10563D01*
X250Y-10649D01*
X249Y-10737D01*
X265Y-10824D01*
X297Y-10906D01*
X345Y-10980D01*
X406Y-11044D01*
X479Y-11094D01*
X560Y-11130D01*
X646Y-11148D01*
X734Y-11150D01*
X821Y-11135D01*
X903Y-11103D01*
X978Y-11056D01*
X1042Y-10995D01*
X1093Y-10923D01*
X1129Y-10842D01*
X1148Y-10756D01*
X1150Y-10655D01*
X1150Y-11556D01*
X1133Y-11572D01*
X1132Y-11569D01*
X1099Y-11487D01*
X1050Y-11414D01*
X988Y-11351D01*
X915Y-11302D01*
X833Y-11268D01*
X747Y-11250D01*
X659Y-11249D01*
X572Y-11266D01*
X490Y-11299D01*
X416Y-11347D01*
X353Y-11409D01*
X303Y-11482D01*
X268Y-11563D01*
X250Y-11649D01*
X249Y-11737D01*
X265Y-11824D01*
X297Y-11906D01*
X345Y-11980D01*
X406Y-12044D01*
X479Y-12094D01*
X560Y-12130D01*
X646Y-12148D01*
X734Y-12150D01*
X821Y-12135D01*
X903Y-12103D01*
X978Y-12056D01*
X1010Y-12026D01*
X1010Y-12300D01*
X1010Y-12373D01*
X988Y-12351D01*
X915Y-12302D01*
X833Y-12268D01*
X747Y-12250D01*
X659Y-12249D01*
X572Y-12266D01*
X490Y-12299D01*
X416Y-12347D01*
X353Y-12409D01*
X303Y-12482D01*
X268Y-12563D01*
X250Y-12649D01*
X249Y-12737D01*
X265Y-12824D01*
X297Y-12906D01*
X345Y-12980D01*
X406Y-13044D01*
X479Y-13094D01*
X560Y-13130D01*
X646Y-13148D01*
X734Y-13150D01*
X821Y-13135D01*
X903Y-13103D01*
X978Y-13056D01*
X1010Y-13026D01*
X1010Y-13373D01*
X988Y-13351D01*
X915Y-13302D01*
X833Y-13268D01*
X747Y-13250D01*
X659Y-13249D01*
X572Y-13266D01*
X490Y-13299D01*
X416Y-13347D01*
X353Y-13409D01*
X303Y-13482D01*
X268Y-13563D01*
X250Y-13649D01*
X249Y-13737D01*
X265Y-13824D01*
X297Y-13906D01*
X345Y-13980D01*
X406Y-14044D01*
X479Y-14094D01*
X560Y-14130D01*
X646Y-14148D01*
X734Y-14150D01*
X821Y-14135D01*
X903Y-14103D01*
X978Y-14056D01*
X1010Y-14026D01*
X1010Y-14341D01*
X993Y-14357D01*
X988Y-14351D01*
X915Y-14302D01*
X833Y-14268D01*
X747Y-14250D01*
X659Y-14249D01*
X572Y-14266D01*
X490Y-14299D01*
X416Y-14347D01*
X353Y-14409D01*
X303Y-14482D01*
X268Y-14563D01*
X250Y-14649D01*
X249Y-14737D01*
X265Y-14824D01*
X297Y-14906D01*
X345Y-14980D01*
X406Y-15044D01*
X479Y-15094D01*
X560Y-15130D01*
X646Y-15148D01*
X734Y-15150D01*
X821Y-15135D01*
X903Y-15103D01*
X978Y-15056D01*
X1042Y-14995D01*
X1093Y-14923D01*
X1129Y-14842D01*
X1148Y-14756D01*
X1148Y-14739D01*
X1260Y-14628D01*
X1260Y-14871D01*
X854Y-15276D01*
X833Y-15268D01*
X747Y-15250D01*
X659Y-15249D01*
X572Y-15266D01*
X490Y-15299D01*
X416Y-15347D01*
X353Y-15409D01*
X303Y-15482D01*
X268Y-15563D01*
X250Y-15649D01*
X249Y-15737D01*
X265Y-15824D01*
X297Y-15906D01*
X345Y-15980D01*
X406Y-16044D01*
X479Y-16094D01*
X560Y-16130D01*
X646Y-16148D01*
X734Y-16150D01*
X821Y-16135D01*
X903Y-16103D01*
X978Y-16056D01*
X1042Y-15995D01*
X1093Y-15923D01*
X1129Y-15842D01*
X1148Y-15756D01*
X1150Y-15655D01*
X1132Y-15569D01*
X1123Y-15545D01*
X1510Y-15158D01*
X1510Y-15291D01*
X1490Y-15299D01*
X1416Y-15347D01*
X1353Y-15409D01*
X1303Y-15482D01*
X1268Y-15563D01*
X1250Y-15649D01*
X1249Y-15737D01*
X1265Y-15824D01*
X1297Y-15906D01*
X1345Y-15980D01*
X1406Y-16044D01*
X1479Y-16094D01*
X1560Y-16130D01*
X1646Y-16148D01*
X1734Y-16150D01*
X1821Y-16135D01*
X1903Y-16103D01*
X1978Y-16056D01*
X2042Y-15995D01*
X2093Y-15923D01*
X2129Y-15842D01*
X2148Y-15756D01*
X2150Y-15655D01*
X2132Y-15569D01*
X2099Y-15487D01*
X2050Y-15414D01*
X1988Y-15351D01*
X1915Y-15302D01*
X1890Y-15291D01*
X1890Y-12416D01*
X1935Y-12387D01*
X1978Y-12346D01*
X2012Y-12298D01*
X2036Y-12245D01*
X2049Y-12187D01*
X2049Y-12124D01*
X2098Y-12125D01*
X2156Y-12115D01*
X2210Y-12094D01*
X2260Y-12062D01*
X2303Y-12021D01*
X2337Y-11973D01*
X2361Y-11920D01*
X2374Y-11862D01*
X2375Y-11795D01*
X2375Y-19425D01*
X2076Y-19425D01*
X2076Y-18206D01*
X2049Y-18071D01*
X1997Y-17944D01*
X1921Y-17829D01*
X1824Y-17732D01*
X1710Y-17655D01*
X1583Y-17601D01*
X1448Y-17574D01*
X1311Y-17573D01*
X1176Y-17599D01*
X1048Y-17650D01*
X933Y-17725D01*
X835Y-17822D01*
X757Y-17935D01*
X703Y-18061D01*
X674Y-18196D01*
X672Y-18333D01*
X697Y-18469D01*
X748Y-18597D01*
X822Y-18712D01*
X918Y-18811D01*
X1031Y-18890D01*
X1157Y-18945D01*
X1291Y-18974D01*
X1429Y-18977D01*
X1564Y-18953D01*
X1692Y-18903D01*
X1808Y-18830D01*
X1908Y-18735D01*
X1987Y-18623D01*
X2043Y-18497D01*
X2074Y-18363D01*
X2076Y-18206D01*
X2076Y-19425D01*
X511Y-19425D01*
X446Y-19418D01*
X395Y-19403D01*
X348Y-19378D01*
X306Y-19344D01*
X272Y-19303D01*
X247Y-19256D01*
X231Y-19205D01*
X225Y-19141D01*
X225Y-511D01*
X231Y-446D01*
X246Y-395D01*
X271Y-348D01*
X305Y-306D01*
X346Y-272D01*
X393Y-247D01*
X444Y-231D01*
X508Y-225D01*
X9888Y-225D01*
X9953Y-231D01*
X10004Y-246D01*
X10051Y-271D01*
X10093Y-305D01*
X10127Y-346D01*
X10152Y-393D01*
X10168Y-444D01*
X10175Y-508D01*
X10175Y-19138D01*
X10175Y-19138D01*
G37*
G54D22*
X10175Y-19138D02*
X10168Y-19203D01*
X10153Y-19254D01*
X10151Y-19258D01*
X10151Y-15668D01*
X10151Y-6668D01*
X10136Y-6581D01*
X10105Y-6499D01*
X10092Y-6476D01*
X10026Y-6444D01*
X9955Y-6514D01*
X9955Y-6373D01*
X9923Y-6307D01*
X9843Y-6271D01*
X9757Y-6251D01*
X9726Y-6250D01*
X9726Y-2981D01*
X9699Y-2846D01*
X9647Y-2719D01*
X9571Y-2604D01*
X9474Y-2507D01*
X9360Y-2430D01*
X9233Y-2376D01*
X9098Y-2349D01*
X8961Y-2348D01*
X8826Y-2374D01*
X8698Y-2425D01*
X8637Y-2465D01*
X8637Y-1338D01*
X8607Y-1188D01*
X8549Y-1047D01*
X8464Y-919D01*
X8357Y-811D01*
X8230Y-725D01*
X8089Y-666D01*
X7939Y-635D01*
X7786Y-634D01*
X7636Y-663D01*
X7494Y-720D01*
X7366Y-804D01*
X7257Y-911D01*
X7170Y-1037D01*
X7110Y-1177D01*
X7078Y-1327D01*
X7076Y-1480D01*
X7104Y-1630D01*
X7160Y-1773D01*
X7243Y-1901D01*
X7349Y-2011D01*
X7475Y-2099D01*
X7615Y-2160D01*
X7764Y-2193D01*
X7917Y-2196D01*
X8068Y-2169D01*
X8210Y-2114D01*
X8339Y-2032D01*
X8450Y-1927D01*
X8538Y-1802D01*
X8601Y-1662D01*
X8634Y-1513D01*
X8637Y-1338D01*
X8637Y-2465D01*
X8583Y-2500D01*
X8485Y-2597D01*
X8407Y-2710D01*
X8353Y-2836D01*
X8324Y-2971D01*
X8322Y-3108D01*
X8347Y-3244D01*
X8398Y-3372D01*
X8472Y-3487D01*
X8568Y-3586D01*
X8681Y-3665D01*
X8807Y-3720D01*
X8941Y-3749D01*
X9079Y-3752D01*
X9214Y-3728D01*
X9342Y-3678D01*
X9458Y-3605D01*
X9558Y-3510D01*
X9637Y-3398D01*
X9693Y-3272D01*
X9724Y-3138D01*
X9726Y-2981D01*
X9726Y-6250D01*
X9668Y-6248D01*
X9581Y-6263D01*
X9499Y-6294D01*
X9476Y-6307D01*
X9444Y-6373D01*
X9700Y-6629D01*
X9955Y-6373D01*
X9955Y-6514D01*
X9770Y-6700D01*
X10026Y-6955D01*
X10092Y-6923D01*
X10128Y-6843D01*
X10148Y-6757D01*
X10151Y-6668D01*
X10151Y-15668D01*
X10150Y-15662D01*
X10150Y-14655D01*
X10150Y-13655D01*
X10150Y-12655D01*
X10150Y-11655D01*
X10150Y-10655D01*
X10132Y-10569D01*
X10099Y-10487D01*
X10050Y-10414D01*
X9988Y-10351D01*
X9915Y-10302D01*
X9833Y-10268D01*
X9747Y-10250D01*
X9659Y-10249D01*
X9572Y-10266D01*
X9545Y-10276D01*
X9158Y-9890D01*
X9291Y-9890D01*
X9297Y-9906D01*
X9345Y-9980D01*
X9406Y-10044D01*
X9479Y-10094D01*
X9560Y-10130D01*
X9646Y-10148D01*
X9734Y-10150D01*
X9821Y-10135D01*
X9903Y-10103D01*
X9978Y-10056D01*
X10042Y-9995D01*
X10093Y-9923D01*
X10129Y-9842D01*
X10148Y-9756D01*
X10150Y-9655D01*
X10132Y-9569D01*
X10099Y-9487D01*
X10050Y-9414D01*
X9988Y-9351D01*
X9915Y-9302D01*
X9833Y-9268D01*
X9747Y-9250D01*
X9659Y-9249D01*
X9572Y-9266D01*
X9490Y-9299D01*
X9416Y-9347D01*
X9353Y-9409D01*
X9303Y-9482D01*
X9291Y-9510D01*
X9128Y-9510D01*
X9008Y-9390D01*
X9225Y-9390D01*
X9242Y-9388D01*
X9259Y-9386D01*
X9260Y-9386D01*
X9261Y-9386D01*
X9278Y-9381D01*
X9295Y-9376D01*
X9296Y-9375D01*
X9297Y-9375D01*
X9312Y-9367D01*
X9328Y-9359D01*
X9329Y-9358D01*
X9330Y-9358D01*
X9343Y-9347D01*
X9357Y-9336D01*
X9358Y-9334D01*
X9358Y-9334D01*
X9358Y-9334D01*
X9359Y-9334D01*
X9563Y-9130D01*
X9646Y-9148D01*
X9734Y-9150D01*
X9821Y-9135D01*
X9903Y-9103D01*
X9978Y-9056D01*
X10042Y-8995D01*
X10093Y-8923D01*
X10129Y-8842D01*
X10148Y-8756D01*
X10150Y-8655D01*
X10150Y-7655D01*
X10132Y-7569D01*
X10099Y-7487D01*
X10050Y-7414D01*
X9988Y-7351D01*
X9955Y-7329D01*
X9955Y-7026D01*
X9700Y-6770D01*
X9629Y-6841D01*
X9629Y-6700D01*
X9373Y-6444D01*
X9307Y-6476D01*
X9271Y-6556D01*
X9251Y-6642D01*
X9248Y-6731D01*
X9263Y-6818D01*
X9294Y-6900D01*
X9307Y-6923D01*
X9373Y-6955D01*
X9629Y-6700D01*
X9629Y-6841D01*
X9444Y-7026D01*
X9476Y-7092D01*
X9556Y-7128D01*
X9642Y-7148D01*
X9731Y-7151D01*
X9818Y-7136D01*
X9900Y-7105D01*
X9923Y-7092D01*
X9955Y-7026D01*
X9955Y-7329D01*
X9915Y-7302D01*
X9833Y-7268D01*
X9747Y-7250D01*
X9659Y-7249D01*
X9572Y-7266D01*
X9490Y-7299D01*
X9416Y-7347D01*
X9353Y-7409D01*
X9303Y-7482D01*
X9268Y-7563D01*
X9250Y-7649D01*
X9249Y-7737D01*
X9265Y-7824D01*
X9297Y-7906D01*
X9345Y-7980D01*
X9406Y-8044D01*
X9479Y-8094D01*
X9560Y-8130D01*
X9646Y-8148D01*
X9734Y-8150D01*
X9821Y-8135D01*
X9903Y-8103D01*
X9978Y-8056D01*
X10042Y-7995D01*
X10093Y-7923D01*
X10129Y-7842D01*
X10148Y-7756D01*
X10150Y-7655D01*
X10150Y-8655D01*
X10132Y-8569D01*
X10099Y-8487D01*
X10050Y-8414D01*
X9988Y-8351D01*
X9915Y-8302D01*
X9833Y-8268D01*
X9747Y-8250D01*
X9659Y-8249D01*
X9572Y-8266D01*
X9490Y-8299D01*
X9416Y-8347D01*
X9353Y-8409D01*
X9303Y-8482D01*
X9268Y-8563D01*
X9250Y-8649D01*
X9249Y-8737D01*
X9265Y-8824D01*
X9284Y-8872D01*
X9146Y-9010D01*
X7958Y-9010D01*
X8134Y-8834D01*
X8145Y-8820D01*
X8156Y-8807D01*
X8157Y-8806D01*
X8157Y-8805D01*
X8166Y-8790D01*
X8174Y-8774D01*
X8174Y-8773D01*
X8175Y-8773D01*
X8180Y-8756D01*
X8185Y-8739D01*
X8185Y-8738D01*
X8186Y-8737D01*
X8188Y-8720D01*
X8189Y-8702D01*
X8189Y-8700D01*
X8189Y-8700D01*
X8189Y-8700D01*
X8190Y-8700D01*
X8190Y-7453D01*
X8527Y-7115D01*
X8560Y-7130D01*
X8646Y-7148D01*
X8734Y-7150D01*
X8821Y-7135D01*
X8903Y-7103D01*
X8978Y-7056D01*
X9042Y-6995D01*
X9093Y-6923D01*
X9129Y-6842D01*
X9148Y-6756D01*
X9150Y-6655D01*
X9150Y-5255D01*
X9132Y-5169D01*
X9099Y-5087D01*
X9050Y-5014D01*
X8988Y-4951D01*
X8915Y-4902D01*
X8833Y-4868D01*
X8747Y-4850D01*
X8659Y-4849D01*
X8572Y-4866D01*
X8490Y-4899D01*
X8416Y-4947D01*
X8353Y-5009D01*
X8303Y-5082D01*
X8268Y-5163D01*
X8250Y-5249D01*
X8249Y-5337D01*
X8265Y-5424D01*
X8297Y-5506D01*
X8345Y-5580D01*
X8406Y-5644D01*
X8479Y-5694D01*
X8560Y-5730D01*
X8646Y-5748D01*
X8734Y-5750D01*
X8821Y-5735D01*
X8903Y-5703D01*
X8978Y-5656D01*
X9042Y-5595D01*
X9093Y-5523D01*
X9129Y-5442D01*
X9148Y-5356D01*
X9150Y-5255D01*
X9150Y-6655D01*
X9132Y-6569D01*
X9099Y-6487D01*
X9050Y-6414D01*
X8988Y-6351D01*
X8915Y-6302D01*
X8833Y-6268D01*
X8747Y-6250D01*
X8659Y-6249D01*
X8572Y-6266D01*
X8490Y-6299D01*
X8416Y-6347D01*
X8353Y-6409D01*
X8303Y-6482D01*
X8268Y-6563D01*
X8250Y-6649D01*
X8249Y-6737D01*
X8265Y-6824D01*
X8269Y-6836D01*
X7890Y-7216D01*
X7890Y-7108D01*
X7903Y-7103D01*
X7978Y-7056D01*
X8042Y-6995D01*
X8093Y-6923D01*
X8129Y-6842D01*
X8148Y-6756D01*
X8150Y-6655D01*
X8150Y-5255D01*
X8132Y-5169D01*
X8099Y-5087D01*
X8050Y-5014D01*
X7988Y-4951D01*
X7915Y-4902D01*
X7833Y-4868D01*
X7747Y-4850D01*
X7659Y-4849D01*
X7572Y-4866D01*
X7490Y-4899D01*
X7416Y-4947D01*
X7353Y-5009D01*
X7303Y-5082D01*
X7268Y-5163D01*
X7250Y-5249D01*
X7249Y-5337D01*
X7265Y-5424D01*
X7297Y-5506D01*
X7345Y-5580D01*
X7406Y-5644D01*
X7479Y-5694D01*
X7560Y-5730D01*
X7646Y-5748D01*
X7734Y-5750D01*
X7821Y-5735D01*
X7903Y-5703D01*
X7978Y-5656D01*
X8042Y-5595D01*
X8093Y-5523D01*
X8129Y-5442D01*
X8148Y-5356D01*
X8150Y-5255D01*
X8150Y-6655D01*
X8132Y-6569D01*
X8099Y-6487D01*
X8050Y-6414D01*
X7988Y-6351D01*
X7915Y-6302D01*
X7833Y-6268D01*
X7747Y-6250D01*
X7659Y-6249D01*
X7572Y-6266D01*
X7490Y-6299D01*
X7416Y-6347D01*
X7353Y-6409D01*
X7303Y-6482D01*
X7268Y-6563D01*
X7250Y-6649D01*
X7249Y-6737D01*
X7265Y-6824D01*
X7297Y-6906D01*
X7345Y-6980D01*
X7406Y-7044D01*
X7479Y-7094D01*
X7510Y-7108D01*
X7510Y-8571D01*
X7431Y-8649D01*
X7400Y-8649D01*
X7197Y-8649D01*
X7211Y-8620D01*
X7224Y-8562D01*
X7225Y-8495D01*
X7213Y-8437D01*
X7191Y-8383D01*
X7158Y-8334D01*
X7117Y-8292D01*
X7068Y-8259D01*
X7014Y-8237D01*
X6956Y-8225D01*
X6897Y-8224D01*
X6894Y-8225D01*
X6890Y-8221D01*
X6890Y-7108D01*
X6903Y-7103D01*
X6978Y-7056D01*
X7042Y-6995D01*
X7093Y-6923D01*
X7129Y-6842D01*
X7148Y-6756D01*
X7150Y-6655D01*
X7150Y-5255D01*
X7132Y-5169D01*
X7099Y-5087D01*
X7050Y-5014D01*
X7003Y-4967D01*
X7003Y-3534D01*
X6985Y-3445D01*
X6951Y-3360D01*
X6900Y-3285D01*
X6836Y-3220D01*
X6760Y-3169D01*
X6676Y-3133D01*
X6587Y-3115D01*
X6496Y-3115D01*
X6406Y-3132D01*
X6322Y-3166D01*
X6245Y-3216D01*
X6240Y-3221D01*
X6240Y-3078D01*
X6313Y-3005D01*
X6394Y-3040D01*
X6483Y-3059D01*
X6574Y-3061D01*
X6664Y-3046D01*
X6749Y-3013D01*
X6826Y-2964D01*
X6892Y-2901D01*
X6944Y-2826D01*
X6981Y-2743D01*
X7002Y-2654D01*
X7003Y-2550D01*
X6985Y-2461D01*
X6951Y-2376D01*
X6900Y-2300D01*
X6836Y-2236D01*
X6760Y-2185D01*
X6676Y-2149D01*
X6587Y-2131D01*
X6496Y-2130D01*
X6406Y-2147D01*
X6322Y-2182D01*
X6245Y-2231D01*
X6180Y-2295D01*
X6129Y-2370D01*
X6125Y-2379D01*
X6124Y-2376D01*
X6073Y-2300D01*
X6009Y-2236D01*
X5979Y-2216D01*
X5979Y-1023D01*
X5950Y-873D01*
X5891Y-732D01*
X5807Y-604D01*
X5699Y-496D01*
X5572Y-410D01*
X5431Y-351D01*
X5281Y-320D01*
X5128Y-319D01*
X4978Y-348D01*
X4836Y-405D01*
X4708Y-489D01*
X4599Y-596D01*
X4513Y-722D01*
X4452Y-863D01*
X4421Y-1012D01*
X4419Y-1165D01*
X4446Y-1316D01*
X4502Y-1458D01*
X4585Y-1586D01*
X4692Y-1696D01*
X4817Y-1784D01*
X4957Y-1845D01*
X5107Y-1878D01*
X5260Y-1881D01*
X5410Y-1854D01*
X5553Y-1799D01*
X5682Y-1717D01*
X5793Y-1612D01*
X5881Y-1487D01*
X5943Y-1347D01*
X5977Y-1198D01*
X5979Y-1023D01*
X5979Y-2216D01*
X5934Y-2185D01*
X5849Y-2149D01*
X5760Y-2131D01*
X5669Y-2130D01*
X5579Y-2147D01*
X5495Y-2182D01*
X5419Y-2231D01*
X5353Y-2295D01*
X5302Y-2370D01*
X5266Y-2454D01*
X5247Y-2543D01*
X5246Y-2635D01*
X5253Y-2677D01*
X5070Y-2860D01*
X5094Y-2826D01*
X5131Y-2743D01*
X5151Y-2654D01*
X5153Y-2550D01*
X5135Y-2461D01*
X5100Y-2376D01*
X5050Y-2300D01*
X4986Y-2236D01*
X4910Y-2185D01*
X4826Y-2149D01*
X4737Y-2131D01*
X4645Y-2130D01*
X4556Y-2147D01*
X4471Y-2182D01*
X4395Y-2231D01*
X4330Y-2295D01*
X4278Y-2370D01*
X4275Y-2379D01*
X4273Y-2376D01*
X4223Y-2300D01*
X4159Y-2236D01*
X4083Y-2185D01*
X3999Y-2149D01*
X3910Y-2131D01*
X3819Y-2130D01*
X3729Y-2147D01*
X3644Y-2182D01*
X3568Y-2231D01*
X3503Y-2295D01*
X3451Y-2370D01*
X3416Y-2454D01*
X3397Y-2543D01*
X3395Y-2635D01*
X3412Y-2724D01*
X3445Y-2809D01*
X3495Y-2886D01*
X3518Y-2910D01*
X3500Y-2910D01*
X3482Y-2911D01*
X3465Y-2913D01*
X3464Y-2913D01*
X3463Y-2913D01*
X3446Y-2918D01*
X3429Y-2923D01*
X3428Y-2924D01*
X3427Y-2924D01*
X3412Y-2932D01*
X3396Y-2940D01*
X3395Y-2941D01*
X3394Y-2941D01*
X3381Y-2952D01*
X3367Y-2963D01*
X3366Y-2965D01*
X3366Y-2965D01*
X3366Y-2965D01*
X3365Y-2965D01*
X3322Y-3008D01*
X3322Y-1338D01*
X3292Y-1188D01*
X3234Y-1047D01*
X3149Y-919D01*
X3042Y-811D01*
X2915Y-725D01*
X2774Y-666D01*
X2624Y-635D01*
X2471Y-634D01*
X2321Y-663D01*
X2179Y-720D01*
X2051Y-804D01*
X1942Y-911D01*
X1855Y-1037D01*
X1795Y-1177D01*
X1763Y-1327D01*
X1761Y-1480D01*
X1789Y-1630D01*
X1845Y-1773D01*
X1928Y-1901D01*
X2034Y-2011D01*
X2160Y-2099D01*
X2300Y-2160D01*
X2449Y-2193D01*
X2602Y-2196D01*
X2753Y-2169D01*
X2895Y-2114D01*
X3025Y-2032D01*
X3135Y-1927D01*
X3223Y-1802D01*
X3286Y-1662D01*
X3320Y-1513D01*
X3322Y-1338D01*
X3322Y-3008D01*
X2915Y-3415D01*
X2904Y-3429D01*
X2893Y-3442D01*
X2892Y-3443D01*
X2892Y-3444D01*
X2883Y-3459D01*
X2875Y-3475D01*
X2875Y-3476D01*
X2874Y-3476D01*
X2869Y-3493D01*
X2864Y-3510D01*
X2864Y-3511D01*
X2863Y-3512D01*
X2861Y-3529D01*
X2860Y-3547D01*
X2860Y-3549D01*
X2860Y-3549D01*
X2860Y-3549D01*
X2860Y-3550D01*
X2860Y-4821D01*
X2816Y-4864D01*
X2747Y-4850D01*
X2659Y-4849D01*
X2572Y-4866D01*
X2490Y-4899D01*
X2416Y-4947D01*
X2353Y-5009D01*
X2303Y-5082D01*
X2268Y-5163D01*
X2250Y-5249D01*
X2249Y-5337D01*
X2265Y-5424D01*
X2297Y-5506D01*
X2345Y-5580D01*
X2406Y-5644D01*
X2479Y-5694D01*
X2560Y-5730D01*
X2646Y-5748D01*
X2734Y-5750D01*
X2821Y-5735D01*
X2903Y-5703D01*
X2978Y-5656D01*
X3042Y-5595D01*
X3093Y-5523D01*
X3129Y-5442D01*
X3148Y-5356D01*
X3150Y-5255D01*
X3132Y-5169D01*
X3108Y-5110D01*
X3184Y-5034D01*
X3195Y-5020D01*
X3206Y-5007D01*
X3207Y-5006D01*
X3207Y-5005D01*
X3216Y-4990D01*
X3224Y-4974D01*
X3224Y-4973D01*
X3225Y-4973D01*
X3230Y-4956D01*
X3235Y-4939D01*
X3235Y-4938D01*
X3236Y-4937D01*
X3238Y-4920D01*
X3239Y-4902D01*
X3239Y-4900D01*
X3239Y-4900D01*
X3239Y-4900D01*
X3240Y-4900D01*
X3240Y-3628D01*
X3412Y-3456D01*
X3397Y-3528D01*
X3395Y-3619D01*
X3412Y-3709D01*
X3445Y-3793D01*
X3495Y-3870D01*
X3558Y-3936D01*
X3633Y-3988D01*
X3717Y-4024D01*
X3806Y-4044D01*
X3897Y-4046D01*
X3987Y-4030D01*
X4072Y-3997D01*
X4149Y-3948D01*
X4215Y-3885D01*
X4267Y-3811D01*
X4274Y-3796D01*
X4322Y-3870D01*
X4385Y-3936D01*
X4460Y-3988D01*
X4498Y-4004D01*
X4498Y-4896D01*
X4490Y-4899D01*
X4416Y-4947D01*
X4353Y-5009D01*
X4303Y-5082D01*
X4268Y-5163D01*
X4250Y-5249D01*
X4249Y-5337D01*
X4265Y-5424D01*
X4297Y-5506D01*
X4345Y-5580D01*
X4406Y-5644D01*
X4479Y-5694D01*
X4560Y-5730D01*
X4646Y-5748D01*
X4734Y-5750D01*
X4821Y-5735D01*
X4903Y-5703D01*
X4978Y-5656D01*
X5042Y-5595D01*
X5093Y-5523D01*
X5129Y-5442D01*
X5148Y-5356D01*
X5150Y-5255D01*
X5132Y-5169D01*
X5099Y-5087D01*
X5050Y-5014D01*
X4988Y-4951D01*
X4915Y-4902D01*
X4878Y-4886D01*
X4878Y-4005D01*
X4898Y-3997D01*
X4975Y-3948D01*
X5041Y-3885D01*
X5094Y-3811D01*
X5121Y-3750D01*
X5138Y-3793D01*
X5188Y-3870D01*
X5251Y-3936D01*
X5326Y-3988D01*
X5409Y-4024D01*
X5499Y-4044D01*
X5590Y-4046D01*
X5679Y-4030D01*
X5764Y-3997D01*
X5841Y-3948D01*
X5860Y-3931D01*
X5860Y-4871D01*
X5854Y-4876D01*
X5833Y-4868D01*
X5747Y-4850D01*
X5659Y-4849D01*
X5572Y-4866D01*
X5490Y-4899D01*
X5416Y-4947D01*
X5353Y-5009D01*
X5303Y-5082D01*
X5268Y-5163D01*
X5250Y-5249D01*
X5249Y-5337D01*
X5265Y-5424D01*
X5297Y-5506D01*
X5345Y-5580D01*
X5406Y-5644D01*
X5479Y-5694D01*
X5560Y-5730D01*
X5646Y-5748D01*
X5734Y-5750D01*
X5821Y-5735D01*
X5903Y-5703D01*
X5978Y-5656D01*
X6042Y-5595D01*
X6093Y-5523D01*
X6129Y-5442D01*
X6148Y-5356D01*
X6150Y-5255D01*
X6132Y-5169D01*
X6123Y-5145D01*
X6184Y-5084D01*
X6195Y-5070D01*
X6206Y-5057D01*
X6207Y-5056D01*
X6207Y-5055D01*
X6216Y-5040D01*
X6224Y-5024D01*
X6224Y-5023D01*
X6225Y-5023D01*
X6230Y-5006D01*
X6235Y-4989D01*
X6235Y-4988D01*
X6236Y-4987D01*
X6238Y-4970D01*
X6239Y-4952D01*
X6239Y-4950D01*
X6239Y-4950D01*
X6239Y-4950D01*
X6240Y-4950D01*
X6240Y-3939D01*
X6310Y-3988D01*
X6394Y-4024D01*
X6483Y-4044D01*
X6574Y-4046D01*
X6664Y-4030D01*
X6749Y-3997D01*
X6826Y-3948D01*
X6892Y-3885D01*
X6944Y-3811D01*
X6981Y-3727D01*
X7002Y-3638D01*
X7003Y-3534D01*
X7003Y-4967D01*
X6988Y-4951D01*
X6915Y-4902D01*
X6833Y-4868D01*
X6747Y-4850D01*
X6659Y-4849D01*
X6572Y-4866D01*
X6490Y-4899D01*
X6416Y-4947D01*
X6353Y-5009D01*
X6303Y-5082D01*
X6268Y-5163D01*
X6250Y-5249D01*
X6249Y-5337D01*
X6265Y-5424D01*
X6297Y-5506D01*
X6345Y-5580D01*
X6406Y-5644D01*
X6479Y-5694D01*
X6560Y-5730D01*
X6646Y-5748D01*
X6734Y-5750D01*
X6821Y-5735D01*
X6903Y-5703D01*
X6978Y-5656D01*
X7042Y-5595D01*
X7093Y-5523D01*
X7129Y-5442D01*
X7148Y-5356D01*
X7150Y-5255D01*
X7150Y-6655D01*
X7132Y-6569D01*
X7099Y-6487D01*
X7050Y-6414D01*
X6988Y-6351D01*
X6915Y-6302D01*
X6833Y-6268D01*
X6747Y-6250D01*
X6659Y-6249D01*
X6572Y-6266D01*
X6490Y-6299D01*
X6416Y-6347D01*
X6353Y-6409D01*
X6303Y-6482D01*
X6268Y-6563D01*
X6250Y-6649D01*
X6249Y-6737D01*
X6265Y-6824D01*
X6297Y-6906D01*
X6345Y-6980D01*
X6406Y-7044D01*
X6479Y-7094D01*
X6510Y-7108D01*
X6510Y-8300D01*
X6511Y-8317D01*
X6513Y-8334D01*
X6513Y-8335D01*
X6513Y-8336D01*
X6518Y-8353D01*
X6523Y-8370D01*
X6524Y-8371D01*
X6524Y-8372D01*
X6532Y-8387D01*
X6540Y-8403D01*
X6541Y-8404D01*
X6541Y-8405D01*
X6552Y-8418D01*
X6563Y-8432D01*
X6565Y-8433D01*
X6565Y-8433D01*
X6565Y-8433D01*
X6565Y-8434D01*
X6625Y-8494D01*
X6624Y-8550D01*
X6635Y-8608D01*
X6651Y-8649D01*
X5653Y-8649D01*
X5566Y-8562D01*
X5602Y-8588D01*
X5656Y-8611D01*
X5714Y-8624D01*
X5773Y-8625D01*
X5831Y-8615D01*
X5885Y-8594D01*
X5935Y-8562D01*
X5978Y-8521D01*
X6012Y-8473D01*
X6036Y-8420D01*
X6049Y-8362D01*
X6050Y-8295D01*
X6038Y-8237D01*
X6016Y-8183D01*
X5983Y-8134D01*
X5942Y-8092D01*
X5893Y-8059D01*
X5890Y-8058D01*
X5890Y-7108D01*
X5903Y-7103D01*
X5978Y-7056D01*
X6042Y-6995D01*
X6093Y-6923D01*
X6129Y-6842D01*
X6148Y-6756D01*
X6150Y-6655D01*
X6132Y-6569D01*
X6099Y-6487D01*
X6050Y-6414D01*
X5988Y-6351D01*
X5915Y-6302D01*
X5833Y-6268D01*
X5747Y-6250D01*
X5659Y-6249D01*
X5572Y-6266D01*
X5490Y-6299D01*
X5416Y-6347D01*
X5353Y-6409D01*
X5303Y-6482D01*
X5268Y-6563D01*
X5250Y-6649D01*
X5249Y-6737D01*
X5265Y-6824D01*
X5297Y-6906D01*
X5345Y-6980D01*
X5406Y-7044D01*
X5479Y-7094D01*
X5510Y-7108D01*
X5510Y-7971D01*
X5493Y-7959D01*
X5439Y-7937D01*
X5381Y-7925D01*
X5322Y-7924D01*
X5264Y-7935D01*
X5210Y-7957D01*
X5161Y-7990D01*
X5119Y-8031D01*
X5085Y-8079D01*
X5074Y-8105D01*
X5043Y-8084D01*
X4989Y-8062D01*
X4931Y-8050D01*
X4872Y-8049D01*
X4814Y-8060D01*
X4760Y-8082D01*
X4711Y-8115D01*
X4669Y-8156D01*
X4637Y-8202D01*
X4608Y-8159D01*
X4567Y-8117D01*
X4518Y-8084D01*
X4464Y-8062D01*
X4406Y-8050D01*
X4368Y-8049D01*
X4834Y-7584D01*
X4845Y-7570D01*
X4856Y-7557D01*
X4857Y-7556D01*
X4857Y-7555D01*
X4866Y-7540D01*
X4874Y-7524D01*
X4874Y-7523D01*
X4875Y-7523D01*
X4880Y-7506D01*
X4885Y-7489D01*
X4885Y-7488D01*
X4886Y-7487D01*
X4888Y-7470D01*
X4889Y-7452D01*
X4889Y-7450D01*
X4889Y-7450D01*
X4889Y-7450D01*
X4890Y-7450D01*
X4890Y-7108D01*
X4903Y-7103D01*
X4978Y-7056D01*
X5042Y-6995D01*
X5093Y-6923D01*
X5129Y-6842D01*
X5148Y-6756D01*
X5150Y-6655D01*
X5132Y-6569D01*
X5099Y-6487D01*
X5050Y-6414D01*
X4988Y-6351D01*
X4915Y-6302D01*
X4833Y-6268D01*
X4747Y-6250D01*
X4659Y-6249D01*
X4572Y-6266D01*
X4490Y-6299D01*
X4416Y-6347D01*
X4353Y-6409D01*
X4303Y-6482D01*
X4268Y-6563D01*
X4250Y-6649D01*
X4249Y-6737D01*
X4265Y-6824D01*
X4297Y-6906D01*
X4345Y-6980D01*
X4406Y-7044D01*
X4479Y-7094D01*
X4510Y-7108D01*
X4510Y-7371D01*
X3915Y-7965D01*
X3904Y-7979D01*
X3893Y-7992D01*
X3892Y-7993D01*
X3892Y-7994D01*
X3890Y-7998D01*
X3890Y-7108D01*
X3903Y-7103D01*
X3978Y-7056D01*
X4042Y-6995D01*
X4093Y-6923D01*
X4129Y-6842D01*
X4148Y-6756D01*
X4150Y-6655D01*
X4150Y-5255D01*
X4132Y-5169D01*
X4099Y-5087D01*
X4050Y-5014D01*
X3988Y-4951D01*
X3915Y-4902D01*
X3833Y-4868D01*
X3747Y-4850D01*
X3659Y-4849D01*
X3572Y-4866D01*
X3490Y-4899D01*
X3416Y-4947D01*
X3353Y-5009D01*
X3303Y-5082D01*
X3268Y-5163D01*
X3250Y-5249D01*
X3249Y-5337D01*
X3265Y-5424D01*
X3297Y-5506D01*
X3345Y-5580D01*
X3406Y-5644D01*
X3479Y-5694D01*
X3560Y-5730D01*
X3646Y-5748D01*
X3734Y-5750D01*
X3821Y-5735D01*
X3903Y-5703D01*
X3978Y-5656D01*
X4042Y-5595D01*
X4093Y-5523D01*
X4129Y-5442D01*
X4148Y-5356D01*
X4150Y-5255D01*
X4150Y-6655D01*
X4132Y-6569D01*
X4099Y-6487D01*
X4050Y-6414D01*
X3988Y-6351D01*
X3915Y-6302D01*
X3833Y-6268D01*
X3747Y-6250D01*
X3659Y-6249D01*
X3572Y-6266D01*
X3490Y-6299D01*
X3416Y-6347D01*
X3353Y-6409D01*
X3303Y-6482D01*
X3268Y-6563D01*
X3250Y-6649D01*
X3249Y-6737D01*
X3265Y-6824D01*
X3297Y-6906D01*
X3345Y-6980D01*
X3406Y-7044D01*
X3479Y-7094D01*
X3510Y-7108D01*
X3510Y-9475D01*
X3510Y-9475D01*
X2890Y-8847D01*
X2890Y-7108D01*
X2903Y-7103D01*
X2978Y-7056D01*
X3042Y-6995D01*
X3093Y-6923D01*
X3129Y-6842D01*
X3148Y-6756D01*
X3150Y-6655D01*
X3132Y-6569D01*
X3099Y-6487D01*
X3050Y-6414D01*
X2988Y-6351D01*
X2915Y-6302D01*
X2833Y-6268D01*
X2747Y-6250D01*
X2659Y-6249D01*
X2572Y-6266D01*
X2490Y-6299D01*
X2416Y-6347D01*
X2353Y-6409D01*
X2303Y-6482D01*
X2268Y-6563D01*
X2250Y-6649D01*
X2249Y-6737D01*
X2265Y-6824D01*
X2297Y-6906D01*
X2345Y-6980D01*
X2406Y-7044D01*
X2479Y-7094D01*
X2510Y-7108D01*
X2510Y-8866D01*
X1890Y-8246D01*
X1890Y-7108D01*
X1903Y-7103D01*
X1978Y-7056D01*
X2042Y-6995D01*
X2093Y-6923D01*
X2129Y-6842D01*
X2148Y-6756D01*
X2150Y-6655D01*
X2150Y-5255D01*
X2132Y-5169D01*
X2099Y-5087D01*
X2076Y-5053D01*
X2076Y-2981D01*
X2049Y-2846D01*
X1997Y-2719D01*
X1921Y-2604D01*
X1824Y-2507D01*
X1710Y-2430D01*
X1583Y-2376D01*
X1448Y-2349D01*
X1311Y-2348D01*
X1176Y-2374D01*
X1048Y-2425D01*
X933Y-2500D01*
X835Y-2597D01*
X757Y-2710D01*
X703Y-2836D01*
X674Y-2971D01*
X672Y-3108D01*
X697Y-3244D01*
X748Y-3372D01*
X822Y-3487D01*
X918Y-3586D01*
X1031Y-3665D01*
X1157Y-3720D01*
X1291Y-3749D01*
X1429Y-3752D01*
X1564Y-3728D01*
X1692Y-3678D01*
X1808Y-3605D01*
X1908Y-3510D01*
X1987Y-3398D01*
X2043Y-3272D01*
X2074Y-3138D01*
X2076Y-2981D01*
X2076Y-5053D01*
X2050Y-5014D01*
X1988Y-4951D01*
X1915Y-4902D01*
X1833Y-4868D01*
X1747Y-4850D01*
X1659Y-4849D01*
X1572Y-4866D01*
X1490Y-4899D01*
X1416Y-4947D01*
X1353Y-5009D01*
X1303Y-5082D01*
X1268Y-5163D01*
X1250Y-5249D01*
X1249Y-5337D01*
X1265Y-5424D01*
X1297Y-5506D01*
X1345Y-5580D01*
X1406Y-5644D01*
X1479Y-5694D01*
X1560Y-5730D01*
X1646Y-5748D01*
X1734Y-5750D01*
X1821Y-5735D01*
X1903Y-5703D01*
X1978Y-5656D01*
X2042Y-5595D01*
X2093Y-5523D01*
X2129Y-5442D01*
X2148Y-5356D01*
X2150Y-5255D01*
X2150Y-6655D01*
X2132Y-6569D01*
X2099Y-6487D01*
X2050Y-6414D01*
X1988Y-6351D01*
X1915Y-6302D01*
X1833Y-6268D01*
X1747Y-6250D01*
X1659Y-6249D01*
X1572Y-6266D01*
X1490Y-6299D01*
X1416Y-6347D01*
X1353Y-6409D01*
X1303Y-6482D01*
X1268Y-6563D01*
X1250Y-6649D01*
X1249Y-6737D01*
X1265Y-6824D01*
X1297Y-6906D01*
X1345Y-6980D01*
X1406Y-7044D01*
X1479Y-7094D01*
X1510Y-7108D01*
X1510Y-8241D01*
X1123Y-7854D01*
X1129Y-7842D01*
X1148Y-7756D01*
X1150Y-7655D01*
X1150Y-6655D01*
X1132Y-6569D01*
X1099Y-6487D01*
X1050Y-6414D01*
X988Y-6351D01*
X915Y-6302D01*
X833Y-6268D01*
X747Y-6250D01*
X659Y-6249D01*
X572Y-6266D01*
X490Y-6299D01*
X416Y-6347D01*
X353Y-6409D01*
X303Y-6482D01*
X268Y-6563D01*
X250Y-6649D01*
X249Y-6737D01*
X265Y-6824D01*
X297Y-6906D01*
X345Y-6980D01*
X406Y-7044D01*
X479Y-7094D01*
X560Y-7130D01*
X646Y-7148D01*
X734Y-7150D01*
X821Y-7135D01*
X903Y-7103D01*
X978Y-7056D01*
X1042Y-6995D01*
X1093Y-6923D01*
X1129Y-6842D01*
X1148Y-6756D01*
X1150Y-6655D01*
X1150Y-7655D01*
X1132Y-7569D01*
X1099Y-7487D01*
X1050Y-7414D01*
X988Y-7351D01*
X915Y-7302D01*
X833Y-7268D01*
X747Y-7250D01*
X659Y-7249D01*
X572Y-7266D01*
X490Y-7299D01*
X416Y-7347D01*
X353Y-7409D01*
X303Y-7482D01*
X268Y-7563D01*
X250Y-7649D01*
X249Y-7737D01*
X265Y-7824D01*
X297Y-7906D01*
X345Y-7980D01*
X406Y-8044D01*
X479Y-8094D01*
X560Y-8130D01*
X646Y-8148D01*
X734Y-8150D01*
X821Y-8135D01*
X854Y-8122D01*
X3035Y-10303D01*
X3035Y-12666D01*
X2994Y-12706D01*
X2960Y-12754D01*
X2937Y-12808D01*
X2925Y-12866D01*
X2924Y-12925D01*
X2935Y-12983D01*
X2956Y-13037D01*
X2988Y-13087D01*
X3029Y-13129D01*
X3077Y-13163D01*
X3131Y-13186D01*
X3189Y-13199D01*
X3248Y-13200D01*
X3306Y-13190D01*
X3360Y-13169D01*
X3410Y-13137D01*
X3453Y-13096D01*
X3487Y-13048D01*
X3511Y-12995D01*
X3524Y-12937D01*
X3525Y-12870D01*
X3513Y-12812D01*
X3491Y-12758D01*
X3458Y-12709D01*
X3417Y-12667D01*
X3415Y-12666D01*
X3415Y-10308D01*
X4140Y-11034D01*
X4154Y-11045D01*
X4167Y-11056D01*
X4168Y-11057D01*
X4169Y-11057D01*
X4184Y-11066D01*
X4200Y-11074D01*
X4201Y-11074D01*
X4201Y-11075D01*
X4218Y-11080D01*
X4235Y-11085D01*
X4236Y-11085D01*
X4237Y-11086D01*
X4254Y-11088D01*
X4272Y-11089D01*
X4274Y-11089D01*
X4274Y-11089D01*
X4274Y-11089D01*
X4275Y-11090D01*
X6241Y-11090D01*
X6279Y-11129D01*
X6327Y-11163D01*
X6381Y-11186D01*
X6439Y-11199D01*
X6498Y-11200D01*
X6556Y-11190D01*
X6610Y-11169D01*
X6660Y-11137D01*
X6703Y-11096D01*
X6737Y-11048D01*
X6761Y-10995D01*
X6774Y-10937D01*
X6775Y-10870D01*
X6763Y-10812D01*
X6741Y-10758D01*
X6708Y-10709D01*
X6667Y-10667D01*
X6618Y-10634D01*
X6564Y-10612D01*
X6506Y-10600D01*
X6474Y-10599D01*
X6474Y-10550D01*
X6498Y-10550D01*
X6556Y-10540D01*
X6610Y-10519D01*
X6660Y-10487D01*
X6703Y-10446D01*
X6737Y-10398D01*
X6761Y-10345D01*
X6774Y-10287D01*
X6775Y-10220D01*
X6763Y-10162D01*
X6741Y-10108D01*
X6708Y-10059D01*
X6667Y-10017D01*
X6618Y-9984D01*
X6564Y-9962D01*
X6506Y-9950D01*
X6474Y-9949D01*
X6475Y-9920D01*
X6463Y-9862D01*
X6443Y-9815D01*
X8546Y-9815D01*
X9276Y-10545D01*
X9268Y-10563D01*
X9250Y-10649D01*
X9249Y-10737D01*
X9265Y-10824D01*
X9297Y-10906D01*
X9345Y-10980D01*
X9406Y-11044D01*
X9479Y-11094D01*
X9560Y-11130D01*
X9646Y-11148D01*
X9734Y-11150D01*
X9821Y-11135D01*
X9903Y-11103D01*
X9978Y-11056D01*
X10042Y-10995D01*
X10093Y-10923D01*
X10129Y-10842D01*
X10148Y-10756D01*
X10150Y-10655D01*
X10150Y-11655D01*
X10132Y-11569D01*
X10099Y-11487D01*
X10050Y-11414D01*
X9988Y-11351D01*
X9915Y-11302D01*
X9833Y-11268D01*
X9747Y-11250D01*
X9659Y-11249D01*
X9572Y-11266D01*
X9490Y-11299D01*
X9416Y-11347D01*
X9353Y-11409D01*
X9303Y-11482D01*
X9268Y-11563D01*
X9250Y-11649D01*
X9249Y-11737D01*
X9265Y-11824D01*
X9297Y-11906D01*
X9345Y-11980D01*
X9406Y-12044D01*
X9479Y-12094D01*
X9560Y-12130D01*
X9646Y-12148D01*
X9734Y-12150D01*
X9821Y-12135D01*
X9903Y-12103D01*
X9978Y-12056D01*
X10042Y-11995D01*
X10093Y-11923D01*
X10129Y-11842D01*
X10148Y-11756D01*
X10150Y-11655D01*
X10150Y-12655D01*
X10132Y-12569D01*
X10099Y-12487D01*
X10050Y-12414D01*
X9988Y-12351D01*
X9915Y-12302D01*
X9833Y-12268D01*
X9747Y-12250D01*
X9659Y-12249D01*
X9572Y-12266D01*
X9490Y-12299D01*
X9416Y-12347D01*
X9353Y-12409D01*
X9303Y-12482D01*
X9268Y-12563D01*
X9250Y-12649D01*
X9249Y-12737D01*
X9265Y-12824D01*
X9297Y-12906D01*
X9345Y-12980D01*
X9406Y-13044D01*
X9479Y-13094D01*
X9560Y-13130D01*
X9646Y-13148D01*
X9734Y-13150D01*
X9821Y-13135D01*
X9903Y-13103D01*
X9978Y-13056D01*
X10042Y-12995D01*
X10093Y-12923D01*
X10129Y-12842D01*
X10148Y-12756D01*
X10150Y-12655D01*
X10150Y-13655D01*
X10132Y-13569D01*
X10099Y-13487D01*
X10050Y-13414D01*
X9988Y-13351D01*
X9915Y-13302D01*
X9833Y-13268D01*
X9747Y-13250D01*
X9659Y-13249D01*
X9572Y-13266D01*
X9490Y-13299D01*
X9416Y-13347D01*
X9353Y-13409D01*
X9303Y-13482D01*
X9268Y-13563D01*
X9250Y-13649D01*
X9249Y-13737D01*
X9265Y-13824D01*
X9297Y-13906D01*
X9345Y-13980D01*
X9406Y-14044D01*
X9479Y-14094D01*
X9560Y-14130D01*
X9646Y-14148D01*
X9734Y-14150D01*
X9821Y-14135D01*
X9903Y-14103D01*
X9978Y-14056D01*
X10042Y-13995D01*
X10093Y-13923D01*
X10129Y-13842D01*
X10148Y-13756D01*
X10150Y-13655D01*
X10150Y-14655D01*
X10132Y-14569D01*
X10099Y-14487D01*
X10050Y-14414D01*
X9988Y-14351D01*
X9915Y-14302D01*
X9833Y-14268D01*
X9747Y-14250D01*
X9659Y-14249D01*
X9572Y-14266D01*
X9490Y-14299D01*
X9416Y-14347D01*
X9353Y-14409D01*
X9303Y-14482D01*
X9268Y-14563D01*
X9250Y-14649D01*
X9249Y-14737D01*
X9265Y-14824D01*
X9297Y-14906D01*
X9345Y-14980D01*
X9406Y-15044D01*
X9479Y-15094D01*
X9560Y-15130D01*
X9646Y-15148D01*
X9734Y-15150D01*
X9821Y-15135D01*
X9903Y-15103D01*
X9978Y-15056D01*
X10042Y-14995D01*
X10093Y-14923D01*
X10129Y-14842D01*
X10148Y-14756D01*
X10150Y-14655D01*
X10150Y-15662D01*
X10136Y-15581D01*
X10105Y-15499D01*
X10092Y-15476D01*
X10026Y-15444D01*
X9955Y-15514D01*
X9955Y-15373D01*
X9923Y-15307D01*
X9843Y-15271D01*
X9757Y-15251D01*
X9668Y-15248D01*
X9581Y-15263D01*
X9499Y-15294D01*
X9476Y-15307D01*
X9444Y-15373D01*
X9700Y-15629D01*
X9955Y-15373D01*
X9955Y-15514D01*
X9770Y-15700D01*
X10026Y-15955D01*
X10092Y-15923D01*
X10128Y-15843D01*
X10148Y-15757D01*
X10151Y-15668D01*
X10151Y-19258D01*
X10128Y-19301D01*
X10094Y-19343D01*
X10053Y-19377D01*
X10006Y-19402D01*
X9955Y-19418D01*
X9955Y-16026D01*
X9700Y-15770D01*
X9629Y-15841D01*
X9629Y-15700D01*
X9373Y-15444D01*
X9307Y-15476D01*
X9271Y-15556D01*
X9251Y-15642D01*
X9248Y-15731D01*
X9263Y-15818D01*
X9294Y-15900D01*
X9307Y-15923D01*
X9373Y-15955D01*
X9629Y-15700D01*
X9629Y-15841D01*
X9444Y-16026D01*
X9476Y-16092D01*
X9556Y-16128D01*
X9642Y-16148D01*
X9731Y-16151D01*
X9818Y-16136D01*
X9900Y-16105D01*
X9923Y-16092D01*
X9955Y-16026D01*
X9955Y-19418D01*
X9955Y-19418D01*
X9891Y-19425D01*
X9726Y-19425D01*
X9726Y-18206D01*
X9699Y-18071D01*
X9647Y-17944D01*
X9571Y-17829D01*
X9474Y-17732D01*
X9360Y-17655D01*
X9233Y-17601D01*
X9098Y-17574D01*
X8961Y-17573D01*
X8826Y-17599D01*
X8698Y-17650D01*
X8583Y-17725D01*
X8485Y-17822D01*
X8407Y-17935D01*
X8353Y-18061D01*
X8324Y-18196D01*
X8322Y-18333D01*
X8347Y-18469D01*
X8398Y-18597D01*
X8472Y-18712D01*
X8568Y-18811D01*
X8681Y-18890D01*
X8807Y-18945D01*
X8941Y-18974D01*
X9079Y-18977D01*
X9214Y-18953D01*
X9342Y-18903D01*
X9458Y-18830D01*
X9558Y-18735D01*
X9637Y-18623D01*
X9693Y-18497D01*
X9724Y-18363D01*
X9726Y-18206D01*
X9726Y-19425D01*
X8150Y-19425D01*
X8150Y-15655D01*
X8132Y-15569D01*
X8099Y-15487D01*
X8050Y-15414D01*
X7988Y-15351D01*
X7915Y-15302D01*
X7833Y-15268D01*
X7747Y-15250D01*
X7659Y-15249D01*
X7572Y-15266D01*
X7545Y-15276D01*
X6340Y-14071D01*
X6340Y-12933D01*
X6378Y-12896D01*
X6412Y-12848D01*
X6436Y-12795D01*
X6449Y-12737D01*
X6450Y-12670D01*
X6438Y-12612D01*
X6416Y-12558D01*
X6383Y-12509D01*
X6342Y-12467D01*
X6293Y-12434D01*
X6239Y-12412D01*
X6181Y-12400D01*
X6122Y-12399D01*
X6064Y-12410D01*
X6010Y-12432D01*
X5961Y-12465D01*
X5919Y-12506D01*
X5885Y-12554D01*
X5862Y-12608D01*
X5850Y-12666D01*
X5849Y-12725D01*
X5860Y-12783D01*
X5881Y-12837D01*
X5913Y-12887D01*
X5954Y-12929D01*
X5960Y-12933D01*
X5960Y-14150D01*
X5961Y-14167D01*
X5963Y-14184D01*
X5963Y-14185D01*
X5963Y-14186D01*
X5968Y-14203D01*
X5973Y-14220D01*
X5974Y-14221D01*
X5974Y-14222D01*
X5982Y-14237D01*
X5990Y-14253D01*
X5991Y-14254D01*
X5991Y-14255D01*
X6002Y-14268D01*
X6013Y-14282D01*
X6015Y-14283D01*
X6015Y-14283D01*
X6015Y-14283D01*
X6015Y-14284D01*
X7276Y-15545D01*
X7268Y-15563D01*
X7250Y-15649D01*
X7249Y-15737D01*
X7265Y-15824D01*
X7297Y-15906D01*
X7345Y-15980D01*
X7406Y-16044D01*
X7479Y-16094D01*
X7560Y-16130D01*
X7646Y-16148D01*
X7734Y-16150D01*
X7821Y-16135D01*
X7903Y-16103D01*
X7978Y-16056D01*
X8042Y-15995D01*
X8093Y-15923D01*
X8129Y-15842D01*
X8148Y-15756D01*
X8150Y-15655D01*
X8150Y-19425D01*
X7285Y-19425D01*
X7285Y-18415D01*
X7266Y-18415D01*
X7262Y-18405D01*
X7245Y-18380D01*
X7225Y-18359D01*
X7200Y-18343D01*
X7173Y-18331D01*
X7151Y-18327D01*
X7151Y-15668D01*
X7136Y-15581D01*
X7105Y-15499D01*
X7092Y-15476D01*
X7026Y-15444D01*
X6955Y-15514D01*
X6955Y-15373D01*
X6923Y-15307D01*
X6843Y-15271D01*
X6757Y-15251D01*
X6668Y-15248D01*
X6581Y-15263D01*
X6499Y-15294D01*
X6476Y-15307D01*
X6444Y-15373D01*
X6700Y-15629D01*
X6955Y-15373D01*
X6955Y-15514D01*
X6770Y-15700D01*
X7026Y-15955D01*
X7092Y-15923D01*
X7128Y-15843D01*
X7148Y-15757D01*
X7151Y-15668D01*
X7151Y-18327D01*
X7144Y-18326D01*
X7115Y-18325D01*
X6983Y-18325D01*
X6983Y-18305D01*
X6983Y-17516D01*
X6977Y-17487D01*
X6966Y-17460D01*
X6955Y-17444D01*
X6955Y-16026D01*
X6700Y-15770D01*
X6629Y-15841D01*
X6629Y-15700D01*
X6373Y-15444D01*
X6307Y-15476D01*
X6271Y-15556D01*
X6251Y-15642D01*
X6248Y-15731D01*
X6263Y-15818D01*
X6294Y-15900D01*
X6307Y-15923D01*
X6373Y-15955D01*
X6629Y-15700D01*
X6629Y-15841D01*
X6444Y-16026D01*
X6476Y-16092D01*
X6556Y-16128D01*
X6642Y-16148D01*
X6731Y-16151D01*
X6818Y-16136D01*
X6900Y-16105D01*
X6923Y-16092D01*
X6955Y-16026D01*
X6955Y-17444D01*
X6950Y-17436D01*
X6929Y-17415D01*
X6905Y-17398D01*
X6877Y-17387D01*
X6849Y-17381D01*
X6819Y-17381D01*
X6060Y-17381D01*
X6060Y-17379D01*
X5390Y-17380D01*
X5390Y-16026D01*
X5406Y-16044D01*
X5479Y-16094D01*
X5560Y-16130D01*
X5646Y-16148D01*
X5734Y-16150D01*
X5821Y-16135D01*
X5903Y-16103D01*
X5978Y-16056D01*
X6042Y-15995D01*
X6093Y-15923D01*
X6129Y-15842D01*
X6148Y-15756D01*
X6150Y-15655D01*
X6132Y-15569D01*
X6099Y-15487D01*
X6050Y-15414D01*
X5988Y-15351D01*
X5915Y-15302D01*
X5833Y-15268D01*
X5747Y-15250D01*
X5659Y-15249D01*
X5572Y-15266D01*
X5490Y-15299D01*
X5416Y-15347D01*
X5353Y-15409D01*
X5303Y-15482D01*
X5268Y-15563D01*
X5262Y-15593D01*
X5149Y-15706D01*
X5150Y-15655D01*
X5132Y-15569D01*
X5099Y-15487D01*
X5050Y-15414D01*
X4988Y-15351D01*
X4915Y-15302D01*
X4833Y-15268D01*
X4747Y-15250D01*
X4659Y-15249D01*
X4572Y-15266D01*
X4490Y-15299D01*
X4416Y-15347D01*
X4353Y-15409D01*
X4303Y-15482D01*
X4268Y-15563D01*
X4250Y-15649D01*
X4249Y-15737D01*
X4265Y-15824D01*
X4297Y-15906D01*
X4345Y-15980D01*
X4406Y-16044D01*
X4479Y-16094D01*
X4560Y-16130D01*
X4646Y-16148D01*
X4734Y-16150D01*
X4754Y-16147D01*
X4754Y-16457D01*
X4131Y-15834D01*
X4148Y-15756D01*
X4150Y-15655D01*
X4132Y-15569D01*
X4099Y-15487D01*
X4050Y-15414D01*
X3988Y-15351D01*
X3915Y-15302D01*
X3833Y-15268D01*
X3747Y-15250D01*
X3659Y-15249D01*
X3572Y-15266D01*
X3490Y-15299D01*
X3416Y-15347D01*
X3353Y-15409D01*
X3303Y-15482D01*
X3268Y-15563D01*
X3250Y-15649D01*
X3249Y-15737D01*
X3265Y-15824D01*
X3297Y-15906D01*
X3345Y-15980D01*
X3406Y-16044D01*
X3479Y-16094D01*
X3560Y-16130D01*
X3646Y-16148D01*
X3734Y-16150D01*
X3821Y-16135D01*
X3833Y-16130D01*
X4479Y-16775D01*
X4479Y-17381D01*
X4411Y-17382D01*
X4408Y-17381D01*
X4183Y-17381D01*
X4183Y-17380D01*
X3893Y-17381D01*
X3892Y-17381D01*
X3551Y-17381D01*
X3523Y-17387D01*
X3495Y-17398D01*
X3471Y-17414D01*
X3450Y-17435D01*
X3434Y-17459D01*
X3422Y-17486D01*
X3416Y-17515D01*
X3416Y-17544D01*
X3416Y-17837D01*
X3454Y-17875D01*
X3930Y-17875D01*
X3930Y-17581D01*
X4030Y-17581D01*
X4030Y-17875D01*
X4037Y-17875D01*
X4037Y-17975D01*
X4030Y-17975D01*
X4030Y-17982D01*
X3930Y-17982D01*
X3930Y-17975D01*
X3454Y-17975D01*
X3416Y-18012D01*
X3416Y-18305D01*
X3416Y-18325D01*
X3256Y-18325D01*
X3227Y-18331D01*
X3200Y-18342D01*
X3175Y-18359D01*
X3154Y-18379D01*
X3138Y-18404D01*
X3127Y-18429D01*
X3120Y-18429D01*
X3120Y-19425D01*
X2375Y-19425D01*
X2375Y-11795D01*
X2363Y-11737D01*
X2341Y-11683D01*
X2308Y-11634D01*
X2267Y-11592D01*
X2218Y-11559D01*
X2164Y-11537D01*
X2106Y-11525D01*
X2049Y-11524D01*
X2050Y-11495D01*
X2038Y-11437D01*
X2016Y-11383D01*
X1983Y-11334D01*
X1942Y-11292D01*
X1893Y-11259D01*
X1839Y-11237D01*
X1781Y-11225D01*
X1722Y-11224D01*
X1664Y-11235D01*
X1610Y-11257D01*
X1561Y-11290D01*
X1519Y-11331D01*
X1516Y-11335D01*
X1450Y-11335D01*
X1432Y-11336D01*
X1415Y-11338D01*
X1414Y-11338D01*
X1413Y-11338D01*
X1396Y-11343D01*
X1379Y-11348D01*
X1378Y-11349D01*
X1377Y-11349D01*
X1362Y-11357D01*
X1346Y-11365D01*
X1345Y-11366D01*
X1344Y-11366D01*
X1331Y-11377D01*
X1317Y-11388D01*
X1316Y-11390D01*
X1316Y-11390D01*
X1316Y-11390D01*
X1315Y-11390D01*
X1150Y-11556D01*
X1150Y-10655D01*
X1150Y-9655D01*
X1150Y-8655D01*
X1132Y-8569D01*
X1099Y-8487D01*
X1050Y-8414D01*
X988Y-8351D01*
X915Y-8302D01*
X833Y-8268D01*
X747Y-8250D01*
X659Y-8249D01*
X572Y-8266D01*
X490Y-8299D01*
X416Y-8347D01*
X353Y-8409D01*
X303Y-8482D01*
X268Y-8563D01*
X250Y-8649D01*
X249Y-8737D01*
X265Y-8824D01*
X297Y-8906D01*
X345Y-8980D01*
X406Y-9044D01*
X479Y-9094D01*
X560Y-9130D01*
X646Y-9148D01*
X734Y-9150D01*
X821Y-9135D01*
X903Y-9103D01*
X978Y-9056D01*
X1042Y-8995D01*
X1093Y-8923D01*
X1129Y-8842D01*
X1148Y-8756D01*
X1150Y-8655D01*
X1150Y-9655D01*
X1132Y-9569D01*
X1099Y-9487D01*
X1050Y-9414D01*
X988Y-9351D01*
X915Y-9302D01*
X833Y-9268D01*
X747Y-9250D01*
X659Y-9249D01*
X572Y-9266D01*
X490Y-9299D01*
X416Y-9347D01*
X353Y-9409D01*
X303Y-9482D01*
X268Y-9563D01*
X250Y-9649D01*
X249Y-9737D01*
X265Y-9824D01*
X297Y-9906D01*
X345Y-9980D01*
X406Y-10044D01*
X479Y-10094D01*
X560Y-10130D01*
X646Y-10148D01*
X734Y-10150D01*
X821Y-10135D01*
X903Y-10103D01*
X978Y-10056D01*
X1042Y-9995D01*
X1093Y-9923D01*
X1129Y-9842D01*
X1148Y-9756D01*
X1150Y-9655D01*
X1150Y-10655D01*
X1132Y-10569D01*
X1099Y-10487D01*
X1050Y-10414D01*
X988Y-10351D01*
X915Y-10302D01*
X833Y-10268D01*
X747Y-10250D01*
X659Y-10249D01*
X572Y-10266D01*
X490Y-10299D01*
X416Y-10347D01*
X353Y-10409D01*
X303Y-10482D01*
X268Y-10563D01*
X250Y-10649D01*
X249Y-10737D01*
X265Y-10824D01*
X297Y-10906D01*
X345Y-10980D01*
X406Y-11044D01*
X479Y-11094D01*
X560Y-11130D01*
X646Y-11148D01*
X734Y-11150D01*
X821Y-11135D01*
X903Y-11103D01*
X978Y-11056D01*
X1042Y-10995D01*
X1093Y-10923D01*
X1129Y-10842D01*
X1148Y-10756D01*
X1150Y-10655D01*
X1150Y-11556D01*
X1133Y-11572D01*
X1132Y-11569D01*
X1099Y-11487D01*
X1050Y-11414D01*
X988Y-11351D01*
X915Y-11302D01*
X833Y-11268D01*
X747Y-11250D01*
X659Y-11249D01*
X572Y-11266D01*
X490Y-11299D01*
X416Y-11347D01*
X353Y-11409D01*
X303Y-11482D01*
X268Y-11563D01*
X250Y-11649D01*
X249Y-11737D01*
X265Y-11824D01*
X297Y-11906D01*
X345Y-11980D01*
X406Y-12044D01*
X479Y-12094D01*
X560Y-12130D01*
X646Y-12148D01*
X734Y-12150D01*
X821Y-12135D01*
X903Y-12103D01*
X978Y-12056D01*
X1010Y-12026D01*
X1010Y-12300D01*
X1010Y-12373D01*
X988Y-12351D01*
X915Y-12302D01*
X833Y-12268D01*
X747Y-12250D01*
X659Y-12249D01*
X572Y-12266D01*
X490Y-12299D01*
X416Y-12347D01*
X353Y-12409D01*
X303Y-12482D01*
X268Y-12563D01*
X250Y-12649D01*
X249Y-12737D01*
X265Y-12824D01*
X297Y-12906D01*
X345Y-12980D01*
X406Y-13044D01*
X479Y-13094D01*
X560Y-13130D01*
X646Y-13148D01*
X734Y-13150D01*
X821Y-13135D01*
X903Y-13103D01*
X978Y-13056D01*
X1010Y-13026D01*
X1010Y-13373D01*
X988Y-13351D01*
X915Y-13302D01*
X833Y-13268D01*
X747Y-13250D01*
X659Y-13249D01*
X572Y-13266D01*
X490Y-13299D01*
X416Y-13347D01*
X353Y-13409D01*
X303Y-13482D01*
X268Y-13563D01*
X250Y-13649D01*
X249Y-13737D01*
X265Y-13824D01*
X297Y-13906D01*
X345Y-13980D01*
X406Y-14044D01*
X479Y-14094D01*
X560Y-14130D01*
X646Y-14148D01*
X734Y-14150D01*
X821Y-14135D01*
X903Y-14103D01*
X978Y-14056D01*
X1010Y-14026D01*
X1010Y-14341D01*
X993Y-14357D01*
X988Y-14351D01*
X915Y-14302D01*
X833Y-14268D01*
X747Y-14250D01*
X659Y-14249D01*
X572Y-14266D01*
X490Y-14299D01*
X416Y-14347D01*
X353Y-14409D01*
X303Y-14482D01*
X268Y-14563D01*
X250Y-14649D01*
X249Y-14737D01*
X265Y-14824D01*
X297Y-14906D01*
X345Y-14980D01*
X406Y-15044D01*
X479Y-15094D01*
X560Y-15130D01*
X646Y-15148D01*
X734Y-15150D01*
X821Y-15135D01*
X903Y-15103D01*
X978Y-15056D01*
X1042Y-14995D01*
X1093Y-14923D01*
X1129Y-14842D01*
X1148Y-14756D01*
X1148Y-14739D01*
X1260Y-14628D01*
X1260Y-14871D01*
X854Y-15276D01*
X833Y-15268D01*
X747Y-15250D01*
X659Y-15249D01*
X572Y-15266D01*
X490Y-15299D01*
X416Y-15347D01*
X353Y-15409D01*
X303Y-15482D01*
X268Y-15563D01*
X250Y-15649D01*
X249Y-15737D01*
X265Y-15824D01*
X297Y-15906D01*
X345Y-15980D01*
X406Y-16044D01*
X479Y-16094D01*
X560Y-16130D01*
X646Y-16148D01*
X734Y-16150D01*
X821Y-16135D01*
X903Y-16103D01*
X978Y-16056D01*
X1042Y-15995D01*
X1093Y-15923D01*
X1129Y-15842D01*
X1148Y-15756D01*
X1150Y-15655D01*
X1132Y-15569D01*
X1123Y-15545D01*
X1510Y-15158D01*
X1510Y-15291D01*
X1490Y-15299D01*
X1416Y-15347D01*
X1353Y-15409D01*
X1303Y-15482D01*
X1268Y-15563D01*
X1250Y-15649D01*
X1249Y-15737D01*
X1265Y-15824D01*
X1297Y-15906D01*
X1345Y-15980D01*
X1406Y-16044D01*
X1479Y-16094D01*
X1560Y-16130D01*
X1646Y-16148D01*
X1734Y-16150D01*
X1821Y-16135D01*
X1903Y-16103D01*
X1978Y-16056D01*
X2042Y-15995D01*
X2093Y-15923D01*
X2129Y-15842D01*
X2148Y-15756D01*
X2150Y-15655D01*
X2132Y-15569D01*
X2099Y-15487D01*
X2050Y-15414D01*
X1988Y-15351D01*
X1915Y-15302D01*
X1890Y-15291D01*
X1890Y-12416D01*
X1935Y-12387D01*
X1978Y-12346D01*
X2012Y-12298D01*
X2036Y-12245D01*
X2049Y-12187D01*
X2049Y-12124D01*
X2098Y-12125D01*
X2156Y-12115D01*
X2210Y-12094D01*
X2260Y-12062D01*
X2303Y-12021D01*
X2337Y-11973D01*
X2361Y-11920D01*
X2374Y-11862D01*
X2375Y-11795D01*
X2375Y-19425D01*
X2076Y-19425D01*
X2076Y-18206D01*
X2049Y-18071D01*
X1997Y-17944D01*
X1921Y-17829D01*
X1824Y-17732D01*
X1710Y-17655D01*
X1583Y-17601D01*
X1448Y-17574D01*
X1311Y-17573D01*
X1176Y-17599D01*
X1048Y-17650D01*
X933Y-17725D01*
X835Y-17822D01*
X757Y-17935D01*
X703Y-18061D01*
X674Y-18196D01*
X672Y-18333D01*
X697Y-18469D01*
X748Y-18597D01*
X822Y-18712D01*
X918Y-18811D01*
X1031Y-18890D01*
X1157Y-18945D01*
X1291Y-18974D01*
X1429Y-18977D01*
X1564Y-18953D01*
X1692Y-18903D01*
X1808Y-18830D01*
X1908Y-18735D01*
X1987Y-18623D01*
X2043Y-18497D01*
X2074Y-18363D01*
X2076Y-18206D01*
X2076Y-19425D01*
X511Y-19425D01*
X446Y-19418D01*
X395Y-19403D01*
X348Y-19378D01*
X306Y-19344D01*
X272Y-19303D01*
X247Y-19256D01*
X231Y-19205D01*
X225Y-19141D01*
X225Y-511D01*
X231Y-446D01*
X246Y-395D01*
X271Y-348D01*
X305Y-306D01*
X346Y-272D01*
X393Y-247D01*
X444Y-231D01*
X508Y-225D01*
X9888Y-225D01*
X9953Y-231D01*
X10004Y-246D01*
X10051Y-271D01*
X10093Y-305D01*
X10127Y-346D01*
X10152Y-393D01*
X10168Y-444D01*
X10175Y-508D01*
X10175Y-19138D01*
M02*
